<svg width="78" height="20" viewBox="0 0 78 20" fill="none" xmlns="http://www.w3.org/2000/svg">
<path d="M42.3457 3.13122C42.3457 4.14868 43.0892 4.83364 44.1264 4.83364C45.1635 4.83364 45.907 4.14868 45.907 3.13122C45.907 2.13331 45.1635 1.42886 44.1264 1.42886C43.0892 1.42886 42.3457 2.13331 42.3457 3.13122Z" fill="white"/>
<path d="M37.376 16.1441H40.4678V1.85925H37.376V16.1441Z" fill="white"/>
<path d="M27.4545 11.1934L29.2937 4.83377H29.3722L31.1139 11.1934H27.4545ZM31.9554 2.34842H27.8067L23.1689 16.1441H26.0261L26.8088 13.4438H31.7205L32.4638 16.1441H36.1233L31.9554 2.34842Z" fill="white"/>
<path d="M42.5811 16.144H45.6728V5.65524H42.5811V16.144Z" fill="white"/>
<path d="M77.981 5.67504L78.0003 5.65549H75.0846L73.2454 12.0347H73.1476L71.0342 5.65549H67.5703L71.7387 16.1833L69.997 19.3924V19.4707H72.7171L77.981 5.67504Z" fill="white"/>
<path d="M51.4065 14.3439C51.0544 14.3439 50.7216 14.3046 50.35 14.1873V8.51258C50.9957 8.06233 51.524 7.84721 52.1892 7.84721C53.3439 7.84721 54.2635 8.76702 54.2635 10.7238C54.2635 13.2285 52.9134 14.3439 51.4065 14.3439ZM53.3634 5.44031C52.2285 5.44031 51.3479 5.87085 50.35 6.69266V5.65552H47.2578V19.4707H50.35V16.0462C50.9369 16.2028 51.4848 16.2811 52.1502 16.2811C54.9092 16.2811 57.3945 14.246 57.3945 10.6257C57.3945 7.37755 55.594 5.44031 53.3634 5.44031H53.3634Z" fill="white"/>
<path d="M63.8717 13.6003C63.0499 14.0504 62.58 14.2263 62.0325 14.2263C61.2888 14.2263 60.8192 13.7372 60.8192 12.9544C60.8192 12.661 60.8778 12.3675 61.1125 12.1327C61.4845 11.7609 62.2086 11.4868 63.8718 11.0955V13.6003H63.8717ZM66.9635 13.522V9.13872C66.9635 6.75138 65.5548 5.44031 63.0696 5.44031C61.4844 5.44031 60.3886 5.71424 58.3926 6.32089L58.9403 8.72791C60.7603 7.90593 61.5627 7.55369 62.4042 7.55369C63.4218 7.55369 63.8717 8.27766 63.8717 9.39307V9.47141C60.3297 10.1366 59.2339 10.5085 58.549 11.1935C58.0404 11.7021 57.8252 12.4261 57.8252 13.2677C57.8252 15.2832 59.3907 16.3594 60.8584 16.3594C61.9541 16.3594 62.8346 15.9484 64.0285 15.0483L64.2437 16.1443H67.3354L66.9635 13.522L66.9635 13.522Z" fill="white"/>
<path d="M16.3787 0.251999H3.12402C1.39787 0.251999 0 1.66221 0 3.40291V16.7698C0 18.5094 1.39787 19.9202 3.12402 19.9202H16.3787C18.1045 19.9202 19.5016 18.5094 19.5016 16.7698V3.40291C19.5016 1.66221 18.1045 0.251999 16.3787 0.251999Z" fill="#1677FF"/>
<path d="M5.26884 15.377C2.23491 15.377 1.33793 12.9669 2.83731 11.6482C3.33765 11.2026 4.25194 10.985 4.73939 10.9362C6.54162 10.7566 8.20993 11.45 10.1787 12.4192C8.79483 14.2399 7.03221 15.377 5.26884 15.377ZM16.0557 12.6019C15.2754 12.3383 14.2282 11.9352 13.0619 11.5097C13.7624 10.2817 14.3218 8.88326 14.6895 7.36344H10.8454V5.96704H15.5545V5.1876H10.8454V2.85979H8.9236C8.58648 2.85979 8.58648 3.19544 8.58648 3.19544V5.1876H3.82381V5.96704H8.58648V7.36344H4.65428V8.14269H12.2807C12.0016 9.11243 11.6269 10.0229 11.1822 10.85C8.70751 10.0265 6.06689 9.3591 4.40798 9.76992C3.34705 10.0335 2.66377 10.504 2.26236 10.997C0.419962 13.2578 1.74138 16.6917 5.63231 16.6917C7.93286 16.6917 10.149 15.3981 11.8667 13.2662C14.4287 14.5083 19.501 16.6408 19.501 16.6408V13.6015C19.501 13.6015 18.864 13.5503 16.0557 12.6019Z" fill="white"/>
</svg>
