<svg width="32" height="32" viewBox="0 0 32 32" fill="none" xmlns="http://www.w3.org/2000/svg">
<path fill-rule="evenodd" clip-rule="evenodd" d="M7.51638 5.63076C6.99568 5.11006 6.15146 5.11006 5.63076 5.63076C5.11006 6.15146 5.11006 6.99568 5.63076 7.51638L14.1163 16.002L5.63096 24.4873C5.11026 25.008 5.11026 25.8522 5.63096 26.3729C6.15166 26.8936 6.99588 26.8936 7.51658 26.3729L16.002 17.8876L24.4869 26.3726C25.0076 26.8933 25.8519 26.8933 26.3726 26.3726C26.8933 25.8519 26.8933 25.0076 26.3726 24.4869L17.8876 16.002L26.3728 7.51676C26.8935 6.99607 26.8935 6.15185 26.3728 5.63115C25.8521 5.11045 25.0078 5.11045 24.4871 5.63115L16.002 14.1163L7.51638 5.63076Z" fill="white"/>
</svg>
