<svg width="32" height="32" viewBox="0 0 32 32" fill="none" xmlns="http://www.w3.org/2000/svg">
<path fill-rule="evenodd" clip-rule="evenodd" d="M16 32C24.8366 32 32 24.8366 32 16C32 7.16344 24.8366 0 16 0C7.16344 0 0 7.16344 0 16C0 24.8366 7.16344 32 16 32ZM11.31 14.4589C11.6845 14.9788 12.2214 15.3749 12.9206 15.6472C12.1465 15.87 11.5347 16.2785 11.0852 16.8727C10.6357 17.4668 10.411 18.1786 10.411 19.008C10.411 19.8126 10.6108 20.5181 11.0103 21.1247C11.4099 21.7188 11.9655 22.183 12.6772 22.5172C13.4013 22.8391 14.2379 23 15.1868 23C16.1357 23 16.9722 22.8391 17.6964 22.5172C18.433 22.183 19.0011 21.7188 19.4007 21.1247C19.8002 20.5181 20 19.8126 20 19.008C20 18.1786 19.769 17.473 19.307 16.8912C18.8576 16.2971 18.2458 15.8824 17.4717 15.6472C18.1459 15.3873 18.6765 14.9912 19.0636 14.4589C19.4506 13.9142 19.6442 13.2829 19.6442 12.565C19.6442 11.8966 19.4694 11.2962 19.1198 10.7639C18.7826 10.2193 18.277 9.79222 17.6028 9.48276C16.941 9.16092 16.1357 9 15.1868 9C14.2379 9 13.4263 9.16092 12.7521 9.48276C12.0903 9.79222 11.5909 10.2193 11.2538 10.7639C10.9167 11.2962 10.7481 11.8966 10.7481 12.565C10.7481 13.3077 10.9354 13.939 11.31 14.4589ZM17.2469 11.0239C17.7463 11.4324 17.996 12.0141 17.996 12.7692C17.996 13.4624 17.7339 14.0256 17.2095 14.4589C16.6975 14.8798 16.0233 15.0902 15.1868 15.0902C14.3627 15.0902 13.6885 14.8798 13.1641 14.4589C12.6522 14.038 12.3962 13.481 12.3962 12.7878C12.3962 12.0203 12.6459 11.4324 13.1454 11.0239C13.6448 10.6154 14.3253 10.4111 15.1868 10.4111C16.0608 10.4111 16.7475 10.6154 17.2469 11.0239ZM12.9206 17.0398C13.5075 16.6065 14.2628 16.3899 15.1868 16.3899C16.1232 16.3899 16.8786 16.6127 17.4529 17.0584C18.0273 17.4916 18.3144 18.1229 18.3144 18.9523C18.3144 19.7445 18.0335 20.382 17.4717 20.8647C16.9098 21.3475 16.1482 21.5889 15.1868 21.5889C14.2254 21.5889 13.4575 21.3475 12.8832 20.8647C12.3213 20.382 12.0404 19.7445 12.0404 18.9523C12.0404 18.0981 12.3338 17.4607 12.9206 17.0398ZM4 9.20424V10.7454H5.79794V22.6286H7.52096V9.20424H4ZM29 16.6118H25.6588V20H24.3255V16.6118H21V15.4039H24.3255V12H25.6588V15.4039H29V16.6118Z" fill="white" fill-opacity="0.5"/>
</svg>
