<svg width="140" height="140" viewBox="0 0 140 140" fill="none" xmlns="http://www.w3.org/2000/svg">
<mask id="mask0_302_4039" style="mask-type:alpha" maskUnits="userSpaceOnUse" x="0" y="0" width="120" height="120">
<circle cx="60" cy="60" r="60" fill="#0766FF"/>
</mask>
<g mask="url(#mask0_302_4039)">
<circle cx="60" cy="60" r="60" fill="#0766FF"/>
<path d="M84.4234 82.1589L87.9274 63.0757H67.5298V56.3263C67.5298 46.2417 71.4856 42.363 81.7254 42.363C84.9064 42.363 87.4668 42.4401 88.9403 42.5952V25.2967C86.1476 24.52 79.3211 23.7443 75.3643 23.7443C54.4964 23.7443 44.8773 33.5966 44.8773 54.8529V63.0757H32V82.1589H44.8773V123.686C49.7093 124.885 54.7609 125.525 59.9637 125.525C62.5251 125.525 65.0485 125.367 67.5298 125.068V82.1589" fill="white"/>
</g>
</svg>
