<svg width="32" height="32" viewBox="0 0 32 32" fill="none" xmlns="http://www.w3.org/2000/svg">
<g clip-path="url(#clip0_15956_30573)">
<g clip-path="url(#clip1_15956_30573)">
<path fill-rule="evenodd" clip-rule="evenodd" d="M10.393 5.95774C8.4548 5.78052 7.26645 6.24757 6.8139 6.46992C3.97607 7.55994 1.96191 10.3111 1.96191 13.5326C1.96191 15.3111 2.57575 16.9461 3.60309 18.2375L5.30625 16.5083C6.21348 15.5871 7.71282 15.6331 8.56191 16.6081C9.02881 17.1442 9.19401 17.8443 9.06585 18.4959C9.88823 18.0453 10.9527 18.1454 11.6486 18.8286C12.3065 19.4746 12.4742 20.4748 12.1321 21.2891C12.7887 21.1485 13.5291 21.3883 14.0728 22.0105C14.61 22.6254 14.7811 23.6338 14.3505 24.3865C14.9887 24.2945 15.6611 24.5346 16.1351 25.0789C16.8328 25.8801 16.8933 27.3113 16.1351 28.0555L14.8338 29.4008L14.9367 29.4905C15.9123 30.341 17.381 30.2868 18.2913 29.3666C18.6464 29.0077 18.8671 28.5684 18.9556 28.1095C19.8903 28.6714 21.113 28.5394 21.906 27.7396C22.3543 27.2875 22.5852 26.705 22.6033 26.1185C23.4683 26.4443 24.4773 26.2525 25.164 25.5599C25.9193 24.7981 26.0575 23.6662 25.6 22.7686C26.2661 22.8576 26.9624 22.6446 27.4709 22.1371C28.3842 21.2255 28.3349 19.7314 27.3636 18.882L27.3499 18.87C27.348 18.8717 27.346 18.8734 27.3441 18.8751L18.2507 10.9141C18.0684 10.7545 17.8337 10.6665 17.5961 10.7138C16.9756 10.8374 15.9363 11.1801 15.057 11.4701L15.057 11.4701C14.8504 11.5382 14.6527 11.6034 14.4713 11.6622L14.4678 11.6633C14.2488 11.7342 14.0382 11.8025 13.8403 11.8656C13.5949 11.9664 13.3263 12.022 13.0446 12.022C11.8877 12.022 10.9499 11.0842 10.9499 9.92736C10.9499 9.09845 11.4313 8.38199 12.1299 8.0424L12.1275 8.0365C13.3975 7.53304 14.821 7.13553 16.2531 6.82792C15.0778 6.64654 12.9765 6.33252 10.393 5.95774Z" fill="url(#paint0_linear_15956_30573)"/>
<path fill-rule="evenodd" clip-rule="evenodd" d="M10.393 5.95774C8.4548 5.78052 7.26645 6.24757 6.8139 6.46992C3.97607 7.55994 1.96191 10.3111 1.96191 13.5326C1.96191 15.3111 2.57575 16.9461 3.60309 18.2375L5.30625 16.5083C6.21348 15.5871 7.71282 15.6331 8.56191 16.6081C9.02881 17.1442 9.19401 17.8443 9.06585 18.4959C9.88823 18.0453 10.9527 18.1454 11.6486 18.8286C12.3065 19.4746 12.4742 20.4748 12.1321 21.2891C12.7887 21.1485 13.5291 21.3883 14.0728 22.0105C14.61 22.6254 14.7811 23.6338 14.3505 24.3865C14.9887 24.2945 15.6611 24.5346 16.1351 25.0789C16.8328 25.8801 16.8933 27.3113 16.1351 28.0555L14.8338 29.4008L14.9367 29.4905C15.9123 30.341 17.381 30.2868 18.2913 29.3666C18.6464 29.0077 18.8671 28.5684 18.9556 28.1095C19.8903 28.6714 21.113 28.5394 21.906 27.7396C22.3543 27.2875 22.5852 26.705 22.6033 26.1185C23.4683 26.4443 24.4773 26.2525 25.164 25.5599C25.9193 24.7981 26.0575 23.6662 25.6 22.7686C26.2661 22.8576 26.9624 22.6446 27.4709 22.1371C28.3842 21.2255 28.3349 19.7314 27.3636 18.882L27.3499 18.87C27.348 18.8717 27.346 18.8734 27.3441 18.8751L18.2507 10.9141C18.0684 10.7545 17.8337 10.6665 17.5961 10.7138C16.9756 10.8374 15.9363 11.1801 15.057 11.4701L15.057 11.4701C14.8504 11.5382 14.6527 11.6034 14.4713 11.6622L14.4678 11.6633C14.2488 11.7342 14.0382 11.8025 13.8403 11.8656C13.5949 11.9664 13.3263 12.022 13.0446 12.022C11.8877 12.022 10.9499 11.0842 10.9499 9.92736C10.9499 9.09845 11.4313 8.38199 12.1299 8.0424L12.1275 8.0365C13.3975 7.53304 14.821 7.13553 16.2531 6.82792C15.0778 6.64654 12.9765 6.33252 10.393 5.95774Z" fill="url(#paint1_radial_15956_30573)"/>
<path fill-rule="evenodd" clip-rule="evenodd" d="M10.393 5.95774C8.4548 5.78052 7.26645 6.24757 6.8139 6.46992C3.97607 7.55994 1.96191 10.3111 1.96191 13.5326C1.96191 15.3111 2.57575 16.9461 3.60309 18.2375L5.30625 16.5083C6.21348 15.5871 7.71282 15.6331 8.56191 16.6081C9.02881 17.1442 9.19401 17.8443 9.06585 18.4959C9.88823 18.0453 10.9527 18.1454 11.6486 18.8286C12.3065 19.4746 12.4742 20.4748 12.1321 21.2891C12.7887 21.1485 13.5291 21.3883 14.0728 22.0105C14.61 22.6254 14.7811 23.6338 14.3505 24.3865C14.9887 24.2945 15.6611 24.5346 16.1351 25.0789C16.8328 25.8801 16.8933 27.3113 16.1351 28.0555L14.8338 29.4008L14.9367 29.4905C15.9123 30.341 17.381 30.2868 18.2913 29.3666C18.6464 29.0077 18.8671 28.5684 18.9556 28.1095C19.8903 28.6714 21.113 28.5394 21.906 27.7396C22.3543 27.2875 22.5852 26.705 22.6033 26.1185C23.4683 26.4443 24.4773 26.2525 25.164 25.5599C25.9193 24.7981 26.0575 23.6662 25.6 22.7686C26.2661 22.8576 26.9624 22.6446 27.4709 22.1371C28.3842 21.2255 28.3349 19.7314 27.3636 18.882L27.3499 18.87C27.348 18.8717 27.346 18.8734 27.3441 18.8751L18.2507 10.9141C18.0684 10.7545 17.8337 10.6665 17.5961 10.7138C16.9756 10.8374 15.9363 11.1801 15.057 11.4701L15.057 11.4701C14.8504 11.5382 14.6527 11.6034 14.4713 11.6622L14.4678 11.6633C14.2488 11.7342 14.0382 11.8025 13.8403 11.8656C13.5949 11.9664 13.3263 12.022 13.0446 12.022C11.8877 12.022 10.9499 11.0842 10.9499 9.92736C10.9499 9.09845 11.4313 8.38199 12.1299 8.0424L12.1275 8.0365C13.3975 7.53304 14.821 7.13553 16.2531 6.82792C15.0778 6.64654 12.9765 6.33252 10.393 5.95774Z" fill="url(#paint2_radial_15956_30573)"/>
<path fill-rule="evenodd" clip-rule="evenodd" d="M10.393 5.95774C8.4548 5.78052 7.26645 6.24757 6.8139 6.46992C3.97607 7.55994 1.96191 10.3111 1.96191 13.5326C1.96191 15.3111 2.57575 16.9461 3.60309 18.2375L5.30625 16.5083C6.21348 15.5871 7.71282 15.6331 8.56191 16.6081C9.02881 17.1442 9.19401 17.8443 9.06585 18.4959C9.88823 18.0453 10.9527 18.1454 11.6486 18.8286C12.3065 19.4746 12.4742 20.4748 12.1321 21.2891C12.7887 21.1485 13.5291 21.3883 14.0728 22.0105C14.61 22.6254 14.7811 23.6338 14.3505 24.3865C14.9887 24.2945 15.6611 24.5346 16.1351 25.0789C16.8328 25.8801 16.8933 27.3113 16.1351 28.0555L14.8338 29.4008L14.9367 29.4905C15.9123 30.341 17.381 30.2868 18.2913 29.3666C18.6464 29.0077 18.8671 28.5684 18.9556 28.1095C19.8903 28.6714 21.113 28.5394 21.906 27.7396C22.3543 27.2875 22.5852 26.705 22.6033 26.1185C23.4683 26.4443 24.4773 26.2525 25.164 25.5599C25.9193 24.7981 26.0575 23.6662 25.6 22.7686C26.2661 22.8576 26.9624 22.6446 27.4709 22.1371C28.3842 21.2255 28.3349 19.7314 27.3636 18.882L27.3499 18.87C27.348 18.8717 27.346 18.8734 27.3441 18.8751L18.2507 10.9141C18.0684 10.7545 17.8337 10.6665 17.5961 10.7138C16.9756 10.8374 15.9363 11.1801 15.057 11.4701L15.057 11.4701C14.8504 11.5382 14.6527 11.6034 14.4713 11.6622L14.4678 11.6633C14.2488 11.7342 14.0382 11.8025 13.8403 11.8656C13.5949 11.9664 13.3263 12.022 13.0446 12.022C11.8877 12.022 10.9499 11.0842 10.9499 9.92736C10.9499 9.09845 11.4313 8.38199 12.1299 8.0424L12.1275 8.0365C13.3975 7.53304 14.821 7.13553 16.2531 6.82792C15.0778 6.64654 12.9765 6.33252 10.393 5.95774Z" fill="url(#paint3_radial_15956_30573)"/>
<path fill-rule="evenodd" clip-rule="evenodd" d="M10.393 5.95774C8.4548 5.78052 7.26645 6.24757 6.8139 6.46992C3.97607 7.55994 1.96191 10.3111 1.96191 13.5326C1.96191 15.3111 2.57575 16.9461 3.60309 18.2375L5.30625 16.5083C6.21348 15.5871 7.71282 15.6331 8.56191 16.6081C9.02881 17.1442 9.19401 17.8443 9.06585 18.4959C9.88823 18.0453 10.9527 18.1454 11.6486 18.8286C12.3065 19.4746 12.4742 20.4748 12.1321 21.2891C12.7887 21.1485 13.5291 21.3883 14.0728 22.0105C14.61 22.6254 14.7811 23.6338 14.3505 24.3865C14.9887 24.2945 15.6611 24.5346 16.1351 25.0789C16.8328 25.8801 16.8933 27.3113 16.1351 28.0555L14.8338 29.4008L14.9367 29.4905C15.9123 30.341 17.381 30.2868 18.2913 29.3666C18.6464 29.0077 18.8671 28.5684 18.9556 28.1095C19.8903 28.6714 21.113 28.5394 21.906 27.7396C22.3543 27.2875 22.5852 26.705 22.6033 26.1185C23.4683 26.4443 24.4773 26.2525 25.164 25.5599C25.9193 24.7981 26.0575 23.6662 25.6 22.7686C26.2661 22.8576 26.9624 22.6446 27.4709 22.1371C28.3842 21.2255 28.3349 19.7314 27.3636 18.882L27.3499 18.87C27.348 18.8717 27.346 18.8734 27.3441 18.8751L18.2507 10.9141C18.0684 10.7545 17.8337 10.6665 17.5961 10.7138C16.9756 10.8374 15.9363 11.1801 15.057 11.4701L15.057 11.4701C14.8504 11.5382 14.6527 11.6034 14.4713 11.6622L14.4678 11.6633C14.2488 11.7342 14.0382 11.8025 13.8403 11.8656C13.5949 11.9664 13.3263 12.022 13.0446 12.022C11.8877 12.022 10.9499 11.0842 10.9499 9.92736C10.9499 9.09845 11.4313 8.38199 12.1299 8.0424L12.1275 8.0365C13.3975 7.53304 14.821 7.13553 16.2531 6.82792C15.0778 6.64654 12.9765 6.33252 10.393 5.95774Z" fill="url(#paint4_radial_15956_30573)"/>
<path fill-rule="evenodd" clip-rule="evenodd" d="M10.393 5.95774C8.4548 5.78052 7.26645 6.24757 6.8139 6.46992C3.97607 7.55994 1.96191 10.3111 1.96191 13.5326C1.96191 15.3111 2.57575 16.9461 3.60309 18.2375L5.30625 16.5083C6.21348 15.5871 7.71282 15.6331 8.56191 16.6081C9.02881 17.1442 9.19401 17.8443 9.06585 18.4959C9.88823 18.0453 10.9527 18.1454 11.6486 18.8286C12.3065 19.4746 12.4742 20.4748 12.1321 21.2891C12.7887 21.1485 13.5291 21.3883 14.0728 22.0105C14.61 22.6254 14.7811 23.6338 14.3505 24.3865C14.9887 24.2945 15.6611 24.5346 16.1351 25.0789C16.8328 25.8801 16.8933 27.3113 16.1351 28.0555L14.8338 29.4008L14.9367 29.4905C15.9123 30.341 17.381 30.2868 18.2913 29.3666C18.6464 29.0077 18.8671 28.5684 18.9556 28.1095C19.8903 28.6714 21.113 28.5394 21.906 27.7396C22.3543 27.2875 22.5852 26.705 22.6033 26.1185C23.4683 26.4443 24.4773 26.2525 25.164 25.5599C25.9193 24.7981 26.0575 23.6662 25.6 22.7686C26.2661 22.8576 26.9624 22.6446 27.4709 22.1371C28.3842 21.2255 28.3349 19.7314 27.3636 18.882L27.3499 18.87C27.348 18.8717 27.346 18.8734 27.3441 18.8751L18.2507 10.9141C18.0684 10.7545 17.8337 10.6665 17.5961 10.7138C16.9756 10.8374 15.9363 11.1801 15.057 11.4701L15.057 11.4701C14.8504 11.5382 14.6527 11.6034 14.4713 11.6622L14.4678 11.6633C14.2488 11.7342 14.0382 11.8025 13.8403 11.8656C13.5949 11.9664 13.3263 12.022 13.0446 12.022C11.8877 12.022 10.9499 11.0842 10.9499 9.92736C10.9499 9.09845 11.4313 8.38199 12.1299 8.0424L12.1275 8.0365C13.3975 7.53304 14.821 7.13553 16.2531 6.82792C15.0778 6.64654 12.9765 6.33252 10.393 5.95774Z" fill="url(#paint5_radial_15956_30573)"/>
<path fill-rule="evenodd" clip-rule="evenodd" d="M10.393 5.95774C8.4548 5.78052 7.26645 6.24757 6.8139 6.46992C3.97607 7.55994 1.96191 10.3111 1.96191 13.5326C1.96191 15.3111 2.57575 16.9461 3.60309 18.2375L5.30625 16.5083C6.21348 15.5871 7.71282 15.6331 8.56191 16.6081C9.02881 17.1442 9.19401 17.8443 9.06585 18.4959C9.88823 18.0453 10.9527 18.1454 11.6486 18.8286C12.3065 19.4746 12.4742 20.4748 12.1321 21.2891C12.7887 21.1485 13.5291 21.3883 14.0728 22.0105C14.61 22.6254 14.7811 23.6338 14.3505 24.3865C14.9887 24.2945 15.6611 24.5346 16.1351 25.0789C16.8328 25.8801 16.8933 27.3113 16.1351 28.0555L14.8338 29.4008L14.9367 29.4905C15.9123 30.341 17.381 30.2868 18.2913 29.3666C18.6464 29.0077 18.8671 28.5684 18.9556 28.1095C19.8903 28.6714 21.113 28.5394 21.906 27.7396C22.3543 27.2875 22.5852 26.705 22.6033 26.1185C23.4683 26.4443 24.4773 26.2525 25.164 25.5599C25.9193 24.7981 26.0575 23.6662 25.6 22.7686C26.2661 22.8576 26.9624 22.6446 27.4709 22.1371C28.3842 21.2255 28.3349 19.7314 27.3636 18.882L27.3499 18.87C27.348 18.8717 27.346 18.8734 27.3441 18.8751L18.2507 10.9141C18.0684 10.7545 17.8337 10.6665 17.5961 10.7138C16.9756 10.8374 15.9363 11.1801 15.057 11.4701L15.057 11.4701C14.8504 11.5382 14.6527 11.6034 14.4713 11.6622L14.4678 11.6633C14.2488 11.7342 14.0382 11.8025 13.8403 11.8656C13.5949 11.9664 13.3263 12.022 13.0446 12.022C11.8877 12.022 10.9499 11.0842 10.9499 9.92736C10.9499 9.09845 11.4313 8.38199 12.1299 8.0424L12.1275 8.0365C13.3975 7.53304 14.821 7.13553 16.2531 6.82792C15.0778 6.64654 12.9765 6.33252 10.393 5.95774Z" fill="url(#paint6_radial_15956_30573)"/>
<path fill-rule="evenodd" clip-rule="evenodd" d="M10.393 5.95774C8.4548 5.78052 7.26645 6.24757 6.8139 6.46992C3.97607 7.55994 1.96191 10.3111 1.96191 13.5326C1.96191 15.3111 2.57575 16.9461 3.60309 18.2375L5.30625 16.5083C6.21348 15.5871 7.71282 15.6331 8.56191 16.6081C9.02881 17.1442 9.19401 17.8443 9.06585 18.4959C9.88823 18.0453 10.9527 18.1454 11.6486 18.8286C12.3065 19.4746 12.4742 20.4748 12.1321 21.2891C12.7887 21.1485 13.5291 21.3883 14.0728 22.0105C14.61 22.6254 14.7811 23.6338 14.3505 24.3865C14.9887 24.2945 15.6611 24.5346 16.1351 25.0789C16.8328 25.8801 16.8933 27.3113 16.1351 28.0555L14.8338 29.4008L14.9367 29.4905C15.9123 30.341 17.381 30.2868 18.2913 29.3666C18.6464 29.0077 18.8671 28.5684 18.9556 28.1095C19.8903 28.6714 21.113 28.5394 21.906 27.7396C22.3543 27.2875 22.5852 26.705 22.6033 26.1185C23.4683 26.4443 24.4773 26.2525 25.164 25.5599C25.9193 24.7981 26.0575 23.6662 25.6 22.7686C26.2661 22.8576 26.9624 22.6446 27.4709 22.1371C28.3842 21.2255 28.3349 19.7314 27.3636 18.882L27.3499 18.87C27.348 18.8717 27.346 18.8734 27.3441 18.8751L18.2507 10.9141C18.0684 10.7545 17.8337 10.6665 17.5961 10.7138C16.9756 10.8374 15.9363 11.1801 15.057 11.4701L15.057 11.4701C14.8504 11.5382 14.6527 11.6034 14.4713 11.6622L14.4678 11.6633C14.2488 11.7342 14.0382 11.8025 13.8403 11.8656C13.5949 11.9664 13.3263 12.022 13.0446 12.022C11.8877 12.022 10.9499 11.0842 10.9499 9.92736C10.9499 9.09845 11.4313 8.38199 12.1299 8.0424L12.1275 8.0365C13.3975 7.53304 14.821 7.13553 16.2531 6.82792C15.0778 6.64654 12.9765 6.33252 10.393 5.95774Z" fill="url(#paint7_radial_15956_30573)"/>
<path fill-rule="evenodd" clip-rule="evenodd" d="M10.393 5.95774C8.4548 5.78052 7.26645 6.24757 6.8139 6.46992C3.97607 7.55994 1.96191 10.3111 1.96191 13.5326C1.96191 15.3111 2.57575 16.9461 3.60309 18.2375L5.30625 16.5083C6.21348 15.5871 7.71282 15.6331 8.56191 16.6081C9.02881 17.1442 9.19401 17.8443 9.06585 18.4959C9.88823 18.0453 10.9527 18.1454 11.6486 18.8286C12.3065 19.4746 12.4742 20.4748 12.1321 21.2891C12.7887 21.1485 13.5291 21.3883 14.0728 22.0105C14.61 22.6254 14.7811 23.6338 14.3505 24.3865C14.9887 24.2945 15.6611 24.5346 16.1351 25.0789C16.8328 25.8801 16.8933 27.3113 16.1351 28.0555L14.8338 29.4008L14.9367 29.4905C15.9123 30.341 17.381 30.2868 18.2913 29.3666C18.6464 29.0077 18.8671 28.5684 18.9556 28.1095C19.8903 28.6714 21.113 28.5394 21.906 27.7396C22.3543 27.2875 22.5852 26.705 22.6033 26.1185C23.4683 26.4443 24.4773 26.2525 25.164 25.5599C25.9193 24.7981 26.0575 23.6662 25.6 22.7686C26.2661 22.8576 26.9624 22.6446 27.4709 22.1371C28.3842 21.2255 28.3349 19.7314 27.3636 18.882L27.3499 18.87C27.348 18.8717 27.346 18.8734 27.3441 18.8751L18.2507 10.9141C18.0684 10.7545 17.8337 10.6665 17.5961 10.7138C16.9756 10.8374 15.9363 11.1801 15.057 11.4701L15.057 11.4701C14.8504 11.5382 14.6527 11.6034 14.4713 11.6622L14.4678 11.6633C14.2488 11.7342 14.0382 11.8025 13.8403 11.8656C13.5949 11.9664 13.3263 12.022 13.0446 12.022C11.8877 12.022 10.9499 11.0842 10.9499 9.92736C10.9499 9.09845 11.4313 8.38199 12.1299 8.0424L12.1275 8.0365C13.3975 7.53304 14.821 7.13553 16.2531 6.82792C15.0778 6.64654 12.9765 6.33252 10.393 5.95774Z" fill="url(#paint8_radial_15956_30573)"/>
<path fill-rule="evenodd" clip-rule="evenodd" d="M10.393 5.95774C8.4548 5.78052 7.26645 6.24757 6.8139 6.46992C3.97607 7.55994 1.96191 10.3111 1.96191 13.5326C1.96191 15.3111 2.57575 16.9461 3.60309 18.2375L5.30625 16.5083C6.21348 15.5871 7.71282 15.6331 8.56191 16.6081C9.02881 17.1442 9.19401 17.8443 9.06585 18.4959C9.88823 18.0453 10.9527 18.1454 11.6486 18.8286C12.3065 19.4746 12.4742 20.4748 12.1321 21.2891C12.7887 21.1485 13.5291 21.3883 14.0728 22.0105C14.61 22.6254 14.7811 23.6338 14.3505 24.3865C14.9887 24.2945 15.6611 24.5346 16.1351 25.0789C16.8328 25.8801 16.8933 27.3113 16.1351 28.0555L14.8338 29.4008L14.9367 29.4905C15.9123 30.341 17.381 30.2868 18.2913 29.3666C18.6464 29.0077 18.8671 28.5684 18.9556 28.1095C19.8903 28.6714 21.113 28.5394 21.906 27.7396C22.3543 27.2875 22.5852 26.705 22.6033 26.1185C23.4683 26.4443 24.4773 26.2525 25.164 25.5599C25.9193 24.7981 26.0575 23.6662 25.6 22.7686C26.2661 22.8576 26.9624 22.6446 27.4709 22.1371C28.3842 21.2255 28.3349 19.7314 27.3636 18.882L27.3499 18.87C27.348 18.8717 27.346 18.8734 27.3441 18.8751L18.2507 10.9141C18.0684 10.7545 17.8337 10.6665 17.5961 10.7138C16.9756 10.8374 15.9363 11.1801 15.057 11.4701L15.057 11.4701C14.8504 11.5382 14.6527 11.6034 14.4713 11.6622L14.4678 11.6633C14.2488 11.7342 14.0382 11.8025 13.8403 11.8656C13.5949 11.9664 13.3263 12.022 13.0446 12.022C11.8877 12.022 10.9499 11.0842 10.9499 9.92736C10.9499 9.09845 11.4313 8.38199 12.1299 8.0424L12.1275 8.0365C13.3975 7.53304 14.821 7.13553 16.2531 6.82792C15.0778 6.64654 12.9765 6.33252 10.393 5.95774Z" fill="url(#paint9_radial_15956_30573)"/>
<path fill-rule="evenodd" clip-rule="evenodd" d="M10.393 5.95774C8.4548 5.78052 7.26645 6.24757 6.8139 6.46992C3.97607 7.55994 1.96191 10.3111 1.96191 13.5326C1.96191 15.3111 2.57575 16.9461 3.60309 18.2375L5.30625 16.5083C6.21348 15.5871 7.71282 15.6331 8.56191 16.6081C9.02881 17.1442 9.19401 17.8443 9.06585 18.4959C9.88823 18.0453 10.9527 18.1454 11.6486 18.8286C12.3065 19.4746 12.4742 20.4748 12.1321 21.2891C12.7887 21.1485 13.5291 21.3883 14.0728 22.0105C14.61 22.6254 14.7811 23.6338 14.3505 24.3865C14.9887 24.2945 15.6611 24.5346 16.1351 25.0789C16.8328 25.8801 16.8933 27.3113 16.1351 28.0555L14.8338 29.4008L14.9367 29.4905C15.9123 30.341 17.381 30.2868 18.2913 29.3666C18.6464 29.0077 18.8671 28.5684 18.9556 28.1095C19.8903 28.6714 21.113 28.5394 21.906 27.7396C22.3543 27.2875 22.5852 26.705 22.6033 26.1185C23.4683 26.4443 24.4773 26.2525 25.164 25.5599C25.9193 24.7981 26.0575 23.6662 25.6 22.7686C26.2661 22.8576 26.9624 22.6446 27.4709 22.1371C28.3842 21.2255 28.3349 19.7314 27.3636 18.882L27.3499 18.87C27.348 18.8717 27.346 18.8734 27.3441 18.8751L18.2507 10.9141C18.0684 10.7545 17.8337 10.6665 17.5961 10.7138C16.9756 10.8374 15.9363 11.1801 15.057 11.4701L15.057 11.4701C14.8504 11.5382 14.6527 11.6034 14.4713 11.6622L14.4678 11.6633C14.2488 11.7342 14.0382 11.8025 13.8403 11.8656C13.5949 11.9664 13.3263 12.022 13.0446 12.022C11.8877 12.022 10.9499 11.0842 10.9499 9.92736C10.9499 9.09845 11.4313 8.38199 12.1299 8.0424L12.1275 8.0365C13.3975 7.53304 14.821 7.13553 16.2531 6.82792C15.0778 6.64654 12.9765 6.33252 10.393 5.95774Z" fill="url(#paint10_radial_15956_30573)" fill-opacity="0.8"/>
<path fill-rule="evenodd" clip-rule="evenodd" d="M10.393 5.95774C8.4548 5.78052 7.26645 6.24757 6.8139 6.46992C3.97607 7.55994 1.96191 10.3111 1.96191 13.5326C1.96191 15.3111 2.57575 16.9461 3.60309 18.2375L5.30625 16.5083C6.21348 15.5871 7.71282 15.6331 8.56191 16.6081C9.02881 17.1442 9.19401 17.8443 9.06585 18.4959C9.88823 18.0453 10.9527 18.1454 11.6486 18.8286C12.3065 19.4746 12.4742 20.4748 12.1321 21.2891C12.7887 21.1485 13.5291 21.3883 14.0728 22.0105C14.61 22.6254 14.7811 23.6338 14.3505 24.3865C14.9887 24.2945 15.6611 24.5346 16.1351 25.0789C16.8328 25.8801 16.8933 27.3113 16.1351 28.0555L14.8338 29.4008L14.9367 29.4905C15.9123 30.341 17.381 30.2868 18.2913 29.3666C18.6464 29.0077 18.8671 28.5684 18.9556 28.1095C19.8903 28.6714 21.113 28.5394 21.906 27.7396C22.3543 27.2875 22.5852 26.705 22.6033 26.1185C23.4683 26.4443 24.4773 26.2525 25.164 25.5599C25.9193 24.7981 26.0575 23.6662 25.6 22.7686C26.2661 22.8576 26.9624 22.6446 27.4709 22.1371C28.3842 21.2255 28.3349 19.7314 27.3636 18.882L27.3499 18.87C27.348 18.8717 27.346 18.8734 27.3441 18.8751L18.2507 10.9141C18.0684 10.7545 17.8337 10.6665 17.5961 10.7138C16.9756 10.8374 15.9363 11.1801 15.057 11.4701L15.057 11.4701C14.8504 11.5382 14.6527 11.6034 14.4713 11.6622L14.4678 11.6633C14.2488 11.7342 14.0382 11.8025 13.8403 11.8656C13.5949 11.9664 13.3263 12.022 13.0446 12.022C11.8877 12.022 10.9499 11.0842 10.9499 9.92736C10.9499 9.09845 11.4313 8.38199 12.1299 8.0424L12.1275 8.0365C13.3975 7.53304 14.821 7.13553 16.2531 6.82792C15.0778 6.64654 12.9765 6.33252 10.393 5.95774Z" fill="url(#paint11_radial_15956_30573)" fill-opacity="0.8"/>
<path fill-rule="evenodd" clip-rule="evenodd" d="M10.393 5.95774C8.4548 5.78052 7.26645 6.24757 6.8139 6.46992C3.97607 7.55994 1.96191 10.3111 1.96191 13.5326C1.96191 15.3111 2.57575 16.9461 3.60309 18.2375L5.30625 16.5083C6.21348 15.5871 7.71282 15.6331 8.56191 16.6081C9.02881 17.1442 9.19401 17.8443 9.06585 18.4959C9.88823 18.0453 10.9527 18.1454 11.6486 18.8286C12.3065 19.4746 12.4742 20.4748 12.1321 21.2891C12.7887 21.1485 13.5291 21.3883 14.0728 22.0105C14.61 22.6254 14.7811 23.6338 14.3505 24.3865C14.9887 24.2945 15.6611 24.5346 16.1351 25.0789C16.8328 25.8801 16.8933 27.3113 16.1351 28.0555L14.8338 29.4008L14.9367 29.4905C15.9123 30.341 17.381 30.2868 18.2913 29.3666C18.6464 29.0077 18.8671 28.5684 18.9556 28.1095C19.8903 28.6714 21.113 28.5394 21.906 27.7396C22.3543 27.2875 22.5852 26.705 22.6033 26.1185C23.4683 26.4443 24.4773 26.2525 25.164 25.5599C25.9193 24.7981 26.0575 23.6662 25.6 22.7686C26.2661 22.8576 26.9624 22.6446 27.4709 22.1371C28.3842 21.2255 28.3349 19.7314 27.3636 18.882L27.3499 18.87C27.348 18.8717 27.346 18.8734 27.3441 18.8751L18.2507 10.9141C18.0684 10.7545 17.8337 10.6665 17.5961 10.7138C16.9756 10.8374 15.9363 11.1801 15.057 11.4701L15.057 11.4701C14.8504 11.5382 14.6527 11.6034 14.4713 11.6622L14.4678 11.6633C14.2488 11.7342 14.0382 11.8025 13.8403 11.8656C13.5949 11.9664 13.3263 12.022 13.0446 12.022C11.8877 12.022 10.9499 11.0842 10.9499 9.92736C10.9499 9.09845 11.4313 8.38199 12.1299 8.0424L12.1275 8.0365C13.3975 7.53304 14.821 7.13553 16.2531 6.82792C15.0778 6.64654 12.9765 6.33252 10.393 5.95774Z" fill="url(#paint12_radial_15956_30573)" fill-opacity="0.8"/>
<path fill-rule="evenodd" clip-rule="evenodd" d="M10.393 5.95774C8.4548 5.78052 7.26645 6.24757 6.8139 6.46992C3.97607 7.55994 1.96191 10.3111 1.96191 13.5326C1.96191 15.3111 2.57575 16.9461 3.60309 18.2375L5.30625 16.5083C6.21348 15.5871 7.71282 15.6331 8.56191 16.6081C9.02881 17.1442 9.19401 17.8443 9.06585 18.4959C9.88823 18.0453 10.9527 18.1454 11.6486 18.8286C12.3065 19.4746 12.4742 20.4748 12.1321 21.2891C12.7887 21.1485 13.5291 21.3883 14.0728 22.0105C14.61 22.6254 14.7811 23.6338 14.3505 24.3865C14.9887 24.2945 15.6611 24.5346 16.1351 25.0789C16.8328 25.8801 16.8933 27.3113 16.1351 28.0555L14.8338 29.4008L14.9367 29.4905C15.9123 30.341 17.381 30.2868 18.2913 29.3666C18.6464 29.0077 18.8671 28.5684 18.9556 28.1095C19.8903 28.6714 21.113 28.5394 21.906 27.7396C22.3543 27.2875 22.5852 26.705 22.6033 26.1185C23.4683 26.4443 24.4773 26.2525 25.164 25.5599C25.9193 24.7981 26.0575 23.6662 25.6 22.7686C26.2661 22.8576 26.9624 22.6446 27.4709 22.1371C28.3842 21.2255 28.3349 19.7314 27.3636 18.882L27.3499 18.87C27.348 18.8717 27.346 18.8734 27.3441 18.8751L18.2507 10.9141C18.0684 10.7545 17.8337 10.6665 17.5961 10.7138C16.9756 10.8374 15.9363 11.1801 15.057 11.4701L15.057 11.4701C14.8504 11.5382 14.6527 11.6034 14.4713 11.6622L14.4678 11.6633C14.2488 11.7342 14.0382 11.8025 13.8403 11.8656C13.5949 11.9664 13.3263 12.022 13.0446 12.022C11.8877 12.022 10.9499 11.0842 10.9499 9.92736C10.9499 9.09845 11.4313 8.38199 12.1299 8.0424L12.1275 8.0365C13.3975 7.53304 14.821 7.13553 16.2531 6.82792C15.0778 6.64654 12.9765 6.33252 10.393 5.95774Z" fill="url(#paint13_radial_15956_30573)" fill-opacity="0.3"/>
<path fill-rule="evenodd" clip-rule="evenodd" d="M10.393 5.95774C8.4548 5.78052 7.26645 6.24757 6.8139 6.46992C3.97607 7.55994 1.96191 10.3111 1.96191 13.5326C1.96191 15.3111 2.57575 16.9461 3.60309 18.2375L5.30625 16.5083C6.21348 15.5871 7.71282 15.6331 8.56191 16.6081C9.02881 17.1442 9.19401 17.8443 9.06585 18.4959C9.88823 18.0453 10.9527 18.1454 11.6486 18.8286C12.3065 19.4746 12.4742 20.4748 12.1321 21.2891C12.7887 21.1485 13.5291 21.3883 14.0728 22.0105C14.61 22.6254 14.7811 23.6338 14.3505 24.3865C14.9887 24.2945 15.6611 24.5346 16.1351 25.0789C16.8328 25.8801 16.8933 27.3113 16.1351 28.0555L14.8338 29.4008L14.9367 29.4905C15.9123 30.341 17.381 30.2868 18.2913 29.3666C18.6464 29.0077 18.8671 28.5684 18.9556 28.1095C19.8903 28.6714 21.113 28.5394 21.906 27.7396C22.3543 27.2875 22.5852 26.705 22.6033 26.1185C23.4683 26.4443 24.4773 26.2525 25.164 25.5599C25.9193 24.7981 26.0575 23.6662 25.6 22.7686C26.2661 22.8576 26.9624 22.6446 27.4709 22.1371C28.3842 21.2255 28.3349 19.7314 27.3636 18.882L27.3499 18.87C27.348 18.8717 27.346 18.8734 27.3441 18.8751L18.2507 10.9141C18.0684 10.7545 17.8337 10.6665 17.5961 10.7138C16.9756 10.8374 15.9363 11.1801 15.057 11.4701L15.057 11.4701C14.8504 11.5382 14.6527 11.6034 14.4713 11.6622L14.4678 11.6633C14.2488 11.7342 14.0382 11.8025 13.8403 11.8656C13.5949 11.9664 13.3263 12.022 13.0446 12.022C11.8877 12.022 10.9499 11.0842 10.9499 9.92736C10.9499 9.09845 11.4313 8.38199 12.1299 8.0424L12.1275 8.0365C13.3975 7.53304 14.821 7.13553 16.2531 6.82792C15.0778 6.64654 12.9765 6.33252 10.393 5.95774Z" fill="url(#paint14_radial_15956_30573)"/>
<path fill-rule="evenodd" clip-rule="evenodd" d="M10.393 5.95774C8.4548 5.78052 7.26645 6.24757 6.8139 6.46992C3.97607 7.55994 1.96191 10.3111 1.96191 13.5326C1.96191 15.3111 2.57575 16.9461 3.60309 18.2375L5.30625 16.5083C6.21348 15.5871 7.71282 15.6331 8.56191 16.6081C9.02881 17.1442 9.19401 17.8443 9.06585 18.4959C9.88823 18.0453 10.9527 18.1454 11.6486 18.8286C12.3065 19.4746 12.4742 20.4748 12.1321 21.2891C12.7887 21.1485 13.5291 21.3883 14.0728 22.0105C14.61 22.6254 14.7811 23.6338 14.3505 24.3865C14.9887 24.2945 15.6611 24.5346 16.1351 25.0789C16.8328 25.8801 16.8933 27.3113 16.1351 28.0555L14.8338 29.4008L14.9367 29.4905C15.9123 30.341 17.381 30.2868 18.2913 29.3666C18.6464 29.0077 18.8671 28.5684 18.9556 28.1095C19.8903 28.6714 21.113 28.5394 21.906 27.7396C22.3543 27.2875 22.5852 26.705 22.6033 26.1185C23.4683 26.4443 24.4773 26.2525 25.164 25.5599C25.9193 24.7981 26.0575 23.6662 25.6 22.7686C26.2661 22.8576 26.9624 22.6446 27.4709 22.1371C28.3842 21.2255 28.3349 19.7314 27.3636 18.882L27.3499 18.87C27.348 18.8717 27.346 18.8734 27.3441 18.8751L18.2507 10.9141C18.0684 10.7545 17.8337 10.6665 17.5961 10.7138C16.9756 10.8374 15.9363 11.1801 15.057 11.4701L15.057 11.4701C14.8504 11.5382 14.6527 11.6034 14.4713 11.6622L14.4678 11.6633C14.2488 11.7342 14.0382 11.8025 13.8403 11.8656C13.5949 11.9664 13.3263 12.022 13.0446 12.022C11.8877 12.022 10.9499 11.0842 10.9499 9.92736C10.9499 9.09845 11.4313 8.38199 12.1299 8.0424L12.1275 8.0365C13.3975 7.53304 14.821 7.13553 16.2531 6.82792C15.0778 6.64654 12.9765 6.33252 10.393 5.95774Z" fill="url(#paint15_radial_15956_30573)"/>
<path fill-rule="evenodd" clip-rule="evenodd" d="M10.393 5.95774C8.4548 5.78052 7.26645 6.24757 6.8139 6.46992C3.97607 7.55994 1.96191 10.3111 1.96191 13.5326C1.96191 15.3111 2.57575 16.9461 3.60309 18.2375L5.30625 16.5083C6.21348 15.5871 7.71282 15.6331 8.56191 16.6081C9.02881 17.1442 9.19401 17.8443 9.06585 18.4959C9.88823 18.0453 10.9527 18.1454 11.6486 18.8286C12.3065 19.4746 12.4742 20.4748 12.1321 21.2891C12.7887 21.1485 13.5291 21.3883 14.0728 22.0105C14.61 22.6254 14.7811 23.6338 14.3505 24.3865C14.9887 24.2945 15.6611 24.5346 16.1351 25.0789C16.8328 25.8801 16.8933 27.3113 16.1351 28.0555L14.8338 29.4008L14.9367 29.4905C15.9123 30.341 17.381 30.2868 18.2913 29.3666C18.6464 29.0077 18.8671 28.5684 18.9556 28.1095C19.8903 28.6714 21.113 28.5394 21.906 27.7396C22.3543 27.2875 22.5852 26.705 22.6033 26.1185C23.4683 26.4443 24.4773 26.2525 25.164 25.5599C25.9193 24.7981 26.0575 23.6662 25.6 22.7686C26.2661 22.8576 26.9624 22.6446 27.4709 22.1371C28.3842 21.2255 28.3349 19.7314 27.3636 18.882L27.3499 18.87C27.348 18.8717 27.346 18.8734 27.3441 18.8751L18.2507 10.9141C18.0684 10.7545 17.8337 10.6665 17.5961 10.7138C16.9756 10.8374 15.9363 11.1801 15.057 11.4701L15.057 11.4701C14.8504 11.5382 14.6527 11.6034 14.4713 11.6622L14.4678 11.6633C14.2488 11.7342 14.0382 11.8025 13.8403 11.8656C13.5949 11.9664 13.3263 12.022 13.0446 12.022C11.8877 12.022 10.9499 11.0842 10.9499 9.92736C10.9499 9.09845 11.4313 8.38199 12.1299 8.0424L12.1275 8.0365C13.3975 7.53304 14.821 7.13553 16.2531 6.82792C15.0778 6.64654 12.9765 6.33252 10.393 5.95774Z" fill="url(#paint16_radial_15956_30573)"/>
<path fill-rule="evenodd" clip-rule="evenodd" d="M10.393 5.95774C8.4548 5.78052 7.26645 6.24757 6.8139 6.46992C3.97607 7.55994 1.96191 10.3111 1.96191 13.5326C1.96191 15.3111 2.57575 16.9461 3.60309 18.2375L5.30625 16.5083C6.21348 15.5871 7.71282 15.6331 8.56191 16.6081C9.02881 17.1442 9.19401 17.8443 9.06585 18.4959C9.88823 18.0453 10.9527 18.1454 11.6486 18.8286C12.3065 19.4746 12.4742 20.4748 12.1321 21.2891C12.7887 21.1485 13.5291 21.3883 14.0728 22.0105C14.61 22.6254 14.7811 23.6338 14.3505 24.3865C14.9887 24.2945 15.6611 24.5346 16.1351 25.0789C16.8328 25.8801 16.8933 27.3113 16.1351 28.0555L14.8338 29.4008L14.9367 29.4905C15.9123 30.341 17.381 30.2868 18.2913 29.3666C18.6464 29.0077 18.8671 28.5684 18.9556 28.1095C19.8903 28.6714 21.113 28.5394 21.906 27.7396C22.3543 27.2875 22.5852 26.705 22.6033 26.1185C23.4683 26.4443 24.4773 26.2525 25.164 25.5599C25.9193 24.7981 26.0575 23.6662 25.6 22.7686C26.2661 22.8576 26.9624 22.6446 27.4709 22.1371C28.3842 21.2255 28.3349 19.7314 27.3636 18.882L27.3499 18.87C27.348 18.8717 27.346 18.8734 27.3441 18.8751L18.2507 10.9141C18.0684 10.7545 17.8337 10.6665 17.5961 10.7138C16.9756 10.8374 15.9363 11.1801 15.057 11.4701L15.057 11.4701C14.8504 11.5382 14.6527 11.6034 14.4713 11.6622L14.4678 11.6633C14.2488 11.7342 14.0382 11.8025 13.8403 11.8656C13.5949 11.9664 13.3263 12.022 13.0446 12.022C11.8877 12.022 10.9499 11.0842 10.9499 9.92736C10.9499 9.09845 11.4313 8.38199 12.1299 8.0424L12.1275 8.0365C13.3975 7.53304 14.821 7.13553 16.2531 6.82792C15.0778 6.64654 12.9765 6.33252 10.393 5.95774Z" fill="url(#paint17_radial_15956_30573)"/>
<path fill-rule="evenodd" clip-rule="evenodd" d="M10.393 5.95774C8.4548 5.78052 7.26645 6.24757 6.8139 6.46992C3.97607 7.55994 1.96191 10.3111 1.96191 13.5326C1.96191 15.3111 2.57575 16.9461 3.60309 18.2375L5.30625 16.5083C6.21348 15.5871 7.71282 15.6331 8.56191 16.6081C9.02881 17.1442 9.19401 17.8443 9.06585 18.4959C9.88823 18.0453 10.9527 18.1454 11.6486 18.8286C12.3065 19.4746 12.4742 20.4748 12.1321 21.2891C12.7887 21.1485 13.5291 21.3883 14.0728 22.0105C14.61 22.6254 14.7811 23.6338 14.3505 24.3865C14.9887 24.2945 15.6611 24.5346 16.1351 25.0789C16.8328 25.8801 16.8933 27.3113 16.1351 28.0555L14.8338 29.4008L14.9367 29.4905C15.9123 30.341 17.381 30.2868 18.2913 29.3666C18.6464 29.0077 18.8671 28.5684 18.9556 28.1095C19.8903 28.6714 21.113 28.5394 21.906 27.7396C22.3543 27.2875 22.5852 26.705 22.6033 26.1185C23.4683 26.4443 24.4773 26.2525 25.164 25.5599C25.9193 24.7981 26.0575 23.6662 25.6 22.7686C26.2661 22.8576 26.9624 22.6446 27.4709 22.1371C28.3842 21.2255 28.3349 19.7314 27.3636 18.882L27.3499 18.87C27.348 18.8717 27.346 18.8734 27.3441 18.8751L18.2507 10.9141C18.0684 10.7545 17.8337 10.6665 17.5961 10.7138C16.9756 10.8374 15.9363 11.1801 15.057 11.4701L15.057 11.4701C14.8504 11.5382 14.6527 11.6034 14.4713 11.6622L14.4678 11.6633C14.2488 11.7342 14.0382 11.8025 13.8403 11.8656C13.5949 11.9664 13.3263 12.022 13.0446 12.022C11.8877 12.022 10.9499 11.0842 10.9499 9.92736C10.9499 9.09845 11.4313 8.38199 12.1299 8.0424L12.1275 8.0365C13.3975 7.53304 14.821 7.13553 16.2531 6.82792C15.0778 6.64654 12.9765 6.33252 10.393 5.95774Z" fill="url(#paint18_radial_15956_30573)"/>
<path fill-rule="evenodd" clip-rule="evenodd" d="M10.393 5.95774C8.4548 5.78052 7.26645 6.24757 6.8139 6.46992C3.97607 7.55994 1.96191 10.3111 1.96191 13.5326C1.96191 15.3111 2.57575 16.9461 3.60309 18.2375L5.30625 16.5083C6.21348 15.5871 7.71282 15.6331 8.56191 16.6081C9.02881 17.1442 9.19401 17.8443 9.06585 18.4959C9.88823 18.0453 10.9527 18.1454 11.6486 18.8286C12.3065 19.4746 12.4742 20.4748 12.1321 21.2891C12.7887 21.1485 13.5291 21.3883 14.0728 22.0105C14.61 22.6254 14.7811 23.6338 14.3505 24.3865C14.9887 24.2945 15.6611 24.5346 16.1351 25.0789C16.8328 25.8801 16.8933 27.3113 16.1351 28.0555L14.8338 29.4008L14.9367 29.4905C15.9123 30.341 17.381 30.2868 18.2913 29.3666C18.6464 29.0077 18.8671 28.5684 18.9556 28.1095C19.8903 28.6714 21.113 28.5394 21.906 27.7396C22.3543 27.2875 22.5852 26.705 22.6033 26.1185C23.4683 26.4443 24.4773 26.2525 25.164 25.5599C25.9193 24.7981 26.0575 23.6662 25.6 22.7686C26.2661 22.8576 26.9624 22.6446 27.4709 22.1371C28.3842 21.2255 28.3349 19.7314 27.3636 18.882L27.3499 18.87C27.348 18.8717 27.346 18.8734 27.3441 18.8751L18.2507 10.9141C18.0684 10.7545 17.8337 10.6665 17.5961 10.7138C16.9756 10.8374 15.9363 11.1801 15.057 11.4701L15.057 11.4701C14.8504 11.5382 14.6527 11.6034 14.4713 11.6622L14.4678 11.6633C14.2488 11.7342 14.0382 11.8025 13.8403 11.8656C13.5949 11.9664 13.3263 12.022 13.0446 12.022C11.8877 12.022 10.9499 11.0842 10.9499 9.92736C10.9499 9.09845 11.4313 8.38199 12.1299 8.0424L12.1275 8.0365C13.3975 7.53304 14.821 7.13553 16.2531 6.82792C15.0778 6.64654 12.9765 6.33252 10.393 5.95774Z" fill="url(#paint19_radial_15956_30573)"/>
<path fill-rule="evenodd" clip-rule="evenodd" d="M10.393 5.95774C8.4548 5.78052 7.26645 6.24757 6.8139 6.46992C3.97607 7.55994 1.96191 10.3111 1.96191 13.5326C1.96191 15.3111 2.57575 16.9461 3.60309 18.2375L5.30625 16.5083C6.21348 15.5871 7.71282 15.6331 8.56191 16.6081C9.02881 17.1442 9.19401 17.8443 9.06585 18.4959C9.88823 18.0453 10.9527 18.1454 11.6486 18.8286C12.3065 19.4746 12.4742 20.4748 12.1321 21.2891C12.7887 21.1485 13.5291 21.3883 14.0728 22.0105C14.61 22.6254 14.7811 23.6338 14.3505 24.3865C14.9887 24.2945 15.6611 24.5346 16.1351 25.0789C16.8328 25.8801 16.8933 27.3113 16.1351 28.0555L14.8338 29.4008L14.9367 29.4905C15.9123 30.341 17.381 30.2868 18.2913 29.3666C18.6464 29.0077 18.8671 28.5684 18.9556 28.1095C19.8903 28.6714 21.113 28.5394 21.906 27.7396C22.3543 27.2875 22.5852 26.705 22.6033 26.1185C23.4683 26.4443 24.4773 26.2525 25.164 25.5599C25.9193 24.7981 26.0575 23.6662 25.6 22.7686C26.2661 22.8576 26.9624 22.6446 27.4709 22.1371C28.3842 21.2255 28.3349 19.7314 27.3636 18.882L27.3499 18.87C27.348 18.8717 27.346 18.8734 27.3441 18.8751L18.2507 10.9141C18.0684 10.7545 17.8337 10.6665 17.5961 10.7138C16.9756 10.8374 15.9363 11.1801 15.057 11.4701L15.057 11.4701C14.8504 11.5382 14.6527 11.6034 14.4713 11.6622L14.4678 11.6633C14.2488 11.7342 14.0382 11.8025 13.8403 11.8656C13.5949 11.9664 13.3263 12.022 13.0446 12.022C11.8877 12.022 10.9499 11.0842 10.9499 9.92736C10.9499 9.09845 11.4313 8.38199 12.1299 8.0424L12.1275 8.0365C13.3975 7.53304 14.821 7.13553 16.2531 6.82792C15.0778 6.64654 12.9765 6.33252 10.393 5.95774Z" fill="url(#paint20_radial_15956_30573)"/>
<path d="M3.40671 21.2587C2.68443 20.3901 2.73809 19.1154 3.53081 18.3105L5.30625 16.5079C6.21348 15.5868 7.71282 15.6327 8.56191 16.6077C9.3334 17.4936 9.28117 18.8271 8.44277 19.65L6.64156 21.5155C5.7241 22.4159 4.22859 22.2472 3.40671 21.2587Z" fill="url(#paint21_linear_15956_30573)"/>
<path d="M3.40671 21.2587C2.68443 20.3901 2.73809 19.1154 3.53081 18.3105L5.30625 16.5079C6.21348 15.5868 7.71282 15.6327 8.56191 16.6077C9.3334 17.4936 9.28117 18.8271 8.44277 19.65L6.64156 21.5155C5.7241 22.4159 4.22859 22.2472 3.40671 21.2587Z" fill="url(#paint22_linear_15956_30573)"/>
<path d="M3.40671 21.2587C2.68443 20.3901 2.73809 19.1154 3.53081 18.3105L5.30625 16.5079C6.21348 15.5868 7.71282 15.6327 8.56191 16.6077C9.3334 17.4936 9.28117 18.8271 8.44277 19.65L6.64156 21.5155C5.7241 22.4159 4.22859 22.2472 3.40671 21.2587Z" fill="url(#paint23_radial_15956_30573)"/>
<path d="M3.40671 21.2587C2.68443 20.3901 2.73809 19.1154 3.53081 18.3105L5.30625 16.5079C6.21348 15.5868 7.71282 15.6327 8.56191 16.6077C9.3334 17.4936 9.28117 18.8271 8.44277 19.65L6.64156 21.5155C5.7241 22.4159 4.22859 22.2472 3.40671 21.2587Z" fill="url(#paint24_radial_15956_30573)"/>
<path d="M3.40671 21.2587C2.68443 20.3901 2.73809 19.1154 3.53081 18.3105L5.30625 16.5079C6.21348 15.5868 7.71282 15.6327 8.56191 16.6077C9.3334 17.4936 9.28117 18.8271 8.44277 19.65L6.64156 21.5155C5.7241 22.4159 4.22859 22.2472 3.40671 21.2587Z" fill="url(#paint25_linear_15956_30573)"/>
<path d="M6.00493 24.5295C5.16909 23.6966 5.16114 22.3456 5.9871 21.5029L8.55496 18.883C9.39108 18.0299 10.7964 17.9919 11.6487 18.8288C12.504 19.6686 12.5307 21.1072 11.6859 21.9576L9.10098 24.6262C8.26355 25.4692 6.8466 25.3683 6.00493 24.5295Z" fill="url(#paint26_linear_15956_30573)"/>
<path d="M6.00493 24.5295C5.16909 23.6966 5.16114 22.3456 5.9871 21.5029L8.55496 18.883C9.39108 18.0299 10.7964 17.9919 11.6487 18.8288C12.504 19.6686 12.5307 21.1072 11.6859 21.9576L9.10098 24.6262C8.26355 25.4692 6.8466 25.3683 6.00493 24.5295Z" fill="url(#paint27_linear_15956_30573)"/>
<path d="M6.00493 24.5295C5.16909 23.6966 5.16114 22.3456 5.9871 21.5029L8.55496 18.883C9.39108 18.0299 10.7964 17.9919 11.6487 18.8288C12.504 19.6686 12.5307 21.1072 11.6859 21.9576L9.10098 24.6262C8.26355 25.4692 6.8466 25.3683 6.00493 24.5295Z" fill="url(#paint28_radial_15956_30573)"/>
<path d="M6.00493 24.5295C5.16909 23.6966 5.16114 22.3456 5.9871 21.5029L8.55496 18.883C9.39108 18.0299 10.7964 17.9919 11.6487 18.8288C12.504 19.6686 12.5307 21.1072 11.6859 21.9576L9.10098 24.6262C8.26355 25.4692 6.8466 25.3683 6.00493 24.5295Z" fill="url(#paint29_radial_15956_30573)"/>
<path d="M6.00493 24.5295C5.16909 23.6966 5.16114 22.3456 5.9871 21.5029L8.55496 18.883C9.39108 18.0299 10.7964 17.9919 11.6487 18.8288C12.504 19.6686 12.5307 21.1072 11.6859 21.9576L9.10098 24.6262C8.26355 25.4692 6.8466 25.3683 6.00493 24.5295Z" fill="url(#paint30_linear_15956_30573)"/>
<path d="M11.5405 29.2434C10.8872 28.4578 10.8235 27.2051 11.5404 26.4772L13.2584 24.9468C14.0788 24.1137 15.3671 24.197 16.135 25.0788C16.8328 25.8799 16.8933 27.3112 16.135 28.0553L14.6467 29.5941C13.7288 30.36 12.2837 30.1373 11.5405 29.2434Z" fill="url(#paint31_linear_15956_30573)"/>
<path d="M11.5405 29.2434C10.8872 28.4578 10.8235 27.2051 11.5404 26.4772L13.2584 24.9468C14.0788 24.1137 15.3671 24.197 16.135 25.0788C16.8328 25.8799 16.8933 27.3112 16.135 28.0553L14.6467 29.5941C13.7288 30.36 12.2837 30.1373 11.5405 29.2434Z" fill="url(#paint32_linear_15956_30573)"/>
<path d="M11.5405 29.2434C10.8872 28.4578 10.8235 27.2051 11.5404 26.4772L13.2584 24.9468C14.0788 24.1137 15.3671 24.197 16.135 25.0788C16.8328 25.8799 16.8933 27.3112 16.135 28.0553L14.6467 29.5941C13.7288 30.36 12.2837 30.1373 11.5405 29.2434Z" fill="url(#paint33_radial_15956_30573)"/>
<path d="M11.5405 29.2434C10.8872 28.4578 10.8235 27.2051 11.5404 26.4772L13.2584 24.9468C14.0788 24.1137 15.3671 24.197 16.135 25.0788C16.8328 25.8799 16.8933 27.3112 16.135 28.0553L14.6467 29.5941C13.7288 30.36 12.2837 30.1373 11.5405 29.2434Z" fill="url(#paint34_radial_15956_30573)"/>
<path d="M11.5405 29.2434C10.8872 28.4578 10.8235 27.2051 11.5404 26.4772L13.2584 24.9468C14.0788 24.1137 15.3671 24.197 16.135 25.0788C16.8328 25.8799 16.8933 27.3112 16.135 28.0553L14.6467 29.5941C13.7288 30.36 12.2837 30.1373 11.5405 29.2434Z" fill="url(#paint35_linear_15956_30573)"/>
<path d="M9.02385 27.0593C8.26742 26.3029 7.954 25.1221 8.71043 24.3657L11.2674 21.7621C12.0239 21.0057 13.2652 21.0862 14.0728 22.0104C14.7027 22.7313 14.8292 23.9932 14.0728 24.7497L11.7631 27.0593C11.1512 27.7642 9.78027 27.8158 9.02385 27.0593Z" fill="url(#paint36_linear_15956_30573)"/>
<path d="M9.02385 27.0593C8.26742 26.3029 7.954 25.1221 8.71043 24.3657L11.2674 21.7621C12.0239 21.0057 13.2652 21.0862 14.0728 22.0104C14.7027 22.7313 14.8292 23.9932 14.0728 24.7497L11.7631 27.0593C11.1512 27.7642 9.78027 27.8158 9.02385 27.0593Z" fill="url(#paint37_linear_15956_30573)"/>
<path d="M9.02385 27.0593C8.26742 26.3029 7.954 25.1221 8.71043 24.3657L11.2674 21.7621C12.0239 21.0057 13.2652 21.0862 14.0728 22.0104C14.7027 22.7313 14.8292 23.9932 14.0728 24.7497L11.7631 27.0593C11.1512 27.7642 9.78027 27.8158 9.02385 27.0593Z" fill="url(#paint38_radial_15956_30573)"/>
<path d="M9.02385 27.0593C8.26742 26.3029 7.954 25.1221 8.71043 24.3657L11.2674 21.7621C12.0239 21.0057 13.2652 21.0862 14.0728 22.0104C14.7027 22.7313 14.8292 23.9932 14.0728 24.7497L11.7631 27.0593C11.1512 27.7642 9.78027 27.8158 9.02385 27.0593Z" fill="url(#paint39_radial_15956_30573)"/>
<path d="M9.02385 27.0593C8.26742 26.3029 7.954 25.1221 8.71043 24.3657L11.2674 21.7621C12.0239 21.0057 13.2652 21.0862 14.0728 22.0104C14.7027 22.7313 14.8292 23.9932 14.0728 24.7497L11.7631 27.0593C11.1512 27.7642 9.78027 27.8158 9.02385 27.0593Z" fill="url(#paint40_linear_15956_30573)"/>
<path d="M12.1275 8.03638L12.1299 8.04228C11.4314 8.38187 10.95 9.09833 10.95 9.92723C10.95 11.0841 11.8878 12.0219 13.0446 12.0219C13.3263 12.0219 13.595 11.9663 13.8403 11.8655C14.0383 11.8023 14.2489 11.7341 14.4679 11.6632L14.4713 11.662C15.4251 11.353 16.8299 10.8662 17.5962 10.7137C17.8338 10.6664 18.0684 10.7543 18.2507 10.914L27.3442 18.875C28.99 17.4291 30.0893 15.4597 30.0893 13.1768C30.0893 9.19347 26.935 5.96436 22.8202 5.96436C19.9986 6.10386 15.5167 6.69288 12.1275 8.03638Z" fill="#FBB439"/>
<path d="M12.1275 8.03638L12.1299 8.04228C11.4314 8.38187 10.95 9.09833 10.95 9.92723C10.95 11.0841 11.8878 12.0219 13.0446 12.0219C13.3263 12.0219 13.595 11.9663 13.8403 11.8655C14.0383 11.8023 14.2489 11.7341 14.4679 11.6632L14.4713 11.662C15.4251 11.353 16.8299 10.8662 17.5962 10.7137C17.8338 10.6664 18.0684 10.7543 18.2507 10.914L27.3442 18.875C28.99 17.4291 30.0893 15.4597 30.0893 13.1768C30.0893 9.19347 26.935 5.96436 22.8202 5.96436C19.9986 6.10386 15.5167 6.69288 12.1275 8.03638Z" fill="url(#paint41_radial_15956_30573)"/>
<path d="M12.1275 8.03638L12.1299 8.04228C11.4314 8.38187 10.95 9.09833 10.95 9.92723C10.95 11.0841 11.8878 12.0219 13.0446 12.0219C13.3263 12.0219 13.595 11.9663 13.8403 11.8655C14.0383 11.8023 14.2489 11.7341 14.4679 11.6632L14.4713 11.662C15.4251 11.353 16.8299 10.8662 17.5962 10.7137C17.8338 10.6664 18.0684 10.7543 18.2507 10.914L27.3442 18.875C28.99 17.4291 30.0893 15.4597 30.0893 13.1768C30.0893 9.19347 26.935 5.96436 22.8202 5.96436C19.9986 6.10386 15.5167 6.69288 12.1275 8.03638Z" fill="url(#paint42_radial_15956_30573)"/>
<path d="M12.1275 8.03638L12.1299 8.04228C11.4314 8.38187 10.95 9.09833 10.95 9.92723C10.95 11.0841 11.8878 12.0219 13.0446 12.0219C13.3263 12.0219 13.595 11.9663 13.8403 11.8655C14.0383 11.8023 14.2489 11.7341 14.4679 11.6632L14.4713 11.662C15.4251 11.353 16.8299 10.8662 17.5962 10.7137C17.8338 10.6664 18.0684 10.7543 18.2507 10.914L27.3442 18.875C28.99 17.4291 30.0893 15.4597 30.0893 13.1768C30.0893 9.19347 26.935 5.96436 22.8202 5.96436C19.9986 6.10386 15.5167 6.69288 12.1275 8.03638Z" fill="url(#paint43_radial_15956_30573)"/>
<path d="M12.1275 8.03638L12.1299 8.04228C11.4314 8.38187 10.95 9.09833 10.95 9.92723C10.95 11.0841 11.8878 12.0219 13.0446 12.0219C13.3263 12.0219 13.595 11.9663 13.8403 11.8655C14.0383 11.8023 14.2489 11.7341 14.4679 11.6632L14.4713 11.662C15.4251 11.353 16.8299 10.8662 17.5962 10.7137C17.8338 10.6664 18.0684 10.7543 18.2507 10.914L27.3442 18.875C28.99 17.4291 30.0893 15.4597 30.0893 13.1768C30.0893 9.19347 26.935 5.96436 22.8202 5.96436C19.9986 6.10386 15.5167 6.69288 12.1275 8.03638Z" fill="url(#paint44_radial_15956_30573)"/>
<path d="M12.1275 8.03638L12.1299 8.04228C11.4314 8.38187 10.95 9.09833 10.95 9.92723C10.95 11.0841 11.8878 12.0219 13.0446 12.0219C13.3263 12.0219 13.595 11.9663 13.8403 11.8655C14.0383 11.8023 14.2489 11.7341 14.4679 11.6632L14.4713 11.662C15.4251 11.353 16.8299 10.8662 17.5962 10.7137C17.8338 10.6664 18.0684 10.7543 18.2507 10.914L27.3442 18.875C28.99 17.4291 30.0893 15.4597 30.0893 13.1768C30.0893 9.19347 26.935 5.96436 22.8202 5.96436C19.9986 6.10386 15.5167 6.69288 12.1275 8.03638Z" fill="url(#paint45_radial_15956_30573)"/>
<path d="M12.1275 8.03638L12.1299 8.04228C11.4314 8.38187 10.95 9.09833 10.95 9.92723C10.95 11.0841 11.8878 12.0219 13.0446 12.0219C13.3263 12.0219 13.595 11.9663 13.8403 11.8655C14.0383 11.8023 14.2489 11.7341 14.4679 11.6632L14.4713 11.662C15.4251 11.353 16.8299 10.8662 17.5962 10.7137C17.8338 10.6664 18.0684 10.7543 18.2507 10.914L27.3442 18.875C28.99 17.4291 30.0893 15.4597 30.0893 13.1768C30.0893 9.19347 26.935 5.96436 22.8202 5.96436C19.9986 6.10386 15.5167 6.69288 12.1275 8.03638Z" fill="url(#paint46_radial_15956_30573)"/>
<path d="M12.1275 8.03638L12.1299 8.04228C11.4314 8.38187 10.95 9.09833 10.95 9.92723C10.95 11.0841 11.8878 12.0219 13.0446 12.0219C13.3263 12.0219 13.595 11.9663 13.8403 11.8655C14.0383 11.8023 14.2489 11.7341 14.4679 11.6632L14.4713 11.662C15.4251 11.353 16.8299 10.8662 17.5962 10.7137C17.8338 10.6664 18.0684 10.7543 18.2507 10.914L27.3442 18.875C28.99 17.4291 30.0893 15.4597 30.0893 13.1768C30.0893 9.19347 26.935 5.96436 22.8202 5.96436C19.9986 6.10386 15.5167 6.69288 12.1275 8.03638Z" fill="url(#paint47_radial_15956_30573)"/>
<path d="M12.1275 8.03638L12.1299 8.04228C11.4314 8.38187 10.95 9.09833 10.95 9.92723C10.95 11.0841 11.8878 12.0219 13.0446 12.0219C13.3263 12.0219 13.595 11.9663 13.8403 11.8655C14.0383 11.8023 14.2489 11.7341 14.4679 11.6632L14.4713 11.662C15.4251 11.353 16.8299 10.8662 17.5962 10.7137C17.8338 10.6664 18.0684 10.7543 18.2507 10.914L27.3442 18.875C28.99 17.4291 30.0893 15.4597 30.0893 13.1768C30.0893 9.19347 26.935 5.96436 22.8202 5.96436C19.9986 6.10386 15.5167 6.69288 12.1275 8.03638Z" fill="url(#paint48_radial_15956_30573)"/>
<path d="M12.1275 8.03638L12.1299 8.04228C11.4314 8.38187 10.95 9.09833 10.95 9.92723C10.95 11.0841 11.8878 12.0219 13.0446 12.0219C13.3263 12.0219 13.595 11.9663 13.8403 11.8655C14.0383 11.8023 14.2489 11.7341 14.4679 11.6632L14.4713 11.662C15.4251 11.353 16.8299 10.8662 17.5962 10.7137C17.8338 10.6664 18.0684 10.7543 18.2507 10.914L27.3442 18.875C28.99 17.4291 30.0893 15.4597 30.0893 13.1768C30.0893 9.19347 26.935 5.96436 22.8202 5.96436C19.9986 6.10386 15.5167 6.69288 12.1275 8.03638Z" fill="url(#paint49_radial_15956_30573)"/>
</g>
</g>
<defs>
<linearGradient id="paint0_linear_15956_30573" x1="22.5883" y1="14.032" x2="15.9008" y2="23.8445" gradientUnits="userSpaceOnUse">
<stop stop-color="#FFD741"/>
<stop offset="1" stop-color="#FFBE37"/>
</linearGradient>
<radialGradient id="paint1_radial_15956_30573" cx="0" cy="0" r="1" gradientUnits="userSpaceOnUse" gradientTransform="translate(19.9633 10.4695) rotate(122.645) scale(4.75041 6.60552)">
<stop stop-color="#FFDC38"/>
<stop offset="1" stop-color="#FFDC38" stop-opacity="0"/>
</radialGradient>
<radialGradient id="paint2_radial_15956_30573" cx="0" cy="0" r="1" gradientUnits="userSpaceOnUse" gradientTransform="translate(12 10.5001) rotate(-23.9625) scale(4.92443 4.76523)">
<stop offset="0.21875" stop-color="#D77A15"/>
<stop offset="1" stop-color="#FFD83D" stop-opacity="0"/>
</radialGradient>
<radialGradient id="paint3_radial_15956_30573" cx="0" cy="0" r="1" gradientUnits="userSpaceOnUse" gradientTransform="translate(17.5 9.00012) rotate(-25.2011) scale(9.39415 2.75915)">
<stop offset="0.21875" stop-color="#D77A15"/>
<stop offset="1" stop-color="#FFD83D" stop-opacity="0"/>
</radialGradient>
<radialGradient id="paint4_radial_15956_30573" cx="0" cy="0" r="1" gradientUnits="userSpaceOnUse" gradientTransform="translate(27.5 27.5818) rotate(60.9454) scale(5.14781 7.29053)">
<stop stop-color="#F48E5A"/>
<stop offset="1" stop-color="#F48E5A" stop-opacity="0"/>
</radialGradient>
<radialGradient id="paint5_radial_15956_30573" cx="0" cy="0" r="1" gradientUnits="userSpaceOnUse" gradientTransform="translate(24 31.5818) rotate(63.435) scale(6.7082 3.16622)">
<stop stop-color="#F48E5A"/>
<stop offset="1" stop-color="#F48E5A" stop-opacity="0"/>
</radialGradient>
<radialGradient id="paint6_radial_15956_30573" cx="0" cy="0" r="1" gradientUnits="userSpaceOnUse" gradientTransform="translate(24.4633 27.1136) rotate(-134.193) scale(6.2762 1.71453)">
<stop stop-color="#F48E5A"/>
<stop offset="1" stop-color="#F48E5A" stop-opacity="0"/>
</radialGradient>
<radialGradient id="paint7_radial_15956_30573" cx="0" cy="0" r="1" gradientUnits="userSpaceOnUse" gradientTransform="translate(20.0883 28.9574) rotate(-133.968) scale(4.90635 1.55572)">
<stop stop-color="#F48E5A"/>
<stop offset="1" stop-color="#F48E5A" stop-opacity="0"/>
</radialGradient>
<radialGradient id="paint8_radial_15956_30573" cx="0" cy="0" r="1" gradientUnits="userSpaceOnUse" gradientTransform="translate(16.682 30.9261) rotate(-139.295) scale(5.60631 1.64332)">
<stop stop-color="#F48E5A"/>
<stop offset="1" stop-color="#F48E5A" stop-opacity="0"/>
</radialGradient>
<radialGradient id="paint9_radial_15956_30573" cx="0" cy="0" r="1" gradientUnits="userSpaceOnUse" gradientTransform="translate(2 16.0001) rotate(-21.4477) scale(15.0416 25.4128)">
<stop stop-color="#D77A15"/>
<stop offset="0.688636" stop-color="#FFD83D" stop-opacity="0"/>
</radialGradient>
<radialGradient id="paint10_radial_15956_30573" cx="0" cy="0" r="1" gradientUnits="userSpaceOnUse" gradientTransform="translate(24.5 18.0818) rotate(-135) scale(8.48528 2.66683)">
<stop offset="0.0630782" stop-color="#FFE746"/>
<stop offset="0.882148" stop-color="#FFE746" stop-opacity="0"/>
</radialGradient>
<radialGradient id="paint11_radial_15956_30573" cx="0" cy="0" r="1" gradientUnits="userSpaceOnUse" gradientTransform="translate(22 21.5818) rotate(-135) scale(5.65685 1.7129)">
<stop offset="0.0630782" stop-color="#FFE746"/>
<stop offset="0.882148" stop-color="#FFE746" stop-opacity="0"/>
</radialGradient>
<radialGradient id="paint12_radial_15956_30573" cx="0" cy="0" r="1" gradientUnits="userSpaceOnUse" gradientTransform="translate(20 25.0818) rotate(-135) scale(4.94975 1.59321)">
<stop stop-color="#FFE746"/>
<stop offset="0.882148" stop-color="#FFE746" stop-opacity="0"/>
</radialGradient>
<radialGradient id="paint13_radial_15956_30573" cx="0" cy="0" r="1" gradientUnits="userSpaceOnUse" gradientTransform="translate(17 27.5818) rotate(-127.875) scale(5.70088 1.82754)">
<stop stop-color="#FFE746"/>
<stop offset="0.882148" stop-color="#FFE746" stop-opacity="0"/>
</radialGradient>
<radialGradient id="paint14_radial_15956_30573" cx="0" cy="0" r="1" gradientUnits="userSpaceOnUse" gradientTransform="translate(27.057 23.0511) rotate(-138.778) scale(4.69479 1.28252)">
<stop stop-color="#F48E5A"/>
<stop offset="1" stop-color="#F48E5A" stop-opacity="0"/>
</radialGradient>
<radialGradient id="paint15_radial_15956_30573" cx="0" cy="0" r="1" gradientUnits="userSpaceOnUse" gradientTransform="translate(30 24.0818) rotate(66.0375) scale(4.92443)">
<stop stop-color="#F48E5A"/>
<stop offset="1" stop-color="#F48E5A" stop-opacity="0"/>
</radialGradient>
<radialGradient id="paint16_radial_15956_30573" cx="0" cy="0" r="1" gradientUnits="userSpaceOnUse" gradientTransform="translate(30 24.0818) rotate(66.0375) scale(4.92443)">
<stop stop-color="#F48E5A"/>
<stop offset="1" stop-color="#F48E5A" stop-opacity="0"/>
</radialGradient>
<radialGradient id="paint17_radial_15956_30573" cx="0" cy="0" r="1" gradientUnits="userSpaceOnUse" gradientTransform="translate(15.0435 26.7725) rotate(47.1764) scale(6.08583)">
<stop offset="0.107699" stop-color="#CA6D03"/>
<stop offset="0.448933" stop-color="#CA6D03" stop-opacity="0.28"/>
<stop offset="0.663014" stop-color="#FDBF3F" stop-opacity="0"/>
</radialGradient>
<radialGradient id="paint18_radial_15956_30573" cx="0" cy="0" r="1" gradientUnits="userSpaceOnUse" gradientTransform="translate(12.8212 24.1837) rotate(40.4712) scale(6.22806)">
<stop offset="0.138062" stop-color="#CA6D03"/>
<stop offset="0.448933" stop-color="#CA6D03" stop-opacity="0.28"/>
<stop offset="0.663014" stop-color="#FDBF3F" stop-opacity="0"/>
</radialGradient>
<radialGradient id="paint19_radial_15956_30573" cx="0" cy="0" r="1" gradientUnits="userSpaceOnUse" gradientTransform="translate(10.4794 20.9493) rotate(46.1017) scale(5.89453)">
<stop offset="0.139139" stop-color="#CA6D03"/>
<stop offset="0.448933" stop-color="#CA6D03" stop-opacity="0.28"/>
<stop offset="0.663014" stop-color="#FDBF3F" stop-opacity="0"/>
</radialGradient>
<radialGradient id="paint20_radial_15956_30573" cx="0" cy="0" r="1" gradientUnits="userSpaceOnUse" gradientTransform="translate(7.75467 18.7053) rotate(51.4761) scale(5.27543)">
<stop offset="0.18617" stop-color="#CA6D03"/>
<stop offset="0.379135" stop-color="#CA6D03" stop-opacity="0.28"/>
<stop offset="0.663014" stop-color="#FDBF3F" stop-opacity="0"/>
</radialGradient>
<linearGradient id="paint21_linear_15956_30573" x1="7.68195" y1="17.1567" x2="3.3382" y2="21.3442" gradientUnits="userSpaceOnUse">
<stop stop-color="#FFBC41"/>
<stop offset="1" stop-color="#E69429"/>
</linearGradient>
<linearGradient id="paint22_linear_15956_30573" x1="7.29132" y1="21.1723" x2="6.32257" y2="20.1411" gradientUnits="userSpaceOnUse">
<stop stop-color="#E08407"/>
<stop offset="1" stop-color="#E08407" stop-opacity="0"/>
</linearGradient>
<radialGradient id="paint23_radial_15956_30573" cx="0" cy="0" r="1" gradientUnits="userSpaceOnUse" gradientTransform="translate(5.2757 22.813) rotate(-88.8767) scale(3.18811 2.88295)">
<stop stop-color="#DA725B"/>
<stop offset="1" stop-color="#DA725B" stop-opacity="0"/>
</radialGradient>
<radialGradient id="paint24_radial_15956_30573" cx="0" cy="0" r="1" gradientUnits="userSpaceOnUse" gradientTransform="translate(8.51007 16.438) rotate(136.229) scale(2.5749 2.49023)">
<stop stop-color="#FFE43E"/>
<stop offset="1" stop-color="#FFE43E" stop-opacity="0"/>
</radialGradient>
<linearGradient id="paint25_linear_15956_30573" x1="9.10776" y1="22.9939" x2="4.59761" y2="17.6716" gradientUnits="userSpaceOnUse">
<stop offset="0.415573" stop-color="#CA6D03"/>
<stop offset="0.535716" stop-color="#CA6D03" stop-opacity="0.28"/>
<stop offset="0.663014" stop-color="#FDBF3F" stop-opacity="0"/>
</linearGradient>
<linearGradient id="paint26_linear_15956_30573" x1="10.7132" y1="19.6857" x2="5.86261" y2="24.3609" gradientUnits="userSpaceOnUse">
<stop stop-color="#FFBC41"/>
<stop offset="1" stop-color="#E69429"/>
</linearGradient>
<linearGradient id="paint27_linear_15956_30573" x1="10.2771" y1="24.1699" x2="9.19526" y2="23.0185" gradientUnits="userSpaceOnUse">
<stop stop-color="#E08407"/>
<stop offset="1" stop-color="#E08407" stop-opacity="0"/>
</linearGradient>
<radialGradient id="paint28_radial_15956_30573" cx="0" cy="0" r="1" gradientUnits="userSpaceOnUse" gradientTransform="translate(7.55701 25.8446) rotate(-83.0945) scale(4.15863 4.91442)">
<stop stop-color="#E8766E"/>
<stop offset="1" stop-color="#E8766E" stop-opacity="0"/>
</radialGradient>
<radialGradient id="paint29_radial_15956_30573" cx="0" cy="0" r="1" gradientUnits="userSpaceOnUse" gradientTransform="translate(11.307 19.1884) rotate(136.026) scale(2.425 2.34528)">
<stop stop-color="#FFE43E"/>
<stop offset="1" stop-color="#FFE43E" stop-opacity="0"/>
</radialGradient>
<linearGradient id="paint30_linear_15956_30573" x1="11.6023" y1="25.2107" x2="7.26866" y2="20.2614" gradientUnits="userSpaceOnUse">
<stop offset="0.39276" stop-color="#CA6D03"/>
<stop offset="0.535716" stop-color="#CA6D03" stop-opacity="0.28"/>
<stop offset="0.663014" stop-color="#FDBF3F" stop-opacity="0"/>
</linearGradient>
<linearGradient id="paint31_linear_15956_30573" x1="15.3827" y1="25.5596" x2="11.4318" y2="29.3735" gradientUnits="userSpaceOnUse">
<stop stop-color="#FFBC41"/>
<stop offset="1" stop-color="#E69429"/>
</linearGradient>
<linearGradient id="paint32_linear_15956_30573" x1="12.0569" y1="26.1256" x2="13.4619" y2="27.0338" gradientUnits="userSpaceOnUse">
<stop offset="0.155618" stop-color="#E08407"/>
<stop offset="1" stop-color="#E08407" stop-opacity="0"/>
</linearGradient>
<radialGradient id="paint33_radial_15956_30573" cx="0" cy="0" r="1" gradientUnits="userSpaceOnUse" gradientTransform="translate(12.7756 30.8444) rotate(-84.1036) scale(3.65034 4.32025)">
<stop stop-color="#E8766E"/>
<stop offset="1" stop-color="#E8766E" stop-opacity="0"/>
</radialGradient>
<radialGradient id="paint34_radial_15956_30573" cx="0" cy="0" r="1" gradientUnits="userSpaceOnUse" gradientTransform="translate(15.8671 25.1546) rotate(136.071) scale(1.97669 1.91159)">
<stop stop-color="#FFE43E"/>
<stop offset="1" stop-color="#FFE43E" stop-opacity="0"/>
</radialGradient>
<linearGradient id="paint35_linear_15956_30573" x1="11.0264" y1="25.3824" x2="13.6606" y2="28.0238" gradientUnits="userSpaceOnUse">
<stop offset="0.362477" stop-color="#CA6D03"/>
<stop offset="0.535716" stop-color="#CA6D03" stop-opacity="0.28"/>
<stop offset="0.663014" stop-color="#FDBF3F" stop-opacity="0"/>
</linearGradient>
<linearGradient id="paint36_linear_15956_30573" x1="13.143" y1="22.5817" x2="8.73042" y2="26.8427" gradientUnits="userSpaceOnUse">
<stop stop-color="#FFBC41"/>
<stop offset="1" stop-color="#E69429"/>
</linearGradient>
<linearGradient id="paint37_linear_15956_30573" x1="13.0257" y1="26.9069" x2="12.1055" y2="25.921" gradientUnits="userSpaceOnUse">
<stop stop-color="#E08407"/>
<stop offset="1" stop-color="#E08407" stop-opacity="0"/>
</linearGradient>
<radialGradient id="paint38_radial_15956_30573" cx="0" cy="0" r="1" gradientUnits="userSpaceOnUse" gradientTransform="translate(10.2667 28.1842) rotate(-83.0818) scale(3.78297 4.47857)">
<stop stop-color="#E8766E"/>
<stop offset="1" stop-color="#E8766E" stop-opacity="0"/>
</radialGradient>
<radialGradient id="paint39_radial_15956_30573" cx="0" cy="0" r="1" gradientUnits="userSpaceOnUse" gradientTransform="translate(13.6842 22.1294) rotate(136.08) scale(2.20801 2.13528)">
<stop stop-color="#FFE43E"/>
<stop offset="1" stop-color="#FFE43E" stop-opacity="0"/>
</radialGradient>
<linearGradient id="paint40_linear_15956_30573" x1="14.2192" y1="28.8805" x2="10.0144" y2="23.0977" gradientUnits="userSpaceOnUse">
<stop offset="0.408711" stop-color="#CA6D03"/>
<stop offset="0.535716" stop-color="#CA6D03" stop-opacity="0.28"/>
<stop offset="0.663014" stop-color="#FDBF3F" stop-opacity="0"/>
</linearGradient>
<radialGradient id="paint41_radial_15956_30573" cx="0" cy="0" r="1" gradientUnits="userSpaceOnUse" gradientTransform="translate(19.1777 17.0944) rotate(-33.6901) scale(12.1285 19.0621)">
<stop offset="0.360862" stop-color="#FFE949" stop-opacity="0"/>
<stop offset="1" stop-color="#FFE949"/>
</radialGradient>
<radialGradient id="paint42_radial_15956_30573" cx="0" cy="0" r="1" gradientUnits="userSpaceOnUse" gradientTransform="translate(10.95 10.7346) rotate(-21.4027) scale(4.32093 6.93849)">
<stop stop-color="#EE9226"/>
<stop offset="1" stop-color="#EE9226" stop-opacity="0"/>
</radialGradient>
<radialGradient id="paint43_radial_15956_30573" cx="0" cy="0" r="1" gradientUnits="userSpaceOnUse" gradientTransform="translate(18.7047 17.3046) rotate(-38.5505) scale(8.6025 8.20943)">
<stop stop-color="#F7A91E"/>
<stop offset="1" stop-color="#F7A91E" stop-opacity="0"/>
</radialGradient>
<radialGradient id="paint44_radial_15956_30573" cx="0" cy="0" r="1" gradientUnits="userSpaceOnUse" gradientTransform="translate(20.2289 15.5176) rotate(-35.9316) scale(11.5542 18.0776)">
<stop offset="0.660528" stop-color="#FFEA49" stop-opacity="0"/>
<stop offset="1" stop-color="#FFEA49"/>
</radialGradient>
<radialGradient id="paint45_radial_15956_30573" cx="0" cy="0" r="1" gradientUnits="userSpaceOnUse" gradientTransform="translate(14.0002 9.5) rotate(-15.9454) scale(14.5602 1.84773)">
<stop offset="0.0657336" stop-color="#FFE746"/>
<stop offset="0.882148" stop-color="#FFE746" stop-opacity="0"/>
</radialGradient>
<radialGradient id="paint46_radial_15956_30573" cx="0" cy="0" r="1" gradientUnits="userSpaceOnUse" gradientTransform="translate(22.0002 7.5) rotate(74.0546) scale(7.28011 19.6652)">
<stop stop-color="#FDC73F"/>
<stop offset="0.195165" stop-color="#FDC73F" stop-opacity="0"/>
</radialGradient>
<radialGradient id="paint47_radial_15956_30573" cx="0" cy="0" r="1" gradientUnits="userSpaceOnUse" gradientTransform="translate(21.5002 14.5) rotate(141.34) scale(6.40312 5.84073)">
<stop offset="0.267528" stop-color="#FAAB40"/>
<stop offset="0.882148" stop-color="#FAAB40" stop-opacity="0"/>
</radialGradient>
<radialGradient id="paint48_radial_15956_30573" cx="0" cy="0" r="1" gradientUnits="userSpaceOnUse" gradientTransform="translate(11.5002 11) rotate(149.036) scale(2.91548)">
<stop offset="0.0657336" stop-color="#F4A42F"/>
<stop offset="0.882148" stop-color="#F4A42F" stop-opacity="0"/>
</radialGradient>
<radialGradient id="paint49_radial_15956_30573" cx="0" cy="0" r="1" gradientUnits="userSpaceOnUse" gradientTransform="translate(21.589 15.5774) rotate(43.9634) scale(15.681 5.07311)">
<stop offset="0.240163" stop-color="#CA6D03"/>
<stop offset="0.448933" stop-color="#CA6D03" stop-opacity="0.28"/>
<stop offset="0.663014" stop-color="#FDBF3F" stop-opacity="0"/>
</radialGradient>
<clipPath id="clip0_15956_30573">
<rect width="32" height="32" rx="16" fill="white"/>
</clipPath>
<clipPath id="clip1_15956_30573">
<rect width="32" height="32" fill="white"/>
</clipPath>
</defs>
</svg>
