<svg width="80" height="23" viewBox="0 0 80 23" fill="none" xmlns="http://www.w3.org/2000/svg">
<path fill-rule="evenodd" clip-rule="evenodd" d="M11.2708 0C5.04665 0 0 5.04663 0 11.2708C0 17.495 5.04665 22.5416 11.2708 22.5416C17.4951 22.5416 22.5417 17.495 22.5417 11.2708C22.5287 5.04663 17.4951 0 11.2708 0ZM11.4391 11.6331L10.2745 15.5928H16.5374C16.7575 15.5928 16.8997 15.7998 16.8481 16.0069L16.3046 17.8832C16.2527 18.0643 16.0845 18.1938 15.8904 18.1938H6.31475L7.93227 12.7201L6.14656 13.2765L6.53476 11.9825L8.33349 11.4261L10.6109 3.73968C10.6627 3.55852 10.8309 3.42912 11.025 3.42912H13.4448C13.6647 3.42912 13.8071 3.63616 13.7553 3.84321L11.8273 10.3391L13.613 9.7827L13.2248 11.0896L11.4391 11.6331Z" fill="#345D9D"/>
<path d="M11.4391 11.6331L10.2745 15.5928H16.5374C16.7575 15.5928 16.8997 15.7998 16.8481 16.0069L16.3046 17.8832C16.2527 18.0643 16.0845 18.1938 15.8904 18.1938H6.31475L7.93227 12.7201L6.14656 13.2765L6.53476 11.9825L8.33349 11.4261L10.6109 3.73968C10.6627 3.55852 10.8309 3.42912 11.025 3.42912H13.4448C13.6647 3.42912 13.8071 3.63616 13.7553 3.84321L11.8273 10.3391L13.613 9.7827L13.2248 11.0896L11.4391 11.6331Z" fill="white"/>
<path d="M29.0497 3.41614H28.3509C28.2215 3.41614 28.1309 3.49379 28.1049 3.62319L26.2933 17.9737C26.2804 18.1161 26.3192 18.1808 26.4617 18.1808H27.1603C27.3028 18.1808 27.3804 18.1161 27.4063 17.9737L29.2308 3.62319C29.2696 3.48084 29.192 3.41614 29.0497 3.41614Z" fill="white"/>
<path d="M32.013 7.55697H32.7117C32.8541 7.55697 32.9058 7.63461 32.8929 7.77695L31.6118 17.9867C31.5859 18.129 31.4954 18.1937 31.366 18.1937H30.6672C30.5378 18.1937 30.4602 18.129 30.4731 17.9867L31.7671 7.76401C31.793 7.62167 31.8836 7.55697 32.013 7.55697Z" fill="white"/>
<path fill-rule="evenodd" clip-rule="evenodd" d="M63.328 7.38875C62.3575 7.38875 61.5164 7.66049 60.8047 8.21691C60.0929 8.77334 59.6272 9.49798 59.3943 10.4038C59.2002 11.1414 59.0318 12.1766 58.9542 12.8753L58.9358 13.0436L58.9354 13.0465C58.84 13.9147 58.7601 14.6422 58.7601 15.3469C58.773 16.2656 59.0708 16.9903 59.6272 17.5467C60.1964 18.0902 60.9729 18.3749 61.9564 18.3749C62.9139 18.3749 63.755 18.1031 64.4667 17.5467C65.1784 17.0032 65.6443 16.2656 65.8772 15.3469C66.0325 14.7387 66.1878 13.9235 66.3172 12.8753C66.4466 11.7884 66.5113 10.9602 66.5113 10.3908C66.5113 9.48504 66.2266 8.7604 65.6572 8.21691C65.0749 7.66049 64.2985 7.38875 63.328 7.38875ZM65.2949 11.879C65.2302 12.3966 65.1914 12.733 65.1784 12.8753C65.049 13.9364 64.9326 14.687 64.8291 15.1399C64.6738 15.8127 64.3373 16.3562 63.8327 16.7703C63.328 17.1844 62.7328 17.3785 62.0728 17.3785C61.4 17.3785 60.8694 17.1715 60.4683 16.7703C60.067 16.3692 59.8729 15.8386 59.8729 15.1787C59.8729 14.8293 59.9119 14.3893 59.9766 13.8717C60.0413 13.3541 60.0801 13.0177 60.0929 12.8753C60.2224 11.866 60.3389 11.1155 60.4424 10.6108C60.5977 9.93795 60.9341 9.39446 61.4388 8.98038C61.9434 8.5663 62.5387 8.3722 63.1986 8.3722C63.8715 8.3722 64.402 8.57924 64.8032 8.96744C65.2043 9.36858 65.3984 9.89912 65.3984 10.5591C65.3984 10.9343 65.3596 11.3614 65.2949 11.879Z" fill="white"/>
<path d="M69.8111 7.55697H70.4969C70.6393 7.55697 70.691 7.63461 70.6781 7.77695L69.3969 17.9867C69.371 18.129 69.2806 18.1937 69.1512 18.1937H68.4523C68.3229 18.1937 68.2453 18.129 68.2582 17.9867L69.5651 7.76401C69.5911 7.63461 69.6817 7.55697 69.8111 7.55697Z" fill="white"/>
<path d="M79.322 8.16515C78.8432 7.66049 78.1703 7.41463 77.2904 7.41463C76.721 7.41463 76.2034 7.51815 75.7247 7.73813C75.2459 7.95811 74.8447 8.28162 74.5083 8.72158C74.4436 8.77334 74.4177 8.7604 74.4177 8.68276L74.5212 7.77695C74.5342 7.64755 74.4824 7.56991 74.353 7.56991H73.6543C73.5249 7.56991 73.4343 7.64755 73.4084 7.77695L72.1273 17.9867C72.1144 18.1161 72.1532 18.1937 72.2956 18.1937H72.9943C73.1237 18.1937 73.2143 18.1161 73.2272 17.9867L74.1589 10.6626C74.3142 9.97677 74.6377 9.42034 75.1165 9.0192C75.5953 8.61806 76.1646 8.41102 76.8375 8.41102C77.4586 8.41102 77.9503 8.60512 78.3127 8.99332C78.675 9.38152 78.8561 9.89912 78.8561 10.5591C78.8561 10.7532 78.8432 10.9085 78.8303 11.0249L77.9374 17.9867C77.9374 18.0514 77.9374 18.0902 77.9633 18.129C78.0021 18.1678 78.0539 18.1937 78.1315 18.1937H78.8303C78.9597 18.1937 79.0502 18.129 79.0632 17.9867L79.956 10.8567C79.9819 10.572 79.995 10.365 79.995 10.2226C80.0338 9.3427 79.8009 8.65688 79.322 8.16515Z" fill="white"/>
<path d="M32.013 3.79141C32.22 3.36439 32.7505 3.2091 33.1646 3.42909C33.5916 3.64907 33.7469 4.16667 33.527 4.59369C33.307 5.00778 32.7894 5.176 32.3753 4.95601C31.9612 4.73603 31.793 4.20549 32.013 3.79141Z" fill="white"/>
<path d="M71.0016 3.42909C70.5876 3.2091 70.057 3.36439 69.85 3.79141C69.63 4.20549 69.7982 4.73603 70.2123 4.95601C70.6264 5.176 71.1569 5.00778 71.3769 4.59369C71.5839 4.16667 71.4157 3.64907 71.0016 3.42909Z" fill="white"/>
<path d="M51.6949 8.21691C52.4066 7.67343 53.2477 7.38875 54.2182 7.38875C55.2017 7.38875 55.9651 7.66049 56.5474 8.19103C57.1168 8.73452 57.4016 9.45916 57.4016 10.365V10.6108C57.4016 10.6885 57.3369 10.7402 57.2722 10.7402H56.4568C56.3664 10.7402 56.2886 10.6626 56.2886 10.572V10.5591C56.2886 9.89912 56.0945 9.36858 55.6934 8.96744C55.2922 8.5663 54.7488 8.3722 54.0888 8.3722C53.4289 8.3722 52.8336 8.5663 52.329 8.98038C51.8243 9.39446 51.4879 9.93795 51.3326 10.6108C51.2291 11.1155 51.1126 11.866 50.9832 12.8753C50.9746 12.9696 50.9491 13.1828 50.9177 13.4438C50.9018 13.5771 50.8842 13.723 50.8668 13.8717C50.8021 14.3893 50.7632 14.8293 50.7632 15.1787C50.7632 15.8386 50.9573 16.3692 51.3585 16.7703C51.7596 17.1715 52.2902 17.3785 52.963 17.3785C53.623 17.3785 54.2182 17.1844 54.7229 16.7703C55.2275 16.3562 55.564 15.8127 55.7193 15.1399C55.7193 15.1399 55.7322 15.114 55.7322 15.101C55.7451 15.0234 55.8098 14.9975 55.8616 14.9975H56.7286C56.7803 14.9975 56.8321 15.0493 56.8193 15.114C56.817 15.1272 56.8145 15.1405 56.8117 15.1537C56.8086 15.1677 56.8054 15.1817 56.8019 15.1957L56.7933 15.2299L56.7844 15.2665C56.7778 15.2933 56.7719 15.3201 56.7674 15.3469C56.5345 16.2656 56.0686 17.0032 55.3569 17.5467C54.6452 18.1031 53.8041 18.3749 52.8466 18.3749C51.8631 18.3749 51.0867 18.0902 50.5174 17.5467C49.961 16.9903 49.6633 16.2656 49.6504 15.3469C49.6504 14.6435 49.7415 13.8151 49.8275 13.0321V13.0295L49.8445 12.8753C49.9092 12.306 50.0904 11.1414 50.2845 10.4038C50.5174 9.49798 50.9832 8.77334 51.6949 8.21691Z" fill="white"/>
<path fill-rule="evenodd" clip-rule="evenodd" d="M47.1918 8.21691C46.6223 7.67343 45.8459 7.38875 44.8754 7.38875C43.9049 7.38875 43.0638 7.66049 42.3521 8.21691C41.6404 8.77334 41.1746 9.49798 40.9417 10.4038C40.7575 11.104 40.6663 11.7343 40.5248 12.7154L40.5017 12.8753C40.3594 13.9364 40.3076 14.5964 40.3076 15.3469C40.3205 16.2656 40.6182 16.9903 41.1746 17.5467C41.7439 18.0902 42.5203 18.3749 43.5038 18.3749C44.4613 18.3749 45.3024 18.1031 46.0141 17.5467C46.7258 17.0032 47.1918 16.2656 47.4247 15.3469C47.4311 15.3079 47.4408 15.2689 47.4506 15.2299C47.4561 15.208 47.4617 15.186 47.4666 15.1641C47.4703 15.1474 47.4737 15.1307 47.4765 15.114C47.4894 15.0493 47.4506 14.9975 47.3859 14.9975H46.5188C46.467 14.9975 46.4023 15.0234 46.3894 15.101C46.3894 15.114 46.3766 15.1399 46.3766 15.1399C46.2212 15.8127 45.8847 16.3562 45.3801 16.7703C44.8754 17.1844 44.2802 17.3785 43.6202 17.3785C42.9474 17.3785 42.4168 17.1715 42.0157 16.7703C41.6145 16.3692 41.4204 15.8386 41.4204 15.1787C41.4204 14.8681 41.4463 14.4799 41.4981 14.04L47.7869 12.086C47.9163 12.0472 47.9682 11.9825 47.9941 11.8272C48.0329 11.5037 48.0588 10.9473 48.0588 10.3779C48.0458 9.56268 47.761 8.7604 47.1918 8.21691ZM46.9458 11.1543C46.9458 11.219 46.907 11.2708 46.8423 11.2837L41.6275 12.9012V12.8753C41.7569 11.866 41.8733 11.1155 41.9769 10.6108C42.1321 9.93795 42.4686 9.39446 42.9732 8.98038C43.4779 8.5663 44.0731 8.3722 44.7331 8.3722C45.406 8.3722 45.9365 8.57924 46.3376 8.96744C46.9717 9.62739 46.9846 10.3003 46.9458 11.1543Z" fill="white"/>
<path d="M38.1594 17.2362C38.1854 17.0938 38.0431 17.0032 37.9137 17.0679C37.4736 17.275 36.6197 17.482 36.1796 17.1197C35.8601 16.8123 35.9259 16.2597 35.9997 15.6393L36.0114 15.541L36.775 9.39446H38.9489C39.0006 9.39446 39.0783 9.38152 39.1171 9.3427C39.1559 9.29094 39.1689 9.25212 39.1818 9.17448L39.2465 8.68276C39.2465 8.55336 39.1947 8.47572 39.0653 8.47572H36.8785L37.2795 5.08542C37.3055 4.96896 37.2667 4.87838 37.1114 4.87838H36.4384C36.2962 4.87838 36.2055 4.94308 36.1927 5.08542L35.882 7.46639L35.7526 8.54042L34.8339 16.0327C34.7174 17.0162 34.9244 17.8055 35.7267 18.1678C36.4255 18.4784 37.2926 18.3749 37.9137 18.142C37.9913 18.1031 38.056 18.0255 38.069 17.9349L38.1594 17.2362Z" fill="white"/>
</svg>
