<svg width="32" height="32" viewBox="0 0 32 32" fill="none" xmlns="http://www.w3.org/2000/svg">
<g clip-path="url(#clip0_15956_30568)">
<path d="M4.44214 20.8828C4.44214 14.5315 9.59086 9.38281 15.9421 9.38281H16.5046C22.8559 9.38281 28.0046 14.5315 28.0046 20.8828V21.1687C28.0046 26.0289 24.0647 29.9688 19.2046 29.9688H13.2421C8.38203 29.9688 4.44214 26.0289 4.44214 21.1687V20.8828Z" fill="url(#paint0_radial_15956_30568)"/>
<path d="M4.44214 20.8828C4.44214 14.5315 9.59086 9.38281 15.9421 9.38281H16.5046C22.8559 9.38281 28.0046 14.5315 28.0046 20.8828V21.1687C28.0046 26.0289 24.0647 29.9688 19.2046 29.9688H13.2421C8.38203 29.9688 4.44214 26.0289 4.44214 21.1687V20.8828Z" fill="url(#paint1_radial_15956_30568)"/>
<path d="M4.44214 20.8828C4.44214 14.5315 9.59086 9.38281 15.9421 9.38281H16.5046C22.8559 9.38281 28.0046 14.5315 28.0046 20.8828V21.1687C28.0046 26.0289 24.0647 29.9688 19.2046 29.9688H13.2421C8.38203 29.9688 4.44214 26.0289 4.44214 21.1687V20.8828Z" fill="url(#paint2_radial_15956_30568)"/>
<path d="M4.44214 20.8828C4.44214 14.5315 9.59086 9.38281 15.9421 9.38281H16.5046C22.8559 9.38281 28.0046 14.5315 28.0046 20.8828V21.1687C28.0046 26.0289 24.0647 29.9688 19.2046 29.9688H13.2421C8.38203 29.9688 4.44214 26.0289 4.44214 21.1687V20.8828Z" fill="url(#paint3_radial_15956_30568)"/>
<path d="M4.44214 20.8828C4.44214 14.5315 9.59086 9.38281 15.9421 9.38281H16.5046C22.8559 9.38281 28.0046 14.5315 28.0046 20.8828V21.1687C28.0046 26.0289 24.0647 29.9688 19.2046 29.9688H13.2421C8.38203 29.9688 4.44214 26.0289 4.44214 21.1687V20.8828Z" fill="url(#paint4_radial_15956_30568)"/>
<path d="M4.44214 20.8828C4.44214 14.5315 9.59086 9.38281 15.9421 9.38281H16.5046C22.8559 9.38281 28.0046 14.5315 28.0046 20.8828V21.1687C28.0046 26.0289 24.0647 29.9688 19.2046 29.9688H13.2421C8.38203 29.9688 4.44214 26.0289 4.44214 21.1687V20.8828Z" fill="url(#paint5_radial_15956_30568)" fill-opacity="0.86"/>
<path d="M4.44214 20.8828C4.44214 14.5315 9.59086 9.38281 15.9421 9.38281H16.5046C22.8559 9.38281 28.0046 14.5315 28.0046 20.8828V21.1687C28.0046 26.0289 24.0647 29.9688 19.2046 29.9688H13.2421C8.38203 29.9688 4.44214 26.0289 4.44214 21.1687V20.8828Z" fill="url(#paint6_radial_15956_30568)"/>
<path d="M4.44214 20.8828C4.44214 14.5315 9.59086 9.38281 15.9421 9.38281H16.5046C22.8559 9.38281 28.0046 14.5315 28.0046 20.8828V21.1687C28.0046 26.0289 24.0647 29.9688 19.2046 29.9688H13.2421C8.38203 29.9688 4.44214 26.0289 4.44214 21.1687V20.8828Z" fill="url(#paint7_linear_15956_30568)"/>
<path d="M12.1611 4.69522C12.6316 5.49637 13.316 6.52405 14.1961 7.36719L16.2234 8L18.2508 7.36719C19.1308 6.52405 19.8153 5.49637 20.2857 4.69522C20.5283 4.2821 20.3605 3.75485 19.9335 3.53757C19.6129 3.37436 19.2368 3.45184 18.9259 3.633C18.2243 4.04178 17.8191 3.55988 17.2 2.61328C16.8886 2.13733 16.4138 2.11197 16.2234 2.10938C16.033 2.11197 15.5582 2.13733 15.2469 2.61328C14.6277 3.55988 14.2225 4.04178 13.5209 3.633C13.21 3.45184 12.834 3.37436 12.5133 3.53757C12.0863 3.75485 11.9185 4.2821 12.1611 4.69522Z" fill="url(#paint8_linear_15956_30568)"/>
<path d="M12.1611 4.69522C12.6316 5.49637 13.316 6.52405 14.1961 7.36719L16.2234 8L18.2508 7.36719C19.1308 6.52405 19.8153 5.49637 20.2857 4.69522C20.5283 4.2821 20.3605 3.75485 19.9335 3.53757C19.6129 3.37436 19.2368 3.45184 18.9259 3.633C18.2243 4.04178 17.8191 3.55988 17.2 2.61328C16.8886 2.13733 16.4138 2.11197 16.2234 2.10938C16.033 2.11197 15.5582 2.13733 15.2469 2.61328C14.6277 3.55988 14.2225 4.04178 13.5209 3.633C13.21 3.45184 12.834 3.37436 12.5133 3.53757C12.0863 3.75485 11.9185 4.2821 12.1611 4.69522Z" fill="url(#paint9_linear_15956_30568)"/>
<path d="M12.1611 4.69522C12.6316 5.49637 13.316 6.52405 14.1961 7.36719L16.2234 8L18.2508 7.36719C19.1308 6.52405 19.8153 5.49637 20.2857 4.69522C20.5283 4.2821 20.3605 3.75485 19.9335 3.53757C19.6129 3.37436 19.2368 3.45184 18.9259 3.633C18.2243 4.04178 17.8191 3.55988 17.2 2.61328C16.8886 2.13733 16.4138 2.11197 16.2234 2.10938C16.033 2.11197 15.5582 2.13733 15.2469 2.61328C14.6277 3.55988 14.2225 4.04178 13.5209 3.633C13.21 3.45184 12.834 3.37436 12.5133 3.53757C12.0863 3.75485 11.9185 4.2821 12.1611 4.69522Z" fill="url(#paint10_linear_15956_30568)"/>
<path d="M12.1611 4.69522C12.6316 5.49637 13.316 6.52405 14.1961 7.36719L16.2234 8L18.2508 7.36719C19.1308 6.52405 19.8153 5.49637 20.2857 4.69522C20.5283 4.2821 20.3605 3.75485 19.9335 3.53757C19.6129 3.37436 19.2368 3.45184 18.9259 3.633C18.2243 4.04178 17.8191 3.55988 17.2 2.61328C16.8886 2.13733 16.4138 2.11197 16.2234 2.10938C16.033 2.11197 15.5582 2.13733 15.2469 2.61328C14.6277 3.55988 14.2225 4.04178 13.5209 3.633C13.21 3.45184 12.834 3.37436 12.5133 3.53757C12.0863 3.75485 11.9185 4.2821 12.1611 4.69522Z" fill="url(#paint11_linear_15956_30568)"/>
<path d="M12.1611 4.69522C12.6316 5.49637 13.316 6.52405 14.1961 7.36719L16.2234 8L18.2508 7.36719C19.1308 6.52405 19.8153 5.49637 20.2857 4.69522C20.5283 4.2821 20.3605 3.75485 19.9335 3.53757C19.6129 3.37436 19.2368 3.45184 18.9259 3.633C18.2243 4.04178 17.8191 3.55988 17.2 2.61328C16.8886 2.13733 16.4138 2.11197 16.2234 2.10938C16.033 2.11197 15.5582 2.13733 15.2469 2.61328C14.6277 3.55988 14.2225 4.04178 13.5209 3.633C13.21 3.45184 12.834 3.37436 12.5133 3.53757C12.0863 3.75485 11.9185 4.2821 12.1611 4.69522Z" fill="url(#paint12_radial_15956_30568)"/>
<path d="M12.1611 4.69522C12.6316 5.49637 13.316 6.52405 14.1961 7.36719L16.2234 8L18.2508 7.36719C19.1308 6.52405 19.8153 5.49637 20.2857 4.69522C20.5283 4.2821 20.3605 3.75485 19.9335 3.53757C19.6129 3.37436 19.2368 3.45184 18.9259 3.633C18.2243 4.04178 17.8191 3.55988 17.2 2.61328C16.8886 2.13733 16.4138 2.11197 16.2234 2.10938C16.033 2.11197 15.5582 2.13733 15.2469 2.61328C14.6277 3.55988 14.2225 4.04178 13.5209 3.633C13.21 3.45184 12.834 3.37436 12.5133 3.53757C12.0863 3.75485 11.9185 4.2821 12.1611 4.69522Z" fill="url(#paint13_radial_15956_30568)"/>
<path d="M12.1611 4.69522C12.6316 5.49637 13.316 6.52405 14.1961 7.36719L16.2234 8L18.2508 7.36719C19.1308 6.52405 19.8153 5.49637 20.2857 4.69522C20.5283 4.2821 20.3605 3.75485 19.9335 3.53757C19.6129 3.37436 19.2368 3.45184 18.9259 3.633C18.2243 4.04178 17.8191 3.55988 17.2 2.61328C16.8886 2.13733 16.4138 2.11197 16.2234 2.10938C16.033 2.11197 15.5582 2.13733 15.2469 2.61328C14.6277 3.55988 14.2225 4.04178 13.5209 3.633C13.21 3.45184 12.834 3.37436 12.5133 3.53757C12.0863 3.75485 11.9185 4.2821 12.1611 4.69522Z" fill="url(#paint14_radial_15956_30568)"/>
<path d="M16.8 14.258C16.8 13.8162 16.4418 13.458 16 13.458C15.5581 13.458 15.2 13.8162 15.2 14.258V15.013C15.2 15.1919 15.0802 15.3469 14.9131 15.4108C14.636 15.5167 14.3593 15.6636 14.1051 15.8539C13.4676 16.3311 12.9485 17.1029 12.9485 18.1799C12.9485 19.2399 13.4263 20.0081 14.0751 20.5004C14.6933 20.9694 15.4395 21.1724 16.0355 21.2266C16.2771 21.2486 16.6377 21.3127 16.9365 21.5012C17.1946 21.664 17.4521 21.9433 17.5065 22.5414C17.5585 23.1137 17.326 23.4534 17.0226 23.6847C16.6724 23.9516 16.2658 24.0361 16.1626 24.0361C15.9217 24.0361 15.5086 24.0042 15.1594 23.8147C14.8654 23.6551 14.5485 23.3528 14.4829 22.6167C14.4436 22.1766 14.0551 21.8516 13.615 21.8909C13.1749 21.9301 12.85 22.3186 12.8892 22.7587C13.0033 24.0382 13.6395 24.8102 14.3962 25.2209C14.5633 25.3116 14.7323 25.3826 14.8973 25.4382C15.0724 25.4973 15.2 25.6556 15.2 25.8404V26.5236C15.2 26.9655 15.5581 27.3236 16 27.3236C16.4418 27.3236 16.8 26.9655 16.8 26.5236V25.8475C16.8 25.6668 16.922 25.5106 17.0916 25.4481C17.3923 25.3373 17.706 25.1755 17.9925 24.9572C18.6573 24.4504 19.2099 23.6065 19.0999 22.3965C18.9981 21.2758 18.436 20.6016 17.7798 20.1877C17.1642 19.7994 16.4901 19.6713 16.1548 19.6408C15.2464 19.5938 14.5485 19.0923 14.5485 18.1799C14.5485 17.6787 14.7473 17.3108 15.0422 17.09C15.6509 16.5744 16.6862 16.6445 17.1751 17.2926C17.3915 17.5793 17.4884 17.8955 17.5103 18.1799C17.5441 18.6204 17.9252 18.9716 18.3657 18.9377C18.8062 18.9038 19.1348 18.559 19.1009 18.1185C19.0655 17.6581 18.9132 16.9843 18.4478 16.3674C18.1438 15.9645 17.5694 15.5782 17.0971 15.3837C16.9267 15.3136 16.8 15.1545 16.8 14.9702V14.258Z" fill="#5A2E33"/>
<path d="M16.9999 14.1564C16.9999 13.7146 16.6417 13.3564 16.1999 13.3564C15.7581 13.3564 15.3999 13.7146 15.3999 14.1564V14.9114C15.3999 15.0904 15.2801 15.2453 15.113 15.3092C14.8359 15.4151 14.5592 15.562 14.305 15.7523C13.6676 16.2295 13.1485 17.0014 13.1485 18.0783C13.1485 19.1384 13.6262 19.9065 14.2751 20.3988C14.8933 20.8678 15.6394 21.0708 16.2354 21.125C16.4771 21.147 16.8377 21.2112 17.1365 21.3996C17.3946 21.5624 17.6521 21.8417 17.7065 22.4398C17.7585 23.0121 17.526 23.3518 17.2225 23.5831C16.8723 23.85 16.4658 23.9346 16.3625 23.9346C16.1216 23.9346 15.7086 23.9026 15.3594 23.7131C15.0654 23.5535 14.7485 23.2513 14.6828 22.5151C14.6436 22.075 14.255 21.7501 13.815 21.7893C13.3749 21.8285 13.0499 22.2171 13.0891 22.6572C13.2032 23.9366 13.8394 24.7086 14.5962 25.1193C14.7633 25.21 14.9323 25.2811 15.0973 25.3367C15.2724 25.3957 15.3999 25.554 15.3999 25.7388V26.4221C15.3999 26.8639 15.7581 27.2221 16.1999 27.2221C16.6417 27.2221 16.9999 26.8639 16.9999 26.4221V25.7459C16.9999 25.5652 17.122 25.409 17.2916 25.3465C17.5922 25.2358 17.906 25.074 18.1925 24.8556C18.8572 24.3489 19.4099 23.5049 19.2999 22.295C19.198 21.1743 18.636 20.5 17.9797 20.0861C17.3642 19.6979 16.69 19.5697 16.3547 19.5392C15.4464 19.4922 14.7485 18.9908 14.7485 18.0783C14.7485 17.5771 14.9473 17.2092 15.2422 16.9885C15.8508 16.4728 16.8862 16.543 17.3751 17.191C17.5914 17.4777 17.6883 17.7939 17.7102 18.0783C17.7441 18.5188 18.1251 18.87 18.5657 18.8361C19.0062 18.8022 19.3347 18.4575 19.3008 18.0169C19.2654 17.5565 19.1131 16.8827 18.6477 16.2658C18.3437 15.8629 17.7694 15.4766 17.2971 15.2822C17.1267 15.212 16.9999 15.0529 16.9999 14.8687V14.1564Z" fill="url(#paint15_linear_15956_30568)"/>
<rect x="13.3328" y="7.36719" width="5.73438" height="2.10938" rx="1.05078" fill="url(#paint16_linear_15956_30568)"/>
<rect x="13.3328" y="7.36719" width="5.73438" height="2.10938" rx="1.05078" fill="url(#paint17_radial_15956_30568)"/>
<rect x="13.3328" y="7.36719" width="5.73438" height="2.10938" rx="1.05078" fill="url(#paint18_radial_15956_30568)"/>
<rect x="13.3328" y="7.36719" width="5.73438" height="2.10938" rx="1.05078" fill="url(#paint19_linear_15956_30568)"/>
</g>
<defs>
<radialGradient id="paint0_radial_15956_30568" cx="0" cy="0" r="1" gradientUnits="userSpaceOnUse" gradientTransform="translate(19.4421 11.3125) rotate(100.07) scale(18.4086 19.2809)">
<stop stop-color="#F6C93B"/>
<stop offset="1" stop-color="#E88340"/>
</radialGradient>
<radialGradient id="paint1_radial_15956_30568" cx="0" cy="0" r="1" gradientUnits="userSpaceOnUse" gradientTransform="translate(24.0671 14.1875) rotate(133.199) scale(7.03035 11.7786)">
<stop stop-color="#FFE065"/>
<stop offset="1" stop-color="#FFE065" stop-opacity="0"/>
</radialGradient>
<radialGradient id="paint2_radial_15956_30568" cx="0" cy="0" r="1" gradientUnits="userSpaceOnUse" gradientTransform="translate(6.06714 14.1875) rotate(31.6513) scale(5.35972 13.2833)">
<stop offset="0.187216" stop-color="#FFA45D"/>
<stop offset="1" stop-color="#FFA45D" stop-opacity="0"/>
</radialGradient>
<radialGradient id="paint3_radial_15956_30568" cx="0" cy="0" r="1" gradientUnits="userSpaceOnUse" gradientTransform="translate(16.2234 25.25) rotate(-90) scale(16.3125 24.5772)">
<stop offset="0.928161" stop-color="#F3BD46" stop-opacity="0"/>
<stop offset="0.979885" stop-color="#917011"/>
</radialGradient>
<radialGradient id="paint4_radial_15956_30568" cx="0" cy="0" r="1" gradientUnits="userSpaceOnUse" gradientTransform="translate(16.7488 17.3983) rotate(128.24) scale(14.1347 16.1784)">
<stop offset="0.62404" stop-color="#AE5C48" stop-opacity="0"/>
<stop offset="0.77628" stop-color="#B35941" stop-opacity="0.21"/>
<stop offset="0.961415" stop-color="#BA5536"/>
<stop offset="1" stop-color="#B66152"/>
</radialGradient>
<radialGradient id="paint5_radial_15956_30568" cx="0" cy="0" r="1" gradientUnits="userSpaceOnUse" gradientTransform="translate(20.6734 15.9974) rotate(133.052) scale(6.84594 7.8358)">
<stop stop-color="#FFD966"/>
<stop offset="1" stop-color="#FFDC67" stop-opacity="0"/>
</radialGradient>
<radialGradient id="paint6_radial_15956_30568" cx="0" cy="0" r="1" gradientUnits="userSpaceOnUse" gradientTransform="translate(1.84007 14.3235) rotate(30.9638) scale(7.29372 8.34833)">
<stop stop-color="#F19B40"/>
<stop offset="1" stop-color="#FFDC67" stop-opacity="0"/>
</radialGradient>
<linearGradient id="paint7_linear_15956_30568" x1="16.2234" y1="9.38281" x2="16.2234" y2="31.7067" gradientUnits="userSpaceOnUse">
<stop offset="0.766812" stop-color="#B75439" stop-opacity="0"/>
<stop offset="1" stop-color="#B75439"/>
</linearGradient>
<linearGradient id="paint8_linear_15956_30568" x1="17.4773" y1="3.89063" x2="16.2234" y2="7.36719" gradientUnits="userSpaceOnUse">
<stop stop-color="#F3C048"/>
<stop offset="1" stop-color="#E67A41"/>
</linearGradient>
<linearGradient id="paint9_linear_15956_30568" x1="13.5" y1="7.5" x2="15" y2="6.5" gradientUnits="userSpaceOnUse">
<stop offset="0.18122" stop-color="#CE6226"/>
<stop offset="0.714276" stop-color="#CE6226" stop-opacity="0"/>
</linearGradient>
<linearGradient id="paint10_linear_15956_30568" x1="19.146" y1="7.75904" x2="17.9078" y2="6.64459" gradientUnits="userSpaceOnUse">
<stop offset="0.18122" stop-color="#CE6226"/>
<stop offset="0.714276" stop-color="#CE6226" stop-opacity="0"/>
</linearGradient>
<linearGradient id="paint11_linear_15956_30568" x1="17.9078" y1="7.63625" x2="17.9078" y2="6.64459" gradientUnits="userSpaceOnUse">
<stop offset="0.18122" stop-color="#CE6226"/>
<stop offset="0.714276" stop-color="#CE6226" stop-opacity="0"/>
</linearGradient>
<radialGradient id="paint12_radial_15956_30568" cx="0" cy="0" r="1" gradientUnits="userSpaceOnUse" gradientTransform="translate(16.6098 4.3155) rotate(97.2161) scale(3.07605 3.12556)">
<stop stop-color="#FFC655"/>
<stop offset="1" stop-color="#FFC655" stop-opacity="0"/>
</radialGradient>
<radialGradient id="paint13_radial_15956_30568" cx="0" cy="0" r="1" gradientUnits="userSpaceOnUse" gradientTransform="translate(18.5 2.5) rotate(113.199) scale(3.80789 5.98208)">
<stop offset="0.260708" stop-color="#FFE362"/>
<stop offset="0.439776" stop-color="#FFE362" stop-opacity="0"/>
</radialGradient>
<radialGradient id="paint14_radial_15956_30568" cx="0" cy="0" r="1" gradientUnits="userSpaceOnUse" gradientTransform="translate(18.8999 3.37591) rotate(-17.4129) scale(1.14101 0.578098)">
<stop offset="0.171102" stop-color="#A27425"/>
<stop offset="1" stop-color="#D7AA5D" stop-opacity="0"/>
</radialGradient>
<linearGradient id="paint15_linear_15956_30568" x1="18.8229" y1="21.8752" x2="13.0859" y2="21.8752" gradientUnits="userSpaceOnUse">
<stop stop-color="#9D6360"/>
<stop offset="1" stop-color="#6E4347"/>
</linearGradient>
<linearGradient id="paint16_linear_15956_30568" x1="14.1296" y1="8.42188" x2="19.0671" y2="8.42188" gradientUnits="userSpaceOnUse">
<stop stop-color="#834B41"/>
<stop offset="1" stop-color="#735854"/>
</linearGradient>
<radialGradient id="paint17_radial_15956_30568" cx="0" cy="0" r="1" gradientUnits="userSpaceOnUse" gradientTransform="translate(18.0671 8.09375) rotate(-180) scale(1.86719 1.40625)">
<stop stop-color="#7D5A54"/>
<stop offset="1" stop-color="#7D5A54" stop-opacity="0"/>
</radialGradient>
<radialGradient id="paint18_radial_15956_30568" cx="0" cy="0" r="1" gradientUnits="userSpaceOnUse" gradientTransform="translate(18.3171 8.42187) rotate(180) scale(5.53125 4.43103)">
<stop offset="0.694915" stop-color="#B3624D" stop-opacity="0"/>
<stop offset="0.960452" stop-color="#B3624D"/>
</radialGradient>
<linearGradient id="paint19_linear_15956_30568" x1="16.2" y1="7.36719" x2="16.2" y2="9.47656" gradientUnits="userSpaceOnUse">
<stop stop-color="#7B5249"/>
<stop offset="0.5" stop-color="#714737" stop-opacity="0"/>
<stop offset="1" stop-color="#653C21"/>
</linearGradient>
<clipPath id="clip0_15956_30568">
<rect width="32" height="32" fill="white"/>
</clipPath>
</defs>
</svg>
