<svg width="140" height="140" viewBox="0 0 140 140" fill="none" xmlns="http://www.w3.org/2000/svg">
<path d="M60 120C93.1371 120 120 93.1371 120 60C120 26.8629 93.1371 0 60 0C26.8629 0 0 26.8629 0 60C0 93.1371 26.8629 120 60 120Z" fill="url(#paint0_linear_302_4017)"/>
<path d="M49 87.5C47.056 87.5 47.3865 86.766 46.716 84.915L41 66.1035L85 40" fill="#C8DAEA"/>
<path d="M49 87.4999C50.5 87.4999 51.1625 86.8139 52 85.9999L60 78.2209L50.021 72.2034" fill="#A9C9DD"/>
<path d="M50.0197 72.2049L74.1996 90.0694C76.9591 91.5919 78.9502 90.8034 79.6377 87.5079L89.4801 41.1264C90.4876 37.0864 87.9402 35.2534 85.3002 36.4519L27.5052 58.7374C23.5602 60.3199 23.5837 62.5209 26.7862 63.5014L41.6177 68.1309L75.9542 46.4684C77.5751 45.4854 79.0632 46.0134 77.8422 47.0974" fill="url(#paint1_linear_302_4017)"/>
<defs>
<linearGradient id="paint0_linear_302_4017" x1="80.04" y1="20.04" x2="50.04" y2="90" gradientUnits="userSpaceOnUse">
<stop stop-color="#37AEE2"/>
<stop offset="1" stop-color="#1E96C8"/>
</linearGradient>
<linearGradient id="paint1_linear_302_4017" x1="67.5216" y1="60.0047" x2="76.8854" y2="81.3391" gradientUnits="userSpaceOnUse">
<stop stop-color="#EFF7FC"/>
<stop offset="1" stop-color="white"/>
</linearGradient>
</defs>
</svg>
