<svg width="140" height="140" viewBox="0 0 140 140" fill="none" xmlns="http://www.w3.org/2000/svg">
<path d="M60 120C93.1371 120 120 93.1371 120 60C120 26.8629 93.1371 0 60 0C26.8629 0 0 26.8629 0 60C0 93.1371 26.8629 120 60 120Z" fill="url(#paint0_linear_302_1712)"/>
<path fill-rule="evenodd" clip-rule="evenodd" d="M25 67.1561L25 67.1004L25 66.0053L25 66.0038V39.2635C25 38.245 25.8257 37.4194 26.8442 37.4194C27.8627 37.4194 28.6884 38.245 28.6884 39.2635V52.0388C33.8895 42.0484 44.0941 35.0441 56.0782 34.4215L60.5 34.1918L64.9217 34.4215C76.9059 35.0441 87.1106 42.0485 92.3117 52.039V39.2635C92.3117 38.245 93.1373 37.4194 94.1558 37.4194C95.1743 37.4194 96 38.245 96 39.2635L96 65.3121L96 66.0038L96 66.0091V74.5329C96 81.1027 85.3961 86.0588 60.5 86.0588C35.6039 86.0588 25 81.1027 25 74.5329L25 67.1561ZM42.0585 54.9389C36.966 54.9389 32.8377 59.0671 32.8377 64.1596C32.8377 69.2521 36.966 73.3804 42.0585 73.3804H60.5H78.9415C84.034 73.3804 88.1623 69.2521 88.1623 64.1596C88.1623 59.0671 84.034 54.9389 78.9415 54.9389H42.0585Z" fill="white"/>
<circle cx="42.0586" cy="64.1593" r="4.61038" fill="white"/>
<circle cx="78.9414" cy="64.1593" r="4.61038" fill="white"/>
<g filter="url(#filter0_d_302_1712)">
<path d="M100 128C115.464 128 128 115.464 128 100C128 84.536 115.464 72 100 72C84.536 72 72 84.536 72 100C72 115.464 84.536 128 100 128Z" fill="url(#paint1_linear_302_1712)"/>
<path d="M100 130C116.569 130 130 116.569 130 100C130 83.4315 116.569 70 100 70C83.4315 70 70 83.4315 70 100C70 116.569 83.4315 130 100 130Z" stroke="white" stroke-width="4"/>
</g>
<path d="M94.8671 112.833C93.9599 112.833 94.1142 112.491 93.8013 111.627L91.1338 102.848L111.667 90.6667" fill="#C8DAEA"/>
<path d="M94.8662 112.833C95.5662 112.833 95.8754 112.513 96.2662 112.133L99.9995 108.503L95.3427 105.695" fill="#A9C9DD"/>
<path d="M95.3424 105.696L106.626 114.032C107.914 114.743 108.843 114.375 109.164 112.837L113.757 91.1923C114.227 89.307 113.039 88.4516 111.807 89.0109L84.8356 99.4108C82.9946 100.149 83.0056 101.176 84.5001 101.634L91.4214 103.794L107.445 93.6853C108.202 93.2265 108.896 93.4729 108.326 93.9788" fill="url(#paint2_linear_302_1712)"/>
<defs>
<filter id="filter0_d_302_1712" x="56" y="56" width="88" height="88" filterUnits="userSpaceOnUse" color-interpolation-filters="sRGB">
<feFlood flood-opacity="0" result="BackgroundImageFix"/>
<feColorMatrix in="SourceAlpha" type="matrix" values="0 0 0 0 0 0 0 0 0 0 0 0 0 0 0 0 0 0 127 0" result="hardAlpha"/>
<feOffset/>
<feGaussianBlur stdDeviation="6"/>
<feComposite in2="hardAlpha" operator="out"/>
<feColorMatrix type="matrix" values="0 0 0 0 0 0 0 0 0 0 0 0 0 0 0 0 0 0 0.29 0"/>
<feBlend mode="normal" in2="BackgroundImageFix" result="effect1_dropShadow_302_1712"/>
<feBlend mode="normal" in="SourceGraphic" in2="effect1_dropShadow_302_1712" result="shape"/>
</filter>
<linearGradient id="paint0_linear_302_1712" x1="80.04" y1="20.04" x2="50.04" y2="90" gradientUnits="userSpaceOnUse">
<stop stop-color="#37AEE2"/>
<stop offset="1" stop-color="#1E96C8"/>
</linearGradient>
<linearGradient id="paint1_linear_302_1712" x1="109.352" y1="81.352" x2="95.352" y2="114" gradientUnits="userSpaceOnUse">
<stop stop-color="#37AEE2"/>
<stop offset="1" stop-color="#1E96C8"/>
</linearGradient>
<linearGradient id="paint2_linear_302_1712" x1="103.51" y1="100.002" x2="107.88" y2="109.958" gradientUnits="userSpaceOnUse">
<stop stop-color="#EFF7FC"/>
<stop offset="1" stop-color="white"/>
</linearGradient>
</defs>
</svg>
