<svg width="24" height="24" viewBox="0 0 24 24" fill="none" xmlns="http://www.w3.org/2000/svg">
<path d="M12 21C16.9706 21 21 16.9706 21 12C21 7.02944 16.9706 3 12 3C7.02944 3 3 7.02944 3 12C3 16.9706 7.02944 21 12 21Z" stroke="white" stroke-width="1.7" stroke-miterlimit="10" stroke-linecap="round" stroke-linejoin="round"/>
<path fill-rule="evenodd" clip-rule="evenodd" d="M8.57143 10.607C8.57143 12.444 10.1627 14.0356 11.9997 14.0356C13.8366 14.0356 15.4286 12.444 15.4286 10.607V9.74986C15.4286 7.9129 13.8366 6.32129 11.9997 6.32129C10.1627 6.32129 8.57143 7.9129 8.57143 9.74986V10.607ZM16.7143 15.742C17.3833 16.0079 18 16.6814 18 17.4641V19.27C18 19.489 17.8574 19.6826 17.6481 19.7475L12 21.4997L6.33925 19.5777C6.13643 19.5088 6 19.3184 6 19.1042V17.4641C6 16.6814 6.61669 16.0079 7.28571 15.742C8.26856 15.3511 9.80177 14.8927 12.0006 14.8927C14.1994 14.8927 15.7314 15.3511 16.7143 15.742Z" fill="white"/>
</svg>
