<svg width="22" height="20" viewBox="0 0 22 20" fill="none" xmlns="http://www.w3.org/2000/svg">
<path fill-rule="evenodd" clip-rule="evenodd" d="M0 1C0 0.447715 0.447715 0 1 0H13C13.5523 0 14 0.447715 14 1V5C14 5.55228 13.5523 6 13 6C12.4477 6 12 5.55228 12 5V2H2V18H12V15C12 14.4477 12.4477 14 13 14C13.5523 14 14 14.4477 14 15V19C14 19.5523 13.5523 20 13 20H1C0.447715 20 0 19.5523 0 19V1ZM16.2929 5.29289C16.6834 4.90237 17.3166 4.90237 17.7071 5.29289L21.7071 9.29289C22.0976 9.68342 22.0976 10.3166 21.7071 10.7071L17.7071 14.7071C17.3166 15.0976 16.6834 15.0976 16.2929 14.7071C15.9024 14.3166 15.9024 13.6834 16.2929 13.2929L18.5858 11H10C9.44771 11 9 10.5523 9 10C9 9.44771 9.44771 9 10 9H18.5858L16.2929 6.70711C15.9024 6.31658 15.9024 5.68342 16.2929 5.29289Z" fill="white"/>
</svg>
