<svg width="28" height="27" viewBox="0 0 28 27" fill="none" xmlns="http://www.w3.org/2000/svg">
<g id="review star">
<g id="Star 8" filter="url(#filter0_d_11064_11426)">
<path d="M13.6833 6.12158C13.7805 5.96012 14.0146 5.96012 14.1117 6.12158L16.4762 10.0505C16.5111 10.1085 16.568 10.1499 16.634 10.1651L21.1013 11.1998C21.2849 11.2423 21.3572 11.4649 21.2337 11.6072L18.2277 15.0701C18.1833 15.1212 18.1616 15.1881 18.1674 15.2556L18.5639 19.8239C18.5802 20.0117 18.3908 20.1492 18.2173 20.0757L13.9951 18.287C13.9327 18.2606 13.8623 18.2606 13.8 18.287L9.57776 20.0757C9.40425 20.1492 9.21488 20.0117 9.23117 19.8239L9.62764 15.2556C9.6335 15.1881 9.61175 15.1212 9.56737 15.0701L6.5614 11.6072C6.43787 11.4649 6.5102 11.2423 6.69378 11.1998L11.1611 10.1651C11.227 10.1499 11.284 10.1085 11.3189 10.0505L13.6833 6.12158Z" fill="url(#paint0_linear_11064_11426)"/>
</g>
</g>
<defs>
<filter id="filter0_d_11064_11426" x="0.5" y="0.000488281" width="26.7952" height="26.0955" filterUnits="userSpaceOnUse" color-interpolation-filters="sRGB">
<feFlood flood-opacity="0" result="BackgroundImageFix"/>
<feColorMatrix in="SourceAlpha" type="matrix" values="0 0 0 0 0 0 0 0 0 0 0 0 0 0 0 0 0 0 127 0" result="hardAlpha"/>
<feOffset/>
<feGaussianBlur stdDeviation="3"/>
<feComposite in2="hardAlpha" operator="out"/>
<feColorMatrix type="matrix" values="0 0 0 0 1 0 0 0 0 0.831373 0 0 0 0 0.239216 0 0 0 0.8 0"/>
<feBlend mode="normal" in2="BackgroundImageFix" result="effect1_dropShadow_11064_11426"/>
<feBlend mode="normal" in="SourceGraphic" in2="effect1_dropShadow_11064_11426" result="shape"/>
</filter>
<linearGradient id="paint0_linear_11064_11426" x1="19.7156" y1="2.12975" x2="9.53382" y2="21.7661" gradientUnits="userSpaceOnUse">
<stop stop-color="#FFC120"/>
<stop offset="1" stop-color="#FFE792"/>
</linearGradient>
</defs>
</svg>
