<svg width="83" height="16" viewBox="0 0 83 16" fill="none" xmlns="http://www.w3.org/2000/svg">
<path d="M67.4947 7.78663V4.41221C68.0611 4.29709 68.6465 4.26518 69.1515 4.36486C69.9729 4.52697 70.582 5.03719 70.5519 6.10371C70.5209 7.11165 69.9301 7.64809 69.1023 7.82053C68.6166 7.92173 68.0374 7.92434 67.4947 7.78663ZM60.2439 10.6235V6.82529H59.3087V5.9818H60.2439V4.8645H61.3288V5.9818H62.8948V6.82529H61.3288V10.364C61.3288 10.6077 61.4205 10.9028 61.4925 11.0247C61.6283 11.2543 61.8631 11.3355 62.1142 11.348C62.3276 11.3585 62.5528 11.3195 62.7392 11.2795L62.9745 12.1192C62.4737 12.3182 61.676 12.3732 61.1909 12.1609C60.909 12.0375 60.6795 11.8475 60.505 11.5907C60.3308 11.3344 60.2439 11.0127 60.2439 10.6235V10.6235ZM75.575 9.02375C75.575 9.93237 75.754 10.5192 75.0818 11.0781C74.6469 11.4592 73.7848 11.6951 73.2972 11.2197C72.8976 10.8302 72.6479 9.75349 73.7976 9.25852C74.1982 9.08611 74.7899 9.00202 75.575 9.02375ZM72.3586 6.3022L72.5357 7.11063C72.9315 6.89956 73.276 6.76041 73.8808 6.6702C74.4297 6.5883 75.0253 6.66825 75.3352 7.18333C75.4803 7.42463 75.547 7.80772 75.5458 8.26821C74.7237 8.20296 73.847 8.33962 73.1528 8.64357C72.8307 8.78458 72.5688 8.96748 72.3509 9.20153C71.9925 9.58656 71.7877 10.1101 71.8863 10.8136C72.0142 11.7265 72.7116 12.2058 73.4833 12.2974C74.1069 12.3714 74.7517 12.1925 75.2596 11.7848C75.404 11.6689 75.5995 11.4703 75.6838 11.351L75.7338 12.169L76.7349 12.1708C76.6428 11.3774 76.6643 10.2776 76.6698 9.44077C76.6776 8.27275 76.7284 7.54746 76.3265 6.80736C76.0486 6.29562 75.5505 5.92475 74.6607 5.85056C73.5753 5.76005 73.1151 5.98842 72.3586 6.3022H72.3586ZM48.8298 8.34982V12.1697H47.7018V3.59027H48.8145V7.01402C49.1628 6.26705 49.9717 5.84826 50.8469 5.84826C52.0275 5.84826 52.9225 6.85022 52.9225 8.27226V12.1697H51.833V8.36384C51.833 7.57595 51.2773 6.73774 50.4285 6.73774C49.5907 6.73774 48.8298 7.52844 48.8298 8.34982H48.8298ZM29.3273 3.54234L30.9229 10.7964H30.9682L32.7541 3.54234H33.8831L31.4782 12.1697H30.3098L28.6886 4.89705L26.825 12.1697H25.6567L23.4941 3.54234H24.6232L26.1666 10.7964H26.212L28.05 3.54234H29.3273ZM57.5584 9.02375C57.5584 9.93237 57.7374 10.5192 57.0652 11.0781C56.6303 11.4592 55.7682 11.6951 55.2805 11.2197C54.8809 10.8302 54.6312 9.75349 55.781 9.25852C56.1815 9.08611 56.7732 9.00202 57.5584 9.02375ZM54.342 6.3022L54.519 7.11063C54.9148 6.89956 55.2594 6.76041 55.8642 6.6702C56.413 6.5883 57.0086 6.66825 57.3185 7.18333C57.4637 7.42463 57.5304 7.80772 57.5291 8.26821C56.7071 8.20296 55.8304 8.33962 55.1361 8.64357C54.8141 8.78458 54.5522 8.96748 54.3343 9.20153C53.9759 9.58656 53.771 10.1101 53.8696 10.8136C53.9976 11.7265 54.695 12.2058 55.4667 12.2974C56.0902 12.3714 56.7351 12.1925 57.243 11.7848C57.3873 11.6689 57.5829 11.4703 57.6671 11.351L57.7172 12.169L58.7183 12.1708C58.6262 11.3774 58.6477 10.2776 58.6532 9.44077C58.661 8.27275 58.7118 7.54746 58.3098 6.80736C58.032 6.29562 57.5339 5.92475 56.644 5.85056C55.5587 5.76005 55.0984 5.98842 54.3419 6.3022H54.342ZM34.9215 8.44262C34.893 6.15601 38.3067 5.96328 38.0984 8.44395L37.43 8.44367L34.9215 8.44262L34.9215 8.44262ZM38.8556 11.8886L38.6616 11.0837C37.7703 11.2946 37.0052 11.5758 36.0609 11.2128C35.3143 10.9258 34.9144 10.2708 34.8891 9.25853H39.1385C39.3293 8.57103 39.1327 7.6534 38.8461 7.09976C37.7988 5.07647 34.9275 5.5283 34.1068 7.52224C32.9596 10.3093 34.769 13.3795 38.8556 11.8886H38.8556ZM77.5252 14.0813L77.8257 15.0286C79.3722 14.5836 80.0377 13.4066 80.7578 11.785C81.2711 10.629 81.6895 9.45883 81.9948 8.62858L83.0001 5.91008L81.8059 5.9078L80.1687 10.9299L78.3744 5.91008H77.1608L79.373 11.4111C79.4435 11.5835 79.5495 11.778 79.5426 11.9525C79.5108 12.7602 78.2526 13.8366 77.5252 14.0812L77.5252 14.0813ZM46.6417 11.9251L46.4452 11.0315C45.7809 11.0791 44.2179 11.7745 42.8009 10.8884C39.9852 9.1277 41.1966 2.82893 46.3799 4.71173L46.6356 3.75606C43.1987 2.74619 40.2256 4.32833 40.1641 7.84342C40.1321 9.67038 40.8701 10.9525 41.9689 11.6561C43.4665 12.615 44.9597 12.328 46.6417 11.9251V11.9251ZM66.3809 3.58781V12.1697H67.4948V8.71284C68.9608 8.87463 69.7214 8.71295 70.5107 8.24218C70.9978 7.95159 71.3564 7.49793 71.5541 6.91468C71.8457 6.0541 71.661 5.2365 71.3364 4.67716C70.9588 4.02634 70.3787 3.67181 69.5884 3.52036C68.6204 3.33482 67.3587 3.49013 66.3809 3.58782L66.3809 3.58781Z" fill="white"/>
<path d="M6.82929 10.0668C6.56356 10.0668 6.37219 9.89615 6.25929 9.67937L4.62853 6.15302C4.61006 6.11048 4.60886 6.06788 4.60886 6.02268C4.60886 5.87029 4.73079 5.74633 4.88257 5.74274C4.94922 5.74274 5.01615 5.76614 5.06975 5.80525L6.98008 7.15914C7.12038 7.24611 7.28995 7.29897 7.47163 7.30239C7.57855 7.30239 7.68608 7.27982 7.78457 7.23852L16.7581 3.25832C15.1339 1.35028 12.4855 0.119492 9.4947 0.119492C4.60241 0.119492 0.629883 3.42116 0.629883 7.50431C0.629883 9.71846 1.82034 11.7372 3.69245 13.0853C3.84094 13.1818 3.93775 13.3467 3.93775 13.5342C3.93775 13.6061 3.89662 13.74 3.89787 13.7365C3.75439 14.29 3.50651 15.192 3.50651 15.2343C3.47968 15.3071 3.46402 15.3878 3.46402 15.4655C3.46402 15.6179 3.58594 15.7419 3.73773 15.7455H3.73805C3.79833 15.746 3.85683 15.7244 3.9013 15.6835L3.90114 15.6836L5.83197 14.5537C5.97313 14.466 6.13869 14.416 6.30487 14.4105C6.43021 14.4162 6.5833 14.4555 6.57231 14.4528C7.51601 14.7391 8.5109 14.8717 9.49644 14.8663H9.49464C14.3869 14.8663 18.3692 11.5646 18.3692 7.48149C18.3564 6.20961 17.9788 5.02832 17.3362 4.03378L7.14306 9.96589C6.9837 10.0666 6.86645 10.0668 6.82929 10.0668Z" fill="#07C160"/>
</svg>
