<svg viewBox="0 0 24 24" xmlns="http://www.w3.org/2000/svg">
    <path fill-rule="evenodd" clip-rule="evenodd"
          d="M6 4C5.44772 4 5 4.44772 5 5V19C5 19.5523 5.44772 20 6 20H18C18.5523 20 19 19.5523 19 19V11H13C12.4477 11 12 10.5523 12 10V4H6ZM14 4C16.7614 4 19 6.23858 19 9H14V4ZM10.8281 12.8283C10.8281 12.276 11.2758 11.8283 11.8281 11.8283C12.3804 11.8283 12.8281 12.276 12.8281 12.8283V13.8286H13.8281C14.3804 13.8286 14.8281 14.2763 14.8281 14.8286C14.8281 15.3809 14.3804 15.8286 13.8281 15.8286H12.8281V16.8283C12.8281 17.3806 12.3804 17.8283 11.8281 17.8283C11.2758 17.8283 10.8281 17.3806 10.8281 16.8283V15.8286H9.82813C9.27584 15.8286 8.82813 15.3809 8.82813 14.8286C8.82813 14.2763 9.27584 13.8286 9.82813 13.8286H10.8281V12.8283Z"/>
</svg>
