<svg width="24" height="24" viewBox="0 0 24 24" fill="none" xmlns="http://www.w3.org/2000/svg">
<path fill-rule="evenodd" clip-rule="evenodd" d="M5.63679 4.22258C5.24627 3.83206 4.6131 3.83206 4.22258 4.22258C3.83206 4.6131 3.83206 5.24627 4.22258 5.63679L10.5868 12.001L4.22273 18.365C3.83221 18.7555 3.83221 19.3887 4.22273 19.7792C4.61326 20.1697 5.24642 20.1697 5.63695 19.7792L12.001 13.4152L18.3647 19.7789C18.7552 20.1695 19.3884 20.1695 19.7789 19.7789C20.1695 19.3884 20.1695 18.7552 19.7789 18.3647L13.4152 12.001L19.7791 5.63709C20.1696 5.24656 20.1696 4.6134 19.7791 4.22287C19.3886 3.83235 18.7554 3.83235 18.3649 4.22287L12.001 10.5868L5.63679 4.22258Z" fill="white"/>
</svg>
