<svg width="33" height="32" viewBox="0 0 33 32" fill="none" xmlns="http://www.w3.org/2000/svg">
<path fill-rule="evenodd" clip-rule="evenodd" d="M15.3871 5.95166C16.0876 5.60724 16.9121 5.60724 17.6125 5.95166L24.2128 9.19703V18.2623C24.2128 19.5097 23.6538 20.633 22.2769 21.9427C20.9764 23.1799 19.0661 24.4698 16.5024 26.0755C13.9774 24.4694 12.0555 23.015 10.7499 21.6941C9.30705 20.2344 8.78688 19.1095 8.78688 18.2623V9.19704L15.3871 5.95166ZM26.7008 18.2623V8.44102C26.7008 7.97763 26.4346 7.55395 26.0132 7.34672L18.7252 3.76321C17.3243 3.07437 15.6754 3.07437 14.2745 3.76321L6.98651 7.34672C6.56505 7.55395 6.29883 7.97756 6.29883 8.44094V18.2623C6.29883 20.0722 7.37251 21.7876 8.96582 23.3995C10.5846 25.0372 12.9194 26.749 15.8356 28.5601C16.2413 28.8121 16.7583 28.8121 17.1641 28.5601C20.0315 26.7793 22.3814 25.2474 24.0067 23.7014C25.666 22.123 26.7008 20.406 26.7008 18.2623ZM15.0293 20.6017C15.0619 20.7048 15.1969 20.7739 15.2988 20.7743L17.6435 20.783C17.7454 20.7834 17.8483 20.7152 17.9177 20.6125C17.9871 20.5098 17.989 20.3726 17.9565 20.2696C17.6593 19.651 17.3295 18.9293 17.1687 18.2769C17.6066 18.5529 18.1139 18.7263 18.6236 18.7283C20.0169 18.7335 21.1875 17.6401 21.2066 16.2679C21.2191 15.3759 20.6514 14.6534 20.2159 14.2057C18.5082 12.3811 17.5399 11.1425 16.8765 9.9735C16.81 9.87041 16.709 9.80143 16.5731 9.80095C16.4712 9.80046 16.3683 9.8687 16.2988 9.97142C15.4628 11.4435 14.3251 12.6056 13.0846 13.8361L12.74 14.1778C12.2576 14.6563 11.8077 15.2378 11.7939 16.2327C11.7747 17.6049 12.9148 18.707 14.308 18.7122C14.8178 18.714 15.3299 18.5444 15.7759 18.2373C15.6323 18.7857 15.3509 19.4708 15.0001 20.2586C14.9642 20.3956 14.9628 20.4986 15.0293 20.6017Z" fill="url(#paint0_linear_619_61976)"/>
<defs>
<linearGradient id="paint0_linear_619_61976" x1="23.0495" y1="7.74424" x2="10.4731" y2="24.2234" gradientUnits="userSpaceOnUse">
<stop stop-color="#FAEAB3"/>
<stop offset="1" stop-color="#FCB242"/>
</linearGradient>
</defs>
</svg>
