<svg width="56" height="56" viewBox="0 0 56 56" fill="none" xmlns="http://www.w3.org/2000/svg">
<g opacity="0.5">
<path d="M17.9796 21.4686L15.5403 30.5285C15.5403 30.5285 15.9618 30.9294 16.9342 28.7864C16.9342 28.7864 17.6449 26.3472 22.5093 26.3472H30.1754L24.6002 46.5574C24.6002 46.5574 22.9902 51.2546 18.6763 51.7842C18.6763 51.7842 18.1327 51.9481 17.9968 52.1431C17.7878 52.4462 18.0631 52.8295 19.0248 52.8295H37.4929C37.4929 52.8295 38.2247 52.9761 38.1515 52.3974C38.1166 52.1536 37.7962 51.8992 37.1446 51.7842C37.1446 51.7842 30.3076 48.5819 31.9177 42.7246L37.4929 21.4686H17.9795H17.9796ZM48.0408 41.024C48.0408 41.024 42.8313 46.4529 35.1933 43.0869L36.3673 38.9368C38.0539 39.8219 42.9323 41.7036 46.4831 36.3478C46.4831 36.3478 49.4834 31.7692 46.1903 27.7757L28.0011 9.48898L9.81159 27.7757C6.51877 31.7691 9.51879 36.3478 9.51879 36.3478C13.8747 42.923 20.2339 38.5883 20.2339 38.5883L24.3876 34.5184L22.4572 42.2366C13.9269 47.2439 7.96149 41.024 7.96149 41.024C-0.837105 32.257 7.08327 24.0716 7.08327 24.0716L28.0011 3.15405L48.9187 24.0716C48.9187 24.0716 56.8356 32.257 48.0408 41.024H48.0408Z" fill="#FFE8F1"/>
<path d="M17.9794 21.4685L15.5402 30.5284C15.5402 30.5284 15.6148 30.5992 15.7737 30.5218L18.162 21.6511H37.4448L37.4928 21.4684H17.9794V21.4685ZM30.1752 26.347L24.6 46.5572C24.6 46.5572 22.9901 51.2544 18.6761 51.7841C18.6761 51.7841 18.1325 51.9479 17.9966 52.1429C17.8781 52.3149 17.9154 52.5127 18.1456 52.6517C18.0925 52.5463 18.1065 52.431 18.1793 52.3256C18.3152 52.1305 18.8588 51.9668 18.8588 51.9668C23.1727 51.4371 24.7827 46.7399 24.7827 46.7399L30.4083 26.347H30.1752ZM38.0928 52.246C37.9699 52.0543 37.6614 51.8753 37.1445 51.7841C37.1445 51.7841 35.5514 51.0377 34.0844 49.607C35.5986 51.1567 37.3271 51.9668 37.3271 51.9668C37.6737 52.028 37.9267 52.1286 38.0928 52.246ZM46.1902 27.7754L46.3729 27.9581C49.666 31.9515 46.6657 36.5302 46.6657 36.5302C43.115 41.8861 38.2366 40.0044 36.5499 39.1192L35.4024 43.1756C35.3328 43.1461 35.2633 43.1175 35.1932 43.0867L36.3672 38.9366C38.0538 39.8217 42.9322 41.7034 46.483 36.3475C46.483 36.3475 49.4833 31.7689 46.1901 27.7755L46.1902 27.7754ZM10.8848 38.0134C15.0891 42.0935 20.2339 38.588 20.2339 38.588L24.3876 34.5182L24.2677 34.9973L20.4165 38.7707C20.4165 38.7707 15.1212 42.3789 10.8848 38.0135V38.0134ZM8.06738 41.1278C7.99739 41.0612 7.96149 41.0238 7.96149 41.0238C-0.837104 32.2567 7.08327 24.0714 7.08327 24.0714L28.0011 3.15381L28.1838 3.33649L7.26596 24.254C7.26596 24.254 -0.605175 32.3905 8.06738 41.1278Z" fill="#FFE8F1"/>
</g>
</svg>
