<svg width="140" height="140" viewBox="0 0 140 140" fill="none" xmlns="http://www.w3.org/2000/svg">
<circle cx="60" cy="60" r="60" fill="white"/>
<path d="M51.6864 51.6857V48.5474C50.5974 48.3927 49.4986 48.3132 48.3988 48.3078C34.9455 48.3078 24 59.255 24 72.7084C24 80.9609 28.1244 88.2665 34.4162 92.6842C30.2032 88.1789 27.8607 82.2403 27.8643 76.072C27.8643 62.81 38.4986 51.995 51.6864 51.6857Z" fill="#00F2EA"/>
<path d="M52.2625 87.2142C58.2654 87.2142 63.1615 82.4388 63.385 76.4878L63.4055 23.3636H73.1109C72.9035 22.254 72.7989 21.1283 72.798 20H59.5422L59.5198 73.126C59.299 79.0753 54.4003 83.8488 48.3991 83.8488C46.5975 83.8497 44.8228 83.4107 43.2295 82.5694C45.3172 85.4823 48.679 87.2106 52.2625 87.2142ZM91.2395 41.3965V38.4442C87.673 38.4478 84.1824 37.4097 81.1971 35.4588C83.815 38.4728 87.3386 40.556 91.2413 41.3965" fill="#00F2EA"/>
<path d="M81.1968 35.4562C78.2714 32.1087 76.6593 27.8126 76.6611 23.3663H73.1098C74.0388 28.3321 76.9615 32.7015 81.1968 35.4562ZM48.3989 61.5636C42.2476 61.5708 37.263 66.5553 37.2559 72.7067C37.2594 76.8481 39.559 80.6462 43.2275 82.5703C41.8569 80.6802 41.1192 78.4065 41.1192 76.072C41.1255 69.9207 46.11 64.9343 52.2623 64.9272C53.4103 64.9272 54.5109 65.1167 55.5499 65.4431V51.9101C54.4608 51.7554 53.362 51.6759 52.2623 51.6705C52.0692 51.6705 51.8787 51.6812 51.6874 51.6848V62.0795C50.6234 61.7416 49.5147 61.5672 48.3989 61.5636Z" fill="#FF004F"/>
<path d="M91.2391 41.3965V51.6991C84.3645 51.6991 77.9977 49.5005 72.7967 45.7686V72.7075C72.7967 86.1609 61.8531 97.1064 48.3997 97.1064C43.2005 97.1064 38.3796 95.4657 34.417 92.6833C39.0225 97.65 45.4894 100.472 52.2621 100.47C65.7155 100.47 76.661 89.5245 76.661 76.0729V49.1339C82.0336 52.9973 88.4862 55.0725 95.1034 55.0644V41.8051C93.7766 41.8051 92.4864 41.6611 91.2383 41.3938" fill="#FF004F"/>
<path d="M72.7959 72.7067V45.7677C78.1685 49.632 84.6212 51.7063 91.2383 51.6982V41.3965C87.3365 40.5552 83.8129 38.471 81.1959 35.4562C76.9606 32.7015 74.0378 28.3321 73.1088 23.3663H63.4044L63.3838 76.4905C63.1612 82.4398 58.2642 87.2151 52.2613 87.2151C48.6787 87.2115 45.316 85.4823 43.2292 82.5712C39.5608 80.648 37.2603 76.8499 37.2558 72.7076C37.2629 66.5562 42.2475 61.5717 48.3988 61.5645C49.5451 61.5645 50.6457 61.7523 51.6864 62.0804V51.6857C38.4986 51.9951 27.8643 62.81 27.8643 76.072C27.8643 82.4854 30.3561 88.3238 34.4162 92.6842C38.5093 95.5659 43.3937 97.11 48.3988 97.1055C61.8531 97.1055 72.7959 86.1601 72.7959 72.7067Z" fill="black"/>
</svg>
