<svg width="32" height="32" viewBox="0 0 32 32" fill="none" xmlns="http://www.w3.org/2000/svg">
<rect x="3.79102" y="3.77051" width="24.459" height="24.459" rx="4.59375" fill="url(#paint0_linear_15956_30564)"/>
<rect x="3.79102" y="3.77051" width="24.459" height="24.459" rx="4.59375" fill="url(#paint1_linear_15956_30564)"/>
<rect x="3.79102" y="3.77051" width="24.459" height="24.459" rx="4.59375" fill="url(#paint2_linear_15956_30564)"/>
<rect x="3.79102" y="3.77051" width="24.459" height="24.459" rx="4.59375" fill="url(#paint3_radial_15956_30564)"/>
<rect x="3.79102" y="3.77051" width="24.459" height="24.459" rx="4.59375" fill="url(#paint4_linear_15956_30564)"/>
<rect x="3.79102" y="3.77051" width="24.459" height="24.459" rx="4.59375" fill="url(#paint5_radial_15956_30564)"/>
<path d="M28.25 9.89551H3.79102V8.36426C3.79102 5.8272 5.84772 3.77051 8.38477 3.77051H23.6562C26.1933 3.77051 28.25 5.8272 28.25 8.36426V9.89551Z" fill="url(#paint6_linear_15956_30564)"/>
<path d="M28.25 9.89551H3.79102V8.36426C3.79102 5.8272 5.84772 3.77051 8.38477 3.77051H23.6562C26.1933 3.77051 28.25 5.8272 28.25 8.36426V9.89551Z" fill="url(#paint7_radial_15956_30564)"/>
<path d="M28.25 9.89551H3.79102V8.36426C3.79102 5.8272 5.84772 3.77051 8.38477 3.77051H23.6562C26.1933 3.77051 28.25 5.8272 28.25 8.36426V9.89551Z" fill="url(#paint8_radial_15956_30564)"/>
<path d="M28.25 9.89551H3.79102V8.36426C3.79102 5.8272 5.84772 3.77051 8.38477 3.77051H23.6562C26.1933 3.77051 28.25 5.8272 28.25 8.36426V9.89551Z" fill="url(#paint9_linear_15956_30564)"/>
<path d="M28.25 9.89551H3.79102V8.36426C3.79102 5.8272 5.84772 3.77051 8.38477 3.77051H23.6562C26.1933 3.77051 28.25 5.8272 28.25 8.36426V9.89551Z" fill="url(#paint10_linear_15956_30564)"/>
<path d="M28.25 9.89551H3.79102V8.36426C3.79102 5.8272 5.84772 3.77051 8.38477 3.77051H23.6562C26.1933 3.77051 28.25 5.8272 28.25 8.36426V9.89551Z" fill="url(#paint11_linear_15956_30564)"/>
<path d="M28.25 9.89551H3.79102V8.36426C3.79102 5.8272 5.84772 3.77051 8.38477 3.77051H23.6562C26.1933 3.77051 28.25 5.8272 28.25 8.36426V9.89551Z" fill="url(#paint12_radial_15956_30564)"/>
<rect x="20.5186" y="17.2305" width="2.7002" height="2.73438" rx="0.0875" fill="#2F99F4"/>
<rect x="20.5186" y="17.2305" width="2.7002" height="2.73438" rx="0.0875" fill="url(#paint13_linear_15956_30564)"/>
<rect x="20.5186" y="17.2305" width="2.7002" height="2.73438" rx="0.0875" fill="url(#paint14_linear_15956_30564)"/>
<rect x="20.5186" y="17.2305" width="2.7002" height="2.73438" rx="0.0875" fill="url(#paint15_linear_15956_30564)"/>
<rect x="20.5186" y="17.2305" width="2.7002" height="2.73438" rx="0.0875" fill="url(#paint16_linear_15956_30564)"/>
<rect x="20.5186" y="22.002" width="2.7002" height="2.73438" rx="0.0875" fill="#A59CB4"/>
<rect x="20.5186" y="22.002" width="2.7002" height="2.73438" rx="0.0875" fill="url(#paint17_linear_15956_30564)"/>
<rect x="20.5186" y="22.002" width="2.7002" height="2.73438" rx="0.0875" fill="url(#paint18_linear_15956_30564)"/>
<rect x="20.5186" y="22.002" width="2.7002" height="2.73438" rx="0.0875" fill="url(#paint19_linear_15956_30564)"/>
<rect x="20.5186" y="22.002" width="2.7002" height="2.73438" rx="0.0875" fill="url(#paint20_linear_15956_30564)"/>
<rect x="14.6593" y="22.002" width="2.7002" height="2.73438" rx="0.0875" fill="#A59CB4"/>
<rect x="14.6593" y="22.002" width="2.7002" height="2.73438" rx="0.0875" fill="url(#paint21_linear_15956_30564)"/>
<rect x="14.6593" y="22.002" width="2.7002" height="2.73438" rx="0.0875" fill="url(#paint22_linear_15956_30564)"/>
<rect x="14.6593" y="22.002" width="2.7002" height="2.73438" rx="0.0875" fill="url(#paint23_linear_15956_30564)"/>
<rect x="14.6593" y="22.002" width="2.7002" height="2.73438" rx="0.0875" fill="url(#paint24_linear_15956_30564)"/>
<rect x="8.80054" y="22.002" width="2.7002" height="2.73438" rx="0.0875" fill="#A59CB4"/>
<rect x="8.80054" y="22.002" width="2.7002" height="2.73438" rx="0.0875" fill="url(#paint25_linear_15956_30564)"/>
<rect x="8.80054" y="22.002" width="2.7002" height="2.73438" rx="0.0875" fill="url(#paint26_linear_15956_30564)"/>
<rect x="8.80054" y="22.002" width="2.7002" height="2.73438" rx="0.0875" fill="url(#paint27_linear_15956_30564)"/>
<rect x="8.80054" y="22.002" width="2.7002" height="2.73438" rx="0.0875" fill="url(#paint28_linear_15956_30564)"/>
<rect x="8.80054" y="17.2305" width="2.7002" height="2.73438" rx="0.0875" fill="#A59CB4"/>
<rect x="8.80054" y="17.2305" width="2.7002" height="2.73438" rx="0.0875" fill="url(#paint29_linear_15956_30564)"/>
<rect x="8.80054" y="17.2305" width="2.7002" height="2.73438" rx="0.0875" fill="url(#paint30_linear_15956_30564)"/>
<rect x="8.80054" y="17.2305" width="2.7002" height="2.73438" rx="0.0875" fill="url(#paint31_linear_15956_30564)"/>
<rect x="8.80054" y="17.2305" width="2.7002" height="2.73438" rx="0.0875" fill="url(#paint32_linear_15956_30564)"/>
<rect x="8.80054" y="12.4585" width="2.7002" height="2.73438" rx="0.0875" fill="#A59CB4"/>
<rect x="8.80054" y="12.4585" width="2.7002" height="2.73438" rx="0.0875" fill="url(#paint33_linear_15956_30564)"/>
<rect x="8.80054" y="12.4585" width="2.7002" height="2.73438" rx="0.0875" fill="url(#paint34_linear_15956_30564)"/>
<rect x="8.80054" y="12.4585" width="2.7002" height="2.73438" rx="0.0875" fill="url(#paint35_linear_15956_30564)"/>
<rect x="8.80054" y="12.4585" width="2.7002" height="2.73438" rx="0.0875" fill="url(#paint36_linear_15956_30564)"/>
<rect x="14.6593" y="12.4585" width="2.7002" height="2.73438" rx="0.0875" fill="#A59CB4"/>
<rect x="14.6593" y="12.4585" width="2.7002" height="2.73438" rx="0.0875" fill="url(#paint37_linear_15956_30564)"/>
<rect x="14.6593" y="12.4585" width="2.7002" height="2.73438" rx="0.0875" fill="url(#paint38_linear_15956_30564)"/>
<rect x="14.6593" y="12.4585" width="2.7002" height="2.73438" rx="0.0875" fill="url(#paint39_linear_15956_30564)"/>
<rect x="14.6593" y="12.4585" width="2.7002" height="2.73438" rx="0.0875" fill="url(#paint40_linear_15956_30564)"/>
<rect x="14.6593" y="17.2305" width="2.7002" height="2.73438" rx="0.0875" fill="#A59CB4"/>
<rect x="14.6593" y="17.2305" width="2.7002" height="2.73438" rx="0.0875" fill="url(#paint41_linear_15956_30564)"/>
<rect x="14.6593" y="17.2305" width="2.7002" height="2.73438" rx="0.0875" fill="url(#paint42_linear_15956_30564)"/>
<rect x="14.6593" y="17.2305" width="2.7002" height="2.73438" rx="0.0875" fill="url(#paint43_linear_15956_30564)"/>
<rect x="14.6593" y="17.2305" width="2.7002" height="2.73438" rx="0.0875" fill="url(#paint44_linear_15956_30564)"/>
<rect x="20.5186" y="12.4585" width="2.7002" height="2.73438" rx="0.0875" fill="#A59CB4"/>
<rect x="20.5186" y="12.4585" width="2.7002" height="2.73438" rx="0.0875" fill="url(#paint45_linear_15956_30564)"/>
<rect x="20.5186" y="12.4585" width="2.7002" height="2.73438" rx="0.0875" fill="url(#paint46_linear_15956_30564)"/>
<rect x="20.5186" y="12.4585" width="2.7002" height="2.73438" rx="0.0875" fill="url(#paint47_linear_15956_30564)"/>
<rect x="20.5186" y="12.4585" width="2.7002" height="2.73438" rx="0.0875" fill="url(#paint48_linear_15956_30564)"/>
<defs>
<linearGradient id="paint0_linear_15956_30564" x1="6.51172" y1="17.415" x2="26.582" y2="17.415" gradientUnits="userSpaceOnUse">
<stop stop-color="#E1D4EF"/>
<stop offset="1" stop-color="#E1D3EF"/>
</linearGradient>
<linearGradient id="paint1_linear_15956_30564" x1="28.5338" y1="16.3914" x2="26.3478" y2="16.3914" gradientUnits="userSpaceOnUse">
<stop stop-color="#F5F0FA"/>
<stop offset="0.875528" stop-color="#F5F0FA" stop-opacity="0.0608776"/>
<stop offset="1" stop-color="#F5F0FA" stop-opacity="0"/>
</linearGradient>
<linearGradient id="paint2_linear_15956_30564" x1="3.37617" y1="17.0929" x2="5.51793" y2="17.0929" gradientUnits="userSpaceOnUse">
<stop offset="0.109436" stop-color="#B9B0C2"/>
<stop offset="0.850689" stop-color="#B9B0C2" stop-opacity="0.0799847"/>
<stop offset="1" stop-color="#B9B0C2" stop-opacity="0"/>
</linearGradient>
<radialGradient id="paint3_radial_15956_30564" cx="0" cy="0" r="1" gradientUnits="userSpaceOnUse" gradientTransform="translate(4.5883 27.3068) rotate(-49.8941) scale(3.74651 16.5989)">
<stop offset="0.109436" stop-color="#B9B0C2"/>
<stop offset="0.850689" stop-color="#B9B0C2" stop-opacity="0.0799847"/>
<stop offset="1" stop-color="#B9B0C2" stop-opacity="0"/>
</radialGradient>
<linearGradient id="paint4_linear_15956_30564" x1="16.0205" y1="29.0689" x2="16.0205" y2="26.18" gradientUnits="userSpaceOnUse">
<stop offset="0.227725" stop-color="#CF9AF8"/>
<stop offset="0.837495" stop-color="#CF9AF8" stop-opacity="0.131312"/>
<stop offset="1" stop-color="#CF9AF8" stop-opacity="0"/>
</linearGradient>
<radialGradient id="paint5_radial_15956_30564" cx="0" cy="0" r="1" gradientUnits="userSpaceOnUse" gradientTransform="translate(27.2117 27.2491) rotate(-135.462) scale(2.62643 6.88724)">
<stop stop-color="#F5F0FA"/>
<stop offset="0.597516" stop-color="#F5F0FA" stop-opacity="0.263308"/>
<stop offset="0.812853" stop-color="#F5F0FA" stop-opacity="0.0608776"/>
<stop offset="1" stop-color="#F5F0FA" stop-opacity="0"/>
</radialGradient>
<linearGradient id="paint6_linear_15956_30564" x1="3.50391" y1="8.50098" x2="26.418" y2="8.50098" gradientUnits="userSpaceOnUse">
<stop stop-color="#377AF3"/>
<stop offset="0.794195" stop-color="#2EA6FF"/>
</linearGradient>
<radialGradient id="paint7_radial_15956_30564" cx="0" cy="0" r="1" gradientUnits="userSpaceOnUse" gradientTransform="translate(22.7965 9.00789) rotate(-51.7247) scale(5.57228)">
<stop stop-color="#55D9FF" stop-opacity="0"/>
<stop offset="0.537712" stop-color="#55D9FF" stop-opacity="0.129121"/>
<stop offset="0.600109" stop-color="#55D9FF" stop-opacity="0.242949"/>
<stop offset="0.777418" stop-color="#55D9FF" stop-opacity="0.823821"/>
<stop offset="0.806938" stop-color="#55D9FF" stop-opacity="0.911572"/>
<stop offset="0.837741" stop-color="#55D9FF"/>
<stop offset="0.877133" stop-color="#55D9FF" stop-opacity="0.869306"/>
<stop offset="0.910017" stop-color="#55D9FF" stop-opacity="0.747082"/>
<stop offset="1" stop-color="#55D9FF" stop-opacity="0"/>
</radialGradient>
<radialGradient id="paint8_radial_15956_30564" cx="0" cy="0" r="1" gradientUnits="userSpaceOnUse" gradientTransform="translate(16.3875 7.06234) rotate(-26.307) scale(8.40265 19.3921)">
<stop offset="0.368465" stop-color="#2EA6FF"/>
<stop offset="0.656299" stop-color="#2EA6FF" stop-opacity="0.82"/>
<stop offset="0.775374" stop-color="#2EA6FF" stop-opacity="0.42869"/>
<stop offset="0.858234" stop-color="#2EA6FF" stop-opacity="0.187929"/>
<stop offset="1" stop-color="#2EA6FF" stop-opacity="0"/>
</radialGradient>
<linearGradient id="paint9_linear_15956_30564" x1="20.5664" y1="10.6338" x2="20.5664" y2="9.32129" gradientUnits="userSpaceOnUse">
<stop stop-color="#3867D5"/>
<stop offset="1" stop-color="#3867D5" stop-opacity="0"/>
</linearGradient>
<linearGradient id="paint10_linear_15956_30564" x1="3.50391" y1="8.50098" x2="21.4922" y2="8.50098" gradientUnits="userSpaceOnUse">
<stop offset="0.00237983" stop-color="#377AF3"/>
<stop offset="1" stop-color="#2EA6FF" stop-opacity="0.26"/>
</linearGradient>
<linearGradient id="paint11_linear_15956_30564" x1="16.0205" y1="3.77051" x2="16.0205" y2="5.49316" gradientUnits="userSpaceOnUse">
<stop stop-color="#2D9EEE"/>
<stop offset="0.647699" stop-color="#2D9EEE" stop-opacity="0.151406"/>
<stop offset="1" stop-color="#2D9EEE" stop-opacity="0"/>
</linearGradient>
<radialGradient id="paint12_radial_15956_30564" cx="0" cy="0" r="1" gradientUnits="userSpaceOnUse" gradientTransform="translate(21.0375 9.89551) rotate(-169.931) scale(17.5163 9.9529)">
<stop offset="0.758836" stop-color="#3955E1" stop-opacity="0"/>
<stop offset="0.777132" stop-color="#3954DE" stop-opacity="0.0471627"/>
<stop offset="0.986769" stop-color="#3D41A8"/>
</radialGradient>
<linearGradient id="paint13_linear_15956_30564" x1="20.5186" y1="18.6563" x2="20.6526" y2="18.6563" gradientUnits="userSpaceOnUse">
<stop stop-color="#297CE5"/>
<stop offset="1" stop-color="#297CE5" stop-opacity="0"/>
</linearGradient>
<linearGradient id="paint14_linear_15956_30564" x1="22.0249" y1="19.9648" x2="22.0249" y2="19.7966" gradientUnits="userSpaceOnUse">
<stop stop-color="#297CE5"/>
<stop offset="1" stop-color="#297CE5" stop-opacity="0"/>
</linearGradient>
<linearGradient id="paint15_linear_15956_30564" x1="21.8687" y1="17.2305" x2="21.8687" y2="17.4185" gradientUnits="userSpaceOnUse">
<stop stop-color="#42ACFF"/>
<stop offset="1" stop-color="#42ACFF" stop-opacity="0"/>
</linearGradient>
<linearGradient id="paint16_linear_15956_30564" x1="23.2188" y1="18.5977" x2="23.0622" y2="18.5977" gradientUnits="userSpaceOnUse">
<stop stop-color="#42ACFF"/>
<stop offset="1" stop-color="#42ACFF" stop-opacity="0"/>
</linearGradient>
<linearGradient id="paint17_linear_15956_30564" x1="20.5186" y1="23.6207" x2="20.647" y2="23.6207" gradientUnits="userSpaceOnUse">
<stop stop-color="#9386A5"/>
<stop offset="1" stop-color="#9386A5" stop-opacity="0"/>
</linearGradient>
<linearGradient id="paint18_linear_15956_30564" x1="21.7626" y1="24.7363" x2="21.7626" y2="24.5882" gradientUnits="userSpaceOnUse">
<stop stop-color="#9386A5"/>
<stop offset="1" stop-color="#9386A5" stop-opacity="0"/>
</linearGradient>
<linearGradient id="paint19_linear_15956_30564" x1="21.8687" y1="22.002" x2="21.8687" y2="22.1454" gradientUnits="userSpaceOnUse">
<stop stop-color="#BAB4C5"/>
<stop offset="1" stop-color="#BAB4C5" stop-opacity="0"/>
</linearGradient>
<linearGradient id="paint20_linear_15956_30564" x1="23.2188" y1="23.544" x2="23.0801" y2="23.544" gradientUnits="userSpaceOnUse">
<stop stop-color="#BAB4C5"/>
<stop offset="1" stop-color="#BAB4C5" stop-opacity="0"/>
</linearGradient>
<linearGradient id="paint21_linear_15956_30564" x1="14.6593" y1="23.6207" x2="14.7878" y2="23.6207" gradientUnits="userSpaceOnUse">
<stop stop-color="#9386A5"/>
<stop offset="1" stop-color="#9386A5" stop-opacity="0"/>
</linearGradient>
<linearGradient id="paint22_linear_15956_30564" x1="15.9034" y1="24.7363" x2="15.9034" y2="24.5882" gradientUnits="userSpaceOnUse">
<stop stop-color="#9386A5"/>
<stop offset="1" stop-color="#9386A5" stop-opacity="0"/>
</linearGradient>
<linearGradient id="paint23_linear_15956_30564" x1="16.0094" y1="22.002" x2="16.0094" y2="22.1454" gradientUnits="userSpaceOnUse">
<stop stop-color="#BAB4C5"/>
<stop offset="1" stop-color="#BAB4C5" stop-opacity="0"/>
</linearGradient>
<linearGradient id="paint24_linear_15956_30564" x1="17.3595" y1="23.544" x2="17.2209" y2="23.544" gradientUnits="userSpaceOnUse">
<stop stop-color="#BAB4C5"/>
<stop offset="1" stop-color="#BAB4C5" stop-opacity="0"/>
</linearGradient>
<linearGradient id="paint25_linear_15956_30564" x1="8.80054" y1="23.6207" x2="8.92899" y2="23.6207" gradientUnits="userSpaceOnUse">
<stop stop-color="#9386A5"/>
<stop offset="1" stop-color="#9386A5" stop-opacity="0"/>
</linearGradient>
<linearGradient id="paint26_linear_15956_30564" x1="10.0446" y1="24.7363" x2="10.0446" y2="24.5882" gradientUnits="userSpaceOnUse">
<stop stop-color="#9386A5"/>
<stop offset="1" stop-color="#9386A5" stop-opacity="0"/>
</linearGradient>
<linearGradient id="paint27_linear_15956_30564" x1="10.1506" y1="22.002" x2="10.1506" y2="22.1454" gradientUnits="userSpaceOnUse">
<stop stop-color="#BAB4C5"/>
<stop offset="1" stop-color="#BAB4C5" stop-opacity="0"/>
</linearGradient>
<linearGradient id="paint28_linear_15956_30564" x1="11.5007" y1="23.544" x2="11.3621" y2="23.544" gradientUnits="userSpaceOnUse">
<stop stop-color="#BAB4C5"/>
<stop offset="1" stop-color="#BAB4C5" stop-opacity="0"/>
</linearGradient>
<linearGradient id="paint29_linear_15956_30564" x1="8.80054" y1="18.8492" x2="8.92899" y2="18.8492" gradientUnits="userSpaceOnUse">
<stop stop-color="#9386A5"/>
<stop offset="1" stop-color="#9386A5" stop-opacity="0"/>
</linearGradient>
<linearGradient id="paint30_linear_15956_30564" x1="10.0446" y1="19.9648" x2="10.0446" y2="19.8167" gradientUnits="userSpaceOnUse">
<stop stop-color="#9386A5"/>
<stop offset="1" stop-color="#9386A5" stop-opacity="0"/>
</linearGradient>
<linearGradient id="paint31_linear_15956_30564" x1="10.1506" y1="17.2305" x2="10.1506" y2="17.3739" gradientUnits="userSpaceOnUse">
<stop stop-color="#BAB4C5"/>
<stop offset="1" stop-color="#BAB4C5" stop-opacity="0"/>
</linearGradient>
<linearGradient id="paint32_linear_15956_30564" x1="11.5007" y1="18.7725" x2="11.3621" y2="18.7725" gradientUnits="userSpaceOnUse">
<stop stop-color="#BAB4C5"/>
<stop offset="1" stop-color="#BAB4C5" stop-opacity="0"/>
</linearGradient>
<linearGradient id="paint33_linear_15956_30564" x1="8.80054" y1="14.0773" x2="8.92899" y2="14.0773" gradientUnits="userSpaceOnUse">
<stop stop-color="#9386A5"/>
<stop offset="1" stop-color="#9386A5" stop-opacity="0"/>
</linearGradient>
<linearGradient id="paint34_linear_15956_30564" x1="10.0446" y1="15.1929" x2="10.0446" y2="15.0447" gradientUnits="userSpaceOnUse">
<stop stop-color="#9386A5"/>
<stop offset="1" stop-color="#9386A5" stop-opacity="0"/>
</linearGradient>
<linearGradient id="paint35_linear_15956_30564" x1="10.1506" y1="12.4585" x2="10.1506" y2="12.6019" gradientUnits="userSpaceOnUse">
<stop stop-color="#BAB4C5"/>
<stop offset="1" stop-color="#BAB4C5" stop-opacity="0"/>
</linearGradient>
<linearGradient id="paint36_linear_15956_30564" x1="11.5007" y1="14.0005" x2="11.3621" y2="14.0005" gradientUnits="userSpaceOnUse">
<stop stop-color="#BAB4C5"/>
<stop offset="1" stop-color="#BAB4C5" stop-opacity="0"/>
</linearGradient>
<linearGradient id="paint37_linear_15956_30564" x1="14.6593" y1="14.0773" x2="14.7878" y2="14.0773" gradientUnits="userSpaceOnUse">
<stop stop-color="#9386A5"/>
<stop offset="1" stop-color="#9386A5" stop-opacity="0"/>
</linearGradient>
<linearGradient id="paint38_linear_15956_30564" x1="15.9034" y1="15.1929" x2="15.9034" y2="15.0447" gradientUnits="userSpaceOnUse">
<stop stop-color="#9386A5"/>
<stop offset="1" stop-color="#9386A5" stop-opacity="0"/>
</linearGradient>
<linearGradient id="paint39_linear_15956_30564" x1="16.0094" y1="12.4585" x2="16.0094" y2="12.6019" gradientUnits="userSpaceOnUse">
<stop stop-color="#BAB4C5"/>
<stop offset="1" stop-color="#BAB4C5" stop-opacity="0"/>
</linearGradient>
<linearGradient id="paint40_linear_15956_30564" x1="17.3595" y1="14.0005" x2="17.2209" y2="14.0005" gradientUnits="userSpaceOnUse">
<stop stop-color="#BAB4C5"/>
<stop offset="1" stop-color="#BAB4C5" stop-opacity="0"/>
</linearGradient>
<linearGradient id="paint41_linear_15956_30564" x1="14.6593" y1="18.8492" x2="14.7878" y2="18.8492" gradientUnits="userSpaceOnUse">
<stop stop-color="#9386A5"/>
<stop offset="1" stop-color="#9386A5" stop-opacity="0"/>
</linearGradient>
<linearGradient id="paint42_linear_15956_30564" x1="15.9034" y1="19.9648" x2="15.9034" y2="19.8167" gradientUnits="userSpaceOnUse">
<stop stop-color="#9386A5"/>
<stop offset="1" stop-color="#9386A5" stop-opacity="0"/>
</linearGradient>
<linearGradient id="paint43_linear_15956_30564" x1="16.0094" y1="17.2305" x2="16.0094" y2="17.3739" gradientUnits="userSpaceOnUse">
<stop stop-color="#BAB4C5"/>
<stop offset="1" stop-color="#BAB4C5" stop-opacity="0"/>
</linearGradient>
<linearGradient id="paint44_linear_15956_30564" x1="17.3595" y1="18.7725" x2="17.2209" y2="18.7725" gradientUnits="userSpaceOnUse">
<stop stop-color="#BAB4C5"/>
<stop offset="1" stop-color="#BAB4C5" stop-opacity="0"/>
</linearGradient>
<linearGradient id="paint45_linear_15956_30564" x1="20.5186" y1="14.0773" x2="20.647" y2="14.0773" gradientUnits="userSpaceOnUse">
<stop stop-color="#9386A5"/>
<stop offset="1" stop-color="#9386A5" stop-opacity="0"/>
</linearGradient>
<linearGradient id="paint46_linear_15956_30564" x1="21.7626" y1="15.1929" x2="21.7626" y2="15.0447" gradientUnits="userSpaceOnUse">
<stop stop-color="#9386A5"/>
<stop offset="1" stop-color="#9386A5" stop-opacity="0"/>
</linearGradient>
<linearGradient id="paint47_linear_15956_30564" x1="21.8687" y1="12.4585" x2="21.8687" y2="12.6019" gradientUnits="userSpaceOnUse">
<stop stop-color="#BAB4C5"/>
<stop offset="1" stop-color="#BAB4C5" stop-opacity="0"/>
</linearGradient>
<linearGradient id="paint48_linear_15956_30564" x1="23.2188" y1="14.0005" x2="23.0801" y2="14.0005" gradientUnits="userSpaceOnUse">
<stop stop-color="#BAB4C5"/>
<stop offset="1" stop-color="#BAB4C5" stop-opacity="0"/>
</linearGradient>
</defs>
</svg>
