<svg width="33" height="32" viewBox="0 0 33 32" fill="none" xmlns="http://www.w3.org/2000/svg">
<path fill-rule="evenodd" clip-rule="evenodd" d="M17.7413 2.9173C19.2325 1.4261 21.6634 1.41328 23.1585 2.90841C24.6538 4.40366 24.6407 6.83456 23.1496 8.32564C22.9166 8.55865 22.6293 8.75467 22.3425 8.91789H28.3696C29.6201 8.91789 30.6338 9.93163 30.6338 11.1821V15.8367C30.6338 17.0872 29.6201 18.1009 28.3696 18.1009H28.3066V27.9385C28.3066 29.189 27.2928 30.2027 26.0423 30.2027H6.9587C5.7082 30.2027 4.69446 29.189 4.69446 27.9385V18.1009H4.63143C3.38092 18.1009 2.36719 17.0872 2.36719 15.8367V11.1821C2.36719 9.93162 3.38092 8.91789 4.63143 8.91789H9.97033C9.68466 8.75432 9.39926 8.55837 9.16659 8.3257C7.6754 6.83451 7.66258 4.40361 9.15771 2.90848C10.653 1.41323 13.0839 1.42628 14.5749 2.91736C14.9382 3.28067 15.2116 3.77608 15.411 4.1954C15.6249 4.64547 15.8183 5.14976 15.9841 5.63054C16.0444 5.8053 16.1021 5.98001 16.1568 6.15159C16.2106 5.98202 16.2674 5.80937 16.3268 5.63658C16.492 5.15608 16.6852 4.65145 16.9002 4.19994C17.1013 3.77775 17.376 3.28254 17.7413 2.9173ZM13.7947 7.54669C13.6988 7.21861 13.5866 6.85783 13.4632 6.50008C13.3149 6.07 13.1581 5.66735 13.0026 5.34038C12.9252 5.17758 12.8545 5.04699 12.7927 4.94801C12.7622 4.89924 12.7369 4.86289 12.7172 4.83709C12.6988 4.81282 12.6891 4.80278 12.6891 4.80277C12.2304 4.34409 11.4882 4.34923 11.0433 4.7941C10.5985 5.23895 10.5935 5.98138 11.0522 6.44009C11.0527 6.44059 11.0638 6.45133 11.09 6.47128C11.1166 6.49158 11.1535 6.51742 11.2026 6.5482C11.3023 6.61065 11.4332 6.68173 11.5958 6.75918C11.9225 6.91479 12.3241 7.07096 12.7528 7.21836C13.1089 7.34078 13.4679 7.45175 13.7947 7.54669ZM15.3999 11.5846H5.03385V15.4343H15.3999V11.5846ZM15.3999 18.1009H7.36113V27.5361H15.3999V18.1009ZM18.0666 27.5361V18.1009H25.6399V27.5361H18.0666ZM18.0666 15.4343V11.5846H27.9672V15.4343H18.0666ZM18.5203 7.54535C18.8484 7.44945 19.2092 7.33733 19.5669 7.21393C19.997 7.06559 20.3996 6.90878 20.7266 6.75333C20.8894 6.67594 21.02 6.60519 21.119 6.54338C21.1678 6.51292 21.2041 6.48757 21.2299 6.46795C21.2562 6.44792 21.2658 6.43823 21.264 6.44002C21.7227 5.98134 21.7178 5.2389 21.2729 4.79403C20.828 4.34918 20.0856 4.34421 19.6269 4.80291C19.6271 4.80268 19.6164 4.81357 19.5957 4.84066C19.5754 4.86726 19.5496 4.90423 19.5188 4.95334C19.4563 5.053 19.3853 5.18388 19.3078 5.34651C19.1522 5.67325 18.996 6.07477 18.8486 6.50353C18.7262 6.85962 18.6152 7.21857 18.5203 7.54535Z" fill="url(#paint0_linear_619_61970)"/>
<defs>
<linearGradient id="paint0_linear_619_61970" x1="25.575" y1="6.80335" x2="12.6252" y2="27.907" gradientUnits="userSpaceOnUse">
<stop stop-color="#FAEAB3"/>
<stop offset="1" stop-color="#FCB242"/>
</linearGradient>
</defs>
</svg>
