<svg width="24" height="24" viewBox="0 0 24 24" fill="none" xmlns="http://www.w3.org/2000/svg">
<path fill-rule="evenodd" clip-rule="evenodd" d="M4.65037 8.35791C5.70714 6.22967 7.66122 4.62572 10.0177 4.04097C9.86016 4.26392 9.69834 4.50984 9.53681 4.77906C8.98437 5.69978 8.43752 6.88957 8.07523 8.35791H4.65037ZM11.999 4.11882C11.7011 4.44757 11.3061 4.94009 10.9088 5.60226C10.4799 6.31706 10.0465 7.23231 9.72982 8.35791H14.2682C13.9515 7.23231 13.5181 6.31706 13.0893 5.60226C12.6919 4.94009 12.297 4.44757 11.999 4.11882ZM14.6069 9.95791H9.39117C9.29921 10.5886 9.24648 11.2688 9.24648 11.9998C9.24648 12.7309 9.29923 13.4113 9.39123 14.0421H14.6068C14.6988 13.4113 14.7516 12.7309 14.7516 11.9998C14.7516 11.2688 14.6988 10.5886 14.6069 9.95791ZM16.222 14.0421C16.305 13.4033 16.3516 12.7227 16.3516 11.9998C16.3516 11.2771 16.305 10.5966 16.222 9.95791H19.9429C20.1103 10.6107 20.1992 11.2949 20.1992 11.9999C20.1992 12.7049 20.1102 13.3892 19.9429 14.0421H16.222ZM14.2681 15.6421H9.72992C10.0466 16.7675 10.48 17.6826 10.9088 18.3974C11.3061 19.0595 11.7011 19.5521 11.999 19.8808C12.297 19.5521 12.6919 19.0595 13.0893 18.3974C13.5181 17.6826 13.9514 16.7675 14.2681 15.6421ZM13.9801 19.9589C14.1378 19.7359 14.2996 19.4899 14.4612 19.2206C15.0136 18.2999 15.5604 17.1102 15.9227 15.6421H19.348C18.2911 17.7704 16.3368 19.3743 13.9801 19.9589ZM15.9228 8.35791C15.5605 6.88957 15.0137 5.69978 14.4612 4.77906C14.2997 4.5098 14.1378 4.26383 13.9802 4.04085C16.337 4.62551 18.2912 6.22952 19.3481 8.35791H15.9228ZM4.0555 9.95791H7.77605C7.69307 10.5966 7.64648 11.2771 7.64648 11.9998C7.64648 12.7227 7.69309 13.4033 7.77609 14.0421H4.05556C3.8882 13.3892 3.79922 12.7049 3.79922 11.9999C3.79922 11.2949 3.88818 10.6107 4.0555 9.95791ZM4.65048 15.6421H8.07532C8.43761 17.1102 8.98442 18.2999 9.53681 19.2206C9.69837 19.4898 9.86024 19.7358 10.0178 19.9588C7.66136 19.3741 5.7073 17.7702 4.65048 15.6421ZM11.9992 2.19995C6.58684 2.19995 2.19922 6.58752 2.19922 11.9999C2.19922 17.4122 6.58684 21.7998 11.9992 21.7998C17.4116 21.7998 21.7992 17.4122 21.7992 11.9999C21.7992 6.58752 17.4116 2.19995 11.9992 2.19995Z" fill="white"/>
</svg>
