<svg width="140" height="140" viewBox="0 0 140 140" fill="none" xmlns="http://www.w3.org/2000/svg">
<path d="M60 120C93.1371 120 120 93.1371 120 60C120 26.8629 93.1371 0 60 0C26.8629 0 0 26.8629 0 60C0 93.1371 26.8629 120 60 120Z" fill="url(#paint0_linear_302_4035)"/>
<path d="M60.0023 28C51.3116 28 50.2209 28.038 46.8075 28.1933C43.4008 28.3493 41.0755 28.8887 39.0408 29.68C36.9361 30.4973 35.1507 31.5907 33.3721 33.37C31.592 35.1487 30.4987 36.934 29.6787 39.038C28.8853 41.0733 28.3453 43.3993 28.192 46.8047C28.04 50.218 28 51.3093 28 60C28 68.6907 28.0387 69.778 28.1933 73.1913C28.35 76.598 28.8893 78.9233 29.68 80.958C30.498 83.0627 31.5914 84.848 33.3707 86.6267C35.1487 88.4067 36.9341 89.5027 39.0374 90.32C41.0735 91.1113 43.3995 91.6507 46.8055 91.8067C50.2189 91.962 51.3089 92 59.999 92C68.6904 92 69.7778 91.962 73.1911 91.8067C76.5978 91.6507 78.9259 91.1113 80.9619 90.32C83.0659 89.5027 84.8486 88.4067 86.6266 86.6267C88.4066 84.848 89.5 83.0627 90.32 80.9587C91.1067 78.9233 91.6467 76.5973 91.8067 73.192C91.96 69.7787 92 68.6907 92 60C92 51.3093 91.96 50.2187 91.8067 46.8053C91.6467 43.3987 91.1067 41.0733 90.32 39.0387C89.5 36.934 88.4066 35.1487 86.6266 33.37C84.8466 31.59 83.0666 30.4967 80.9599 29.68C78.9199 28.8887 76.5932 28.3493 73.1865 28.1933C69.7731 28.038 68.6864 28 59.993 28H60.0023ZM57.1316 33.7667C57.9836 33.7653 58.9343 33.7667 60.0023 33.7667C68.5464 33.7667 69.5591 33.7973 72.9331 33.9507C76.0532 34.0933 77.7465 34.6147 78.8745 35.0527C80.3679 35.6327 81.4326 36.326 82.5519 37.446C83.6719 38.566 84.3653 39.6327 84.9466 41.126C85.3846 42.2527 85.9066 43.946 86.0486 47.066C86.2019 50.4393 86.2353 51.4527 86.2353 59.9927C86.2353 68.5327 86.2019 69.546 86.0486 72.9193C85.9059 76.0393 85.3846 77.7327 84.9466 78.8593C84.3666 80.3527 83.6719 81.416 82.5519 82.5353C81.4319 83.6553 80.3685 84.3487 78.8745 84.9287C77.7478 85.3687 76.0532 85.8887 72.9331 86.0313C69.5598 86.1847 68.5464 86.218 60.0023 86.218C51.4576 86.218 50.4449 86.1847 47.0715 86.0313C43.9515 85.8873 42.2581 85.366 41.1295 84.928C39.6361 84.348 38.5694 83.6547 37.4494 82.5347C36.3294 81.4147 35.6361 80.3507 35.0547 78.8567C34.6167 77.73 34.0947 76.0367 33.9527 72.9167C33.7994 69.5433 33.7687 68.53 33.7687 59.9847C33.7687 51.4393 33.7994 50.4313 33.9527 47.058C34.0954 43.938 34.6167 42.2447 35.0547 41.1167C35.6347 39.6233 36.3294 38.5567 37.4494 37.4367C38.5694 36.3167 39.6361 35.6233 41.1295 35.042C42.2575 34.602 43.9515 34.082 47.0715 33.9387C50.0236 33.8053 51.1676 33.7653 57.1316 33.7587V33.7667ZM77.0838 39.08C76.3243 39.08 75.5818 39.3052 74.9503 39.7272C74.3188 40.1493 73.8266 40.7491 73.536 41.4508C73.2454 42.1525 73.1694 42.9247 73.3177 43.6696C73.466 44.4146 73.8318 45.0988 74.369 45.6358C74.9062 46.1727 75.5905 46.5384 76.3355 46.6864C77.0805 46.8344 77.8526 46.7582 78.5543 46.4673C79.2559 46.1765 79.8556 45.6841 80.2774 45.0524C80.6992 44.4208 80.9241 43.6782 80.9239 42.9187C80.9239 40.7987 79.2039 39.0787 77.0838 39.0787V39.08ZM60.0023 43.5667C50.9269 43.5667 43.5688 50.9247 43.5688 60C43.5688 69.0753 50.9269 76.43 60.0023 76.43C69.0778 76.43 76.4338 69.0753 76.4338 60C76.4338 50.9247 69.0771 43.5667 60.0017 43.5667H60.0023ZM60.0023 49.3333C65.8931 49.3333 70.6691 54.1087 70.6691 60C70.6691 65.8907 65.8931 70.6667 60.0023 70.6667C54.1109 70.6667 49.3356 65.8907 49.3356 60C49.3356 54.1087 54.1109 49.3333 60.0023 49.3333Z" fill="white"/>
<defs>
<linearGradient id="paint0_linear_302_4035" x1="-10.1597" y1="143.817" x2="119.797" y2="21.0919" gradientUnits="userSpaceOnUse">
<stop stop-color="#FFD521"/>
<stop offset="0.0551048" stop-color="#FFD020"/>
<stop offset="0.1241" stop-color="#FEC01E"/>
<stop offset="0.2004" stop-color="#FCA71B"/>
<stop offset="0.2821" stop-color="#FA8316"/>
<stop offset="0.3681" stop-color="#F85510"/>
<stop offset="0.4563" stop-color="#F51E09"/>
<stop offset="0.5" stop-color="#F30005"/>
<stop offset="0.5035" stop-color="#F20007"/>
<stop offset="0.5966" stop-color="#E1003B"/>
<stop offset="0.6879" stop-color="#D30067"/>
<stop offset="0.7757" stop-color="#C70088"/>
<stop offset="0.8589" stop-color="#BF00A0"/>
<stop offset="0.9357" stop-color="#BB00AF"/>
<stop offset="1" stop-color="#B900B4"/>
</linearGradient>
</defs>
</svg>
