<svg width="26" height="26" viewBox="0 0 26 26" fill="none" xmlns="http://www.w3.org/2000/svg">
<g filter="url(#filter0_i_24015_22357)">
<path d="M13 25C19.6274 25 25 19.6274 25 13C25 6.37259 19.6274 1 13 1C6.37258 1 1 6.37259 1 13C1 19.6274 6.37258 25 13 25Z" fill="url(#paint0_linear_24015_22357)"/>
</g>
<path fill-rule="evenodd" clip-rule="evenodd" d="M13 1C19.6279 1 25 6.37335 25 13C25 19.6279 19.6267 25 13 25C6.37215 25 1 19.6267 1 13C1 6.37215 6.37335 1 13 1ZM13 3.14766C18.4406 3.14766 22.8523 7.55823 22.8523 13C22.8523 18.4406 18.4418 22.8523 13 22.8523C7.55942 22.8523 3.14766 18.4418 3.14766 13C3.14766 7.55943 7.55822 3.14766 13 3.14766Z" fill="url(#paint1_linear_24015_22357)" stroke="url(#paint2_linear_24015_22357)" stroke-width="0.183418" stroke-miterlimit="22.9256"/>
<g filter="url(#filter1_di_24015_22357)">
<path d="M13.2509 6.89062C12.8645 6.89062 12.5333 7.22677 12.5333 7.61893C12.5333 8.03911 12.8187 8.2632 13.2233 8.2632H14.1617C14.1617 8.2632 14.8793 8.2632 14.8793 8.93548C14.8793 9.60776 14.1617 9.60776 14.1617 9.60776H8.53113C8.14472 9.60776 7.81351 9.9439 7.81351 10.3361C7.81351 10.7282 8.14472 11.0644 8.53113 11.0644H12.4505C12.4505 11.0644 13.1681 11.0644 13.1681 11.7367C13.1681 12.4089 12.4505 12.4089 12.4505 12.4089H9.38676C9.00035 12.4089 8.66914 12.7451 8.66914 13.1372C8.66914 13.5294 9.00035 13.8655 9.38676 13.8655H12.4781C12.4781 13.8655 13.1957 13.8655 13.1957 14.5378C13.1957 15.2101 12.4781 15.2101 12.4781 15.2101H12.2573C11.8708 15.2101 11.5396 15.5462 11.5396 15.9384C11.5396 16.3306 11.8708 16.6667 12.2573 16.6667H14.1893C14.1893 16.6667 14.9069 16.6667 14.9069 17.339C14.9069 18.0113 14.1893 18.0113 14.1893 18.0113H10.1044C9.71797 18.0113 9.38676 18.3474 9.38676 18.7396C9.38676 19.1317 9.71797 19.4679 10.1044 19.4679H15.7074C16.3146 19.4679 16.839 19.1598 17.1426 18.6555C17.598 17.8852 18.0466 17.1149 18.4951 16.3446C18.9436 15.5742 19.3921 14.8039 19.8475 14.0336C20.1511 13.5014 20.1511 12.8571 19.8475 12.3249C19.3921 11.5546 18.9436 10.7843 18.4951 10.014C18.0466 9.24367 17.598 8.47329 17.1426 7.70296C16.839 7.19875 16.287 6.89062 15.7074 6.89062H13.2509Z" fill="url(#paint3_linear_24015_22357)"/>
<path d="M9.38672 7.61893C9.38672 7.22677 9.71794 6.89062 10.1043 6.89062H11.098C11.4844 6.89062 11.8156 7.22677 11.8156 7.61893C11.8156 8.01109 11.4844 8.34723 11.098 8.34723H10.1043C9.71794 8.34723 9.38672 8.01109 9.38672 7.61893Z" fill="url(#paint4_linear_24015_22357)"/>
<path d="M6.24023 13.1933C6.24023 12.8011 6.57145 12.465 6.95786 12.465H7.23387C7.62028 12.465 7.95149 12.8011 7.95149 13.1933C7.95149 13.5855 7.62028 13.9216 7.23387 13.9216H6.95786C6.57145 13.9216 6.24023 13.5855 6.24023 13.1933Z" fill="url(#paint5_linear_24015_22357)"/>
<path d="M8.53113 15.2381C8.14472 15.2381 7.81351 15.5743 7.81351 15.9664C7.81351 16.3866 8.14472 16.7228 8.53113 16.6947H10.1044C10.4908 16.6947 10.822 16.3586 10.822 15.9664C10.822 15.5743 10.4908 15.2381 10.1044 15.2381H8.53113Z" fill="url(#paint6_linear_24015_22357)"/>
</g>
<defs>
<filter id="filter0_i_24015_22357" x="1" y="1" width="24" height="24.7337" filterUnits="userSpaceOnUse" color-interpolation-filters="sRGB">
<feFlood flood-opacity="0" result="BackgroundImageFix"/>
<feBlend mode="normal" in="SourceGraphic" in2="BackgroundImageFix" result="shape"/>
<feColorMatrix in="SourceAlpha" type="matrix" values="0 0 0 0 0 0 0 0 0 0 0 0 0 0 0 0 0 0 127 0" result="hardAlpha"/>
<feOffset dy="2.20102"/>
<feGaussianBlur stdDeviation="0.366837"/>
<feComposite in2="hardAlpha" operator="arithmetic" k2="-1" k3="1"/>
<feColorMatrix type="matrix" values="0 0 0 0 0.764706 0 0 0 0 0.345098 0 0 0 0 0.0862745 0 0 0 0.6 0"/>
<feBlend mode="normal" in2="shape" result="effect1_innerShadow_24015_22357"/>
</filter>
<filter id="filter1_di_24015_22357" x="6.24023" y="6.89062" width="13.8359" height="12.945" filterUnits="userSpaceOnUse" color-interpolation-filters="sRGB">
<feFlood flood-opacity="0" result="BackgroundImageFix"/>
<feColorMatrix in="SourceAlpha" type="matrix" values="0 0 0 0 0 0 0 0 0 0 0 0 0 0 0 0 0 0 127 0" result="hardAlpha"/>
<feOffset dy="0.0733673"/>
<feComposite in2="hardAlpha" operator="out"/>
<feColorMatrix type="matrix" values="0 0 0 0 1 0 0 0 0 1 0 0 0 0 1 0 0 0 0.5 0"/>
<feBlend mode="normal" in2="BackgroundImageFix" result="effect1_dropShadow_24015_22357"/>
<feBlend mode="normal" in="SourceGraphic" in2="effect1_dropShadow_24015_22357" result="shape"/>
<feColorMatrix in="SourceAlpha" type="matrix" values="0 0 0 0 0 0 0 0 0 0 0 0 0 0 0 0 0 0 127 0" result="hardAlpha"/>
<feOffset dy="0.366837"/>
<feGaussianBlur stdDeviation="0.183418"/>
<feComposite in2="hardAlpha" operator="arithmetic" k2="-1" k3="1"/>
<feColorMatrix type="matrix" values="0 0 0 0 0 0 0 0 0 0 0 0 0 0 0 0 0 0 0.2 0"/>
<feBlend mode="normal" in2="shape" result="effect2_innerShadow_24015_22357"/>
</filter>
<linearGradient id="paint0_linear_24015_22357" x1="13" y1="3.53633" x2="13" y2="21.5637" gradientUnits="userSpaceOnUse">
<stop offset="0.179293" stop-color="#FFCD61"/>
<stop offset="0.803859" stop-color="#E4772C"/>
</linearGradient>
<linearGradient id="paint1_linear_24015_22357" x1="13" y1="1" x2="13" y2="25" gradientUnits="userSpaceOnUse">
<stop offset="0.0494271" stop-color="#FBFCCF"/>
<stop offset="0.393098" stop-color="#F4BE5A"/>
<stop offset="0.840415" stop-color="#DD7122"/>
</linearGradient>
<linearGradient id="paint2_linear_24015_22357" x1="13" y1="1" x2="13" y2="25" gradientUnits="userSpaceOnUse">
<stop offset="0.0418855" stop-color="white"/>
<stop offset="0.114202" stop-color="#CB983C"/>
<stop offset="0.489583" stop-color="#F0B245"/>
<stop offset="1" stop-color="#FFAB4F" stop-opacity="0.47"/>
</linearGradient>
<linearGradient id="paint3_linear_24015_22357" x1="13.1577" y1="6.89062" x2="13.1577" y2="19.4679" gradientUnits="userSpaceOnUse">
<stop stop-color="#E47E33"/>
<stop offset="1" stop-color="#C25615"/>
</linearGradient>
<linearGradient id="paint4_linear_24015_22357" x1="13.1577" y1="6.89062" x2="13.1577" y2="19.4679" gradientUnits="userSpaceOnUse">
<stop stop-color="#E47E33"/>
<stop offset="1" stop-color="#C25615"/>
</linearGradient>
<linearGradient id="paint5_linear_24015_22357" x1="13.1577" y1="6.89062" x2="13.1577" y2="19.4679" gradientUnits="userSpaceOnUse">
<stop stop-color="#E47E33"/>
<stop offset="1" stop-color="#C25615"/>
</linearGradient>
<linearGradient id="paint6_linear_24015_22357" x1="13.1577" y1="6.89062" x2="13.1577" y2="19.4679" gradientUnits="userSpaceOnUse">
<stop stop-color="#E47E33"/>
<stop offset="1" stop-color="#C25615"/>
</linearGradient>
</defs>
</svg>
