<svg width="83" height="27" viewBox="0 0 83 27" fill="none" xmlns="http://www.w3.org/2000/svg">
<path d="M11.8478 24.5432C17.9532 24.5432 22.9026 19.5938 22.9026 13.4884C22.9026 7.383 17.9532 2.43359 11.8478 2.43359C5.74238 2.43359 0.792969 7.383 0.792969 13.4884C0.792969 19.5938 5.74238 24.5432 11.8478 24.5432Z" fill="#26A17B"/>
<path d="M13.0262 14.5086V14.5068C12.9497 14.5121 12.5552 14.5352 11.6772 14.5352C10.9752 14.5352 10.4828 14.5157 10.3087 14.5068V14.5086C7.60894 14.3895 5.59526 13.9203 5.59526 13.3569C5.59526 12.7953 7.61072 12.3243 10.3087 12.2052V14.0412C10.4846 14.0536 10.9911 14.0838 11.6896 14.0838C12.5285 14.0838 12.948 14.0483 13.0262 14.0412V12.207C15.7205 12.3278 17.7289 12.797 17.7289 13.3587C17.7289 13.9203 15.7188 14.3895 13.0262 14.5104M13.0262 12.0168V10.3746H16.7852V7.87036H6.55145V10.3746H10.3104V12.0168C7.25526 12.1572 4.95898 12.7615 4.95898 13.4866C4.95898 14.2118 7.25704 14.8161 10.3104 14.9582V20.2226H13.0279V14.9582C16.0778 14.8178 18.3705 14.2136 18.3705 13.4884C18.3705 12.7651 16.0778 12.159 13.0279 12.0186" fill="white"/>
<path d="M32.2939 8.55467V11.21H34.8746V13.2023H32.2761V17.2421C32.2761 18.1343 32.7684 18.5698 33.49 18.5698C33.8508 18.5698 34.2685 18.456 34.6097 18.2854L35.2549 20.2582C34.592 20.523 34.041 20.6368 33.339 20.6563C31.3093 20.7327 29.9816 19.5757 29.9816 17.2421V13.2023H28.2363V11.21H29.9816V8.80172L32.2939 8.55467ZM76.7851 11.0856L76.9557 12.1662C77.6773 11.0091 78.6442 10.8385 79.5932 10.8385C80.5601 10.8385 81.4896 11.2171 82.0015 11.7289L80.9582 13.7391C80.4837 13.3409 80.0482 13.1312 79.2893 13.1312C78.0754 13.1312 76.9557 13.7764 76.9557 15.5021V20.4342H74.6417V11.082L76.7851 11.0856ZM71.1137 14.6704C70.9627 13.4565 70.0136 12.8486 68.6859 12.8486C67.4347 12.8486 66.4092 13.4565 66.068 14.6704H71.1137ZM66.0307 16.5863C66.1817 17.7433 67.1877 18.5787 68.8192 18.5787C69.6723 18.5787 70.792 18.2552 71.3235 17.706L72.8022 19.1669C71.8158 20.1907 70.2038 20.6848 68.7801 20.6848C65.5561 20.6848 63.6384 18.6924 63.6384 15.6959C63.6384 12.8504 65.5739 10.8012 68.6095 10.8012C71.7393 10.8012 73.6944 12.7367 73.3336 16.5863H66.0307ZM55.8254 7.15771V12.3545C56.6607 11.2739 57.6844 10.9505 58.7473 10.9505C61.4026 10.9505 62.5791 12.7527 62.5791 15.5039V20.4359H60.2651V15.5235C60.2651 13.8155 59.3729 13.0957 58.1394 13.0957C56.7727 13.0957 55.8254 14.2527 55.8254 15.6568V20.4377H53.5113V7.15949L55.8254 7.15771ZM49.6795 8.44804V11.1033H52.2601V13.0957H49.6617V17.1355C49.6617 18.0277 50.1558 18.4631 50.8756 18.4631C51.2364 18.4631 51.6541 18.3494 51.9953 18.1788L52.6405 20.1516C51.9775 20.4164 51.4266 20.5301 50.7245 20.5497C48.6949 20.6261 47.3672 19.4673 47.3672 17.1355V13.0957H45.6219V11.1033H47.3672V8.69508L49.6795 8.44804ZM43.2865 14.6704C43.1355 13.4565 42.1864 12.8486 40.8587 12.8486C39.6075 12.8486 38.582 13.4565 38.2408 14.6704H43.2865ZM38.2034 16.5863C38.3545 17.7433 39.3605 18.5787 40.992 18.5787C41.8451 18.5787 42.9648 18.2552 43.4962 17.706L44.975 19.1669C43.9886 20.1907 42.3765 20.6848 40.9529 20.6848C37.7271 20.6848 35.8112 18.6924 35.8112 15.6959C35.8112 12.8504 37.7467 10.8012 40.7805 10.8012C43.9104 10.8012 45.8636 12.7367 45.5046 16.5863H38.2034Z" fill="white"/>
</svg>
