<svg width="140" height="140" viewBox="0 0 140 140" fill="none" xmlns="http://www.w3.org/2000/svg">
<circle cx="60" cy="60" r="60" fill="url(#paint0_linear_302_4022)"/>
<path fill-rule="evenodd" clip-rule="evenodd" d="M100 69.3275C100 58.0917 89.2538 49 76 49C62.7454 49 52 58.0917 52 69.3275C52 80.5232 62.7454 89.6141 76 89.6549C78.7378 89.6141 81.3821 89.2171 83.8725 88.4824C84.056 88.4324 84.0412 88.434 84.5237 88.3373C85.0071 88.2414 85.4273 88.4824 85.7919 88.6776L90.9757 91.8049C91.2141 91.935 91.3558 92 91.5516 92C91.9719 92 92.329 91.6364 92.32 91.2186C92.329 90.9876 92.2561 90.8041 92.2004 90.6098C92.1439 90.4172 91.5008 88.0329 91.1682 86.5276C91.1207 86.3141 91.0945 86.1916 91.0945 85.7888C91.0945 85.3851 91.2993 84.9515 91.7441 84.5729C96.7658 80.9335 100 75.4253 100 69.3275ZM67.8416 65.809C66.2393 65.809 64.863 64.4097 64.863 62.5875C64.863 60.9546 66.2393 59.5544 67.8416 59.5544C69.6324 59.5544 71.007 60.9555 71.007 62.5875C71.007 64.4097 69.6324 65.809 67.8416 65.809ZM83.7774 65.809C82.1751 65.809 80.7989 64.4097 80.7989 62.5875C80.7989 60.9546 82.1751 59.5544 83.7774 59.5544C85.5682 59.5544 86.9428 60.9555 86.9428 62.5875C86.9428 64.4097 85.5682 65.809 83.7774 65.809Z" fill="white"/>
<path fill-rule="evenodd" clip-rule="evenodd" d="M20 51.1483C20 58.3438 23.8626 64.8758 29.9467 69.306C30.3947 69.6398 30.6338 70.0206 30.6338 70.6602C30.6338 70.882 30.5955 71.1193 30.5196 71.4317C30.0112 73.5335 29.4529 75.9386 29.3721 76.2617C29.2922 76.5831 29.1649 76.7975 29.1812 77.034C29.1649 77.5689 29.5925 78 30.1376 78C30.3278 78 30.4984 77.9217 30.7114 77.8063L37.0231 74.136C37.423 73.892 37.8719 73.7659 38.1738 73.7659C38.4774 73.7659 38.9826 73.8607 39.3188 73.9431C42.2454 74.6981 45.4045 75.1712 48.691 75.102C49.1992 75.1638 49.7129 75.1638 50.2212 75.102C49.6179 73.2293 49.2955 71.2759 49.2647 69.3069C49.2892 57.1 60.9978 47.2637 75.4698 47.2843C75.966 47.2637 76.4834 47.2802 77 47.2843C74.8398 35.8003 62.9834 27 48.691 27C32.839 27 20 37.785 20 51.1483ZM38.9361 47.2843C38.4337 47.2843 37.9362 47.1843 37.4721 46.9902C37.008 46.796 36.5863 46.5114 36.231 46.1527C35.8758 45.7939 35.594 45.368 35.4018 44.8992C35.2095 44.4305 35.1106 43.9281 35.1106 43.4207C35.1106 42.9133 35.2095 42.4109 35.4018 41.9422C35.594 41.4734 35.8758 41.0475 36.231 40.6887C36.5863 40.33 37.008 40.0454 37.4721 39.8512C37.9362 39.6571 38.4337 39.5571 38.9361 39.5571C39.4384 39.5571 39.9359 39.6571 40.4 39.8512C40.8642 40.0454 41.2859 40.33 41.6411 40.6887C41.9963 41.0475 42.2781 41.4734 42.4704 41.9422C42.6626 42.4109 42.7616 42.9133 42.7616 43.4207C42.7616 43.9281 42.6626 44.4305 42.4704 44.8992C42.2781 45.368 41.9963 45.7939 41.6411 46.1527C41.2859 46.5114 40.8642 46.796 40.4 46.9902C39.9359 47.1843 39.4384 47.2843 38.9361 47.2843ZM58.0639 47.2843C57.5616 47.2843 57.0641 47.1843 56.6 46.9902C56.1358 46.796 55.7141 46.5114 55.3589 46.1527C55.0037 45.7939 54.7219 45.368 54.5296 44.8992C54.3374 44.4305 54.2384 43.9281 54.2384 43.4207C54.2384 42.9133 54.3374 42.4109 54.5296 41.9422C54.7219 41.4734 55.0037 41.0475 55.3589 40.6887C55.7141 40.33 56.1358 40.0454 56.6 39.8512C57.0641 39.6571 57.5616 39.5571 58.0639 39.5571C59.0688 39.572 60.0276 39.9855 60.7331 40.7085C61.4385 41.4314 61.8339 42.4057 61.8339 43.4207C61.8339 44.4357 61.4385 45.41 60.7331 46.1329C60.0276 46.8559 59.0688 47.2695 58.0639 47.2843Z" fill="white"/>
<defs>
<linearGradient id="paint0_linear_302_4022" x1="60.0005" y1="0.326134" x2="60.0005" y2="120.002" gradientUnits="userSpaceOnUse">
<stop stop-color="#02E36F"/>
<stop offset="1" stop-color="#07C160"/>
</linearGradient>
</defs>
</svg>
