<svg width="140" height="140" viewBox="0 0 140 140" fill="none" xmlns="http://www.w3.org/2000/svg">
<path d="M60 120C93.1371 120 120 93.1371 120 60C120 26.8629 93.1371 0 60 0C26.8629 0 0 26.8629 0 60C0 93.1371 26.8629 120 60 120Z" fill="url(#paint0_linear_302_1733)"/>
<path fill-rule="evenodd" clip-rule="evenodd" d="M25 67.1561L25 67.1004L25 66.0053L25 66.0038V39.2635C25 38.245 25.8257 37.4194 26.8442 37.4194C27.8627 37.4194 28.6884 38.245 28.6884 39.2635V52.0388C33.8895 42.0484 44.0941 35.0441 56.0782 34.4215L60.5 34.1918L64.9217 34.4215C76.9059 35.0441 87.1106 42.0485 92.3117 52.039V39.2635C92.3117 38.245 93.1373 37.4194 94.1558 37.4194C95.1743 37.4194 96 38.245 96 39.2635L96 65.3121L96 66.0038L96 66.0091V74.5329C96 81.1027 85.3961 86.0588 60.5 86.0588C35.6039 86.0588 25 81.1027 25 74.5329L25 67.1561ZM42.0585 54.9389C36.966 54.9389 32.8377 59.0671 32.8377 64.1596C32.8377 69.2521 36.966 73.3804 42.0585 73.3804H60.5H78.9415C84.034 73.3804 88.1623 69.2521 88.1623 64.1596C88.1623 59.0671 84.034 54.9389 78.9415 54.9389H42.0585Z" fill="white"/>
<circle cx="42.0586" cy="64.1593" r="4.61038" fill="white"/>
<circle cx="78.9414" cy="64.1593" r="4.61038" fill="white"/>
<g filter="url(#filter0_d_302_1733)">
<path d="M100 128C115.464 128 128 115.464 128 100C128 84.536 115.464 72 100 72C84.536 72 72 84.536 72 100C72 115.464 84.536 128 100 128Z" fill="url(#paint1_linear_302_1733)"/>
<path d="M100 128C115.464 128 128 115.464 128 100C128 84.536 115.464 72 100 72C84.536 72 72 84.536 72 100C72 115.464 84.536 128 100 128Z" fill="url(#paint2_linear_302_1733)"/>
<path d="M100 130C116.569 130 130 116.569 130 100C130 83.4315 116.569 70 100 70C83.4315 70 70 83.4315 70 100C70 116.569 83.4315 130 100 130Z" stroke="white" stroke-width="4"/>
</g>
<path fill-rule="evenodd" clip-rule="evenodd" d="M122.229 104.871C122.229 98.8002 116.422 93.8876 109.26 93.8876C102.098 93.8876 96.292 98.8002 96.292 104.871C96.292 110.921 102.098 115.833 109.26 115.855C110.74 115.833 112.168 115.619 113.514 115.222C113.613 115.195 113.605 115.196 113.866 115.143C114.127 115.091 114.354 115.222 114.551 115.327L117.352 117.017C117.481 117.087 117.558 117.122 117.664 117.122C117.891 117.122 118.084 116.926 118.079 116.7C118.084 116.575 118.044 116.476 118.014 116.371C117.984 116.267 117.636 114.979 117.456 114.165C117.431 114.05 117.417 113.984 117.417 113.766C117.417 113.548 117.527 113.314 117.768 113.109C120.481 111.143 122.229 108.166 122.229 104.871ZM104.852 102.97C103.986 102.97 103.242 102.214 103.242 101.23C103.242 100.347 103.986 99.5906 104.852 99.5906C105.82 99.5906 106.562 100.348 106.562 101.23C106.562 102.214 105.82 102.97 104.852 102.97ZM113.463 102.97C112.597 102.97 111.853 102.214 111.853 101.23C111.853 100.347 112.597 99.5906 113.463 99.5906C114.43 99.5906 115.173 100.348 115.173 101.23C115.173 102.214 114.43 102.97 113.463 102.97Z" fill="white"/>
<path fill-rule="evenodd" clip-rule="evenodd" d="M79 95.0484C79 98.9365 81.0871 102.466 84.3746 104.86C84.6167 105.04 84.7459 105.246 84.7459 105.592C84.7459 105.711 84.7252 105.84 84.6842 106.008C84.4095 107.144 84.1078 108.444 84.0642 108.618C84.021 108.792 83.9522 108.908 83.961 109.036C83.9522 109.325 84.1833 109.558 84.4778 109.558C84.5806 109.558 84.6727 109.515 84.7878 109.453L88.1984 107.47C88.4144 107.338 88.657 107.27 88.8201 107.27C88.9842 107.27 89.2572 107.321 89.4388 107.366C91.0202 107.773 92.7272 108.029 94.503 107.992C94.7776 108.025 95.0552 108.025 95.3299 107.992C95.0039 106.98 94.8297 105.924 94.813 104.86C94.8263 98.2644 101.153 92.9494 108.973 92.9605C109.241 92.9494 109.521 92.9583 109.8 92.9605C108.632 86.7552 102.226 82 94.503 82C85.9375 82 79 87.8276 79 95.0484ZM89.232 92.9605C88.9606 92.9605 88.6918 92.9065 88.441 92.8016C88.1902 92.6967 87.9623 92.5429 87.7704 92.3491C87.5784 92.1552 87.4262 91.9251 87.3223 91.6718C87.2184 91.4185 87.1649 91.147 87.1649 90.8729C87.1649 90.5987 87.2184 90.3272 87.3223 90.0739C87.4262 89.8206 87.5784 89.5905 87.7704 89.3966C87.9623 89.2028 88.1902 89.049 88.441 88.9441C88.6918 88.8392 88.9606 88.7852 89.232 88.7852C89.5035 88.7852 89.7723 88.8392 90.0231 88.9441C90.2738 89.049 90.5017 89.2028 90.6937 89.3966C90.8856 89.5905 91.0379 89.8206 91.1418 90.0739C91.2456 90.3272 91.2991 90.5987 91.2991 90.8729C91.2991 91.147 91.2456 91.4185 91.1418 91.6718C91.0379 91.9251 90.8856 92.1552 90.6937 92.3491C90.5017 92.5429 90.2738 92.6967 90.0231 92.8016C89.7723 92.9065 89.5035 92.9605 89.232 92.9605ZM99.5677 92.9605C99.2962 92.9605 99.0274 92.9065 98.7766 92.8016C98.5258 92.6967 98.298 92.5429 98.106 92.3491C97.9141 92.1552 97.7618 91.9251 97.6579 91.6718C97.554 91.4185 97.5006 91.147 97.5006 90.8729C97.5006 90.5987 97.554 90.3272 97.6579 90.0739C97.7618 89.8206 97.9141 89.5905 98.106 89.3966C98.298 89.2028 98.5258 89.049 98.7766 88.9441C99.0274 88.8392 99.2962 88.7852 99.5677 88.7852C100.111 88.7932 100.629 89.0167 101.01 89.4073C101.391 89.798 101.605 90.3244 101.605 90.8729C101.605 91.4213 101.391 91.9477 101.01 92.3384C100.629 92.729 100.111 92.9525 99.5677 92.9605Z" fill="white"/>
<defs>
<filter id="filter0_d_302_1733" x="56" y="56" width="88" height="88" filterUnits="userSpaceOnUse" color-interpolation-filters="sRGB">
<feFlood flood-opacity="0" result="BackgroundImageFix"/>
<feColorMatrix in="SourceAlpha" type="matrix" values="0 0 0 0 0 0 0 0 0 0 0 0 0 0 0 0 0 0 127 0" result="hardAlpha"/>
<feOffset/>
<feGaussianBlur stdDeviation="6"/>
<feComposite in2="hardAlpha" operator="out"/>
<feColorMatrix type="matrix" values="0 0 0 0 0 0 0 0 0 0 0 0 0 0 0 0 0 0 0.29 0"/>
<feBlend mode="normal" in2="BackgroundImageFix" result="effect1_dropShadow_302_1733"/>
<feBlend mode="normal" in="SourceGraphic" in2="effect1_dropShadow_302_1733" result="shape"/>
</filter>
<linearGradient id="paint0_linear_302_1733" x1="60.0005" y1="0.326134" x2="60.0005" y2="120.002" gradientUnits="userSpaceOnUse">
<stop stop-color="#02E36F"/>
<stop offset="1" stop-color="#07C160"/>
</linearGradient>
<linearGradient id="paint1_linear_302_1733" x1="109.352" y1="81.352" x2="95.352" y2="114" gradientUnits="userSpaceOnUse">
<stop stop-color="#37AEE2"/>
<stop offset="1" stop-color="#1E96C8"/>
</linearGradient>
<linearGradient id="paint2_linear_302_1733" x1="100" y1="72.1522" x2="100" y2="128.001" gradientUnits="userSpaceOnUse">
<stop stop-color="#02E36F"/>
<stop offset="1" stop-color="#07C160"/>
</linearGradient>
</defs>
</svg>
